<svg width="83" height="86" viewBox="0 0 83 86" fill="none" xmlns="http://www.w3.org/2000/svg">
<path opacity="0.4" d="M34.6969 76.0291C16.1901 71.0702 7.2091 42.4826 12.168 23.9758C17.1269 5.46901 30.2196 18.7115 48.7264 23.6704C67.2332 28.6293 82.1442 32.9916 77.1853 51.4984C72.2264 70.0052 53.2037 80.9879 34.6969 76.0291Z" fill="#FFC701"/>
<g clip-path="url(#clip0_3245_2726)">
<path fill-rule="evenodd" clip-rule="evenodd" d="M50.9533 41.1117C50.4936 39.8117 49.6422 38.6862 48.5163 37.8902C47.3905 37.0941 46.0455 36.6667 44.6667 36.6667V35H41.3333V36.6667C39.5652 36.6667 37.8695 37.369 36.6193 38.6193C35.369 39.8695 34.6667 41.5652 34.6667 43.3333C34.6667 45.1014 35.369 46.7971 36.6193 48.0474C37.8695 49.2976 39.5652 50 41.3333 50V56.6667C39.8833 56.6667 38.6483 55.7417 38.1883 54.445C38.1201 54.2329 38.01 54.0366 37.8645 53.8677C37.7191 53.6989 37.5413 53.5609 37.3416 53.462C37.1419 53.363 36.9244 53.3052 36.702 53.2918C36.4795 53.2784 36.2566 53.3097 36.0465 53.384C35.8364 53.4582 35.6433 53.5738 35.4787 53.724C35.314 53.8742 35.1811 54.0558 35.0879 54.2582C34.9947 54.4606 34.943 54.6797 34.9359 54.9024C34.9288 55.1252 34.9665 55.3471 35.0467 55.555C35.5064 56.855 36.3578 57.9804 37.4837 58.7765C38.6095 59.5725 39.9545 60 41.3333 60V61.6667H44.6667V60C46.4348 60 48.1305 59.2976 49.3807 58.0474C50.631 56.7971 51.3333 55.1014 51.3333 53.3333C51.3333 51.5652 50.631 49.8695 49.3807 48.6193C48.1305 47.369 46.4348 46.6667 44.6667 46.6667V40C45.356 39.9998 46.0285 40.2134 46.5914 40.6113C47.1544 41.0091 47.5801 41.5718 47.81 42.2217C47.9572 42.6385 48.2639 42.9798 48.6628 43.1704C48.8603 43.2649 49.0744 43.3194 49.293 43.3311C49.5115 43.3427 49.7303 43.3112 49.9367 43.2383C50.1431 43.1655 50.3331 43.0526 50.4959 42.9063C50.6587 42.76 50.791 42.583 50.8854 42.3856C50.9799 42.1881 51.0344 41.9739 51.0461 41.7554C51.0577 41.5368 51.0262 41.3181 50.9533 41.1117ZM41.3333 40C40.4493 40 39.6014 40.3512 38.9763 40.9763C38.3512 41.6014 38 42.4493 38 43.3333C38 44.2174 38.3512 45.0652 38.9763 45.6904C39.6014 46.3155 40.4493 46.6667 41.3333 46.6667V40ZM44.6667 56.6667C45.5507 56.6667 46.3986 56.3155 47.0237 55.6904C47.6488 55.0652 48 54.2174 48 53.3333C48 52.4493 47.6488 51.6014 47.0237 50.9763C46.3986 50.3512 45.5507 50 44.6667 50V56.6667Z" fill="black"/>
<path fill-rule="evenodd" clip-rule="evenodd" d="M24.9217 14.3683C29.0117 12.3667 35.7217 10 43.065 10C50.255 10 56.7883 12.2683 60.8567 14.2433L61.0867 14.355C62.3133 14.9617 63.3033 15.535 64 16L57.8433 25C72.0367 39.51 83 69.995 43.065 69.995C3.12999 69.995 13.7983 40.0633 28.115 25L21.9983 16C22.47 15.6917 23.0683 15.3333 23.7817 14.9533C24.135 14.7633 24.515 14.5667 24.9217 14.3683ZM53.8867 24.88L58.815 17.675C54.2317 18.005 48.7783 19.0817 43.5283 20.6017C39.7783 21.685 35.6117 21.52 31.7533 20.8083C30.781 20.6281 29.8154 20.4135 28.8583 20.165L32.0583 24.8767C38.9167 27.3183 47.0267 27.3183 53.8867 24.88ZM30.1333 27.7167C38.1583 30.8167 47.8033 30.8167 55.8283 27.7133C59.1781 31.2445 61.9803 35.2573 64.1417 39.6183C66.395 44.215 67.6217 48.81 67.4217 52.77C67.2283 56.5917 65.725 59.8567 62.2917 62.2833C58.7133 64.8117 52.695 66.6617 43.0633 66.6617C33.4217 66.6617 27.375 64.8433 23.7633 62.3433C20.305 59.9467 18.7867 56.7267 18.5717 52.9567C18.3467 49.04 19.5467 44.4683 21.7917 39.84C23.9333 35.4267 26.9217 31.1783 30.1333 27.7167ZM28.2167 16.5267C29.55 16.9233 30.9433 17.2683 32.3567 17.53C35.94 18.19 39.5333 18.2867 42.6 17.3983C46.1737 16.3572 49.8084 15.5385 53.4833 14.9467C50.4167 14.0233 46.83 13.3333 43.0633 13.3333C37.3217 13.3333 31.9667 14.935 28.2167 16.5267Z" fill="black" stroke="black"/>
<path fill-rule="evenodd" clip-rule="evenodd" d="M50.9533 41.1117C50.4936 39.8117 49.6422 38.6862 48.5163 37.8902C47.3905 37.0941 46.0455 36.6667 44.6667 36.6667V35H41.3333V36.6667C39.5652 36.6667 37.8695 37.369 36.6193 38.6193C35.369 39.8695 34.6667 41.5652 34.6667 43.3333C34.6667 45.1014 35.369 46.7971 36.6193 48.0474C37.8695 49.2976 39.5652 50 41.3333 50V56.6667C39.8833 56.6667 38.6483 55.7417 38.1883 54.445C38.1201 54.2329 38.01 54.0366 37.8645 53.8677C37.7191 53.6989 37.5413 53.5609 37.3416 53.462C37.1419 53.363 36.9244 53.3052 36.702 53.2918C36.4795 53.2784 36.2566 53.3097 36.0465 53.384C35.8364 53.4582 35.6433 53.5738 35.4787 53.724C35.314 53.8742 35.1811 54.0558 35.0879 54.2582C34.9947 54.4606 34.943 54.6797 34.9359 54.9024C34.9288 55.1252 34.9665 55.3471 35.0467 55.555C35.5064 56.855 36.3578 57.9804 37.4837 58.7765C38.6095 59.5725 39.9545 60 41.3333 60V61.6667H44.6667V60C46.4348 60 48.1305 59.2976 49.3807 58.0474C50.631 56.7971 51.3333 55.1014 51.3333 53.3333C51.3333 51.5652 50.631 49.8695 49.3807 48.6193C48.1305 47.369 46.4348 46.6667 44.6667 46.6667V40C45.356 39.9998 46.0285 40.2134 46.5914 40.6113C47.1544 41.0091 47.5801 41.5718 47.81 42.2217C47.9572 42.6385 48.2639 42.9798 48.6628 43.1704C48.8603 43.2649 49.0744 43.3194 49.293 43.3311C49.5115 43.3427 49.7303 43.3112 49.9367 43.2383C50.1431 43.1655 50.3331 43.0526 50.4959 42.9063C50.6587 42.76 50.791 42.583 50.8854 42.3856C50.9799 42.1881 51.0344 41.9739 51.0461 41.7554C51.0577 41.5368 51.0262 41.3181 50.9533 41.1117ZM41.3333 40C40.4493 40 39.6014 40.3512 38.9763 40.9763C38.3512 41.6014 38 42.4493 38 43.3333C38 44.2174 38.3512 45.0652 38.9763 45.6904C39.6014 46.3155 40.4493 46.6667 41.3333 46.6667V40ZM44.6667 56.6667C45.5507 56.6667 46.3986 56.3155 47.0237 55.6904C47.6488 55.0652 48 54.2174 48 53.3333C48 52.4493 47.6488 51.6014 47.0237 50.9763C46.3986 50.3512 45.5507 50 44.6667 50V56.6667Z" fill="#009DC4"/>
</g>
<defs>
<clipPath id="clip0_3245_2726">
<rect width="80" height="80" fill="white" transform="translate(3)"/>
</clipPath>
</defs>
</svg>
