<svg width="350" height="628" viewBox="0 0 350 628" fill="none" xmlns="http://www.w3.org/2000/svg">
<circle cx="7" cy="293" r="292.5" fill="#FFFDF8" stroke="#FFC701"/>
<circle cx="6.5" cy="292.5" r="198" fill="#FFFAE7" stroke="#FFC701"/>
<circle cx="6.5" cy="292.5" r="107" fill="#FFF5D5" stroke="#FFC701"/>
<path d="M42.92 254.19C39.3 254.19 36.57 253.19 34.73 251.19C32.91 249.21 32 246.43 32 242.85L32 236.85L53.42 236.85L53.42 243.48C53.42 245.66 53.02 247.55 52.22 249.15C51.42 250.75 50.24 251.99 48.68 252.87C47.14 253.75 45.22 254.19 42.92 254.19ZM42.83 250.8C45.53 250.8 47.51 250.14 48.77 248.82C50.05 247.52 50.69 245.67 50.69 243.27L50.69 240.09L34.73 240.09L34.73 242.7C34.73 248.1 37.43 250.8 42.83 250.8ZM42.74 277.752C40.52 277.752 38.58 277.382 36.92 276.642C35.28 275.902 34 274.792 33.08 273.312C32.16 271.832 31.7 269.992 31.7 267.792C31.7 265.532 32.16 263.662 33.08 262.182C34 260.702 35.29 259.602 36.95 258.882C38.61 258.162 40.55 257.802 42.77 257.802C44.97 257.802 46.89 258.162 48.53 258.882C50.17 259.622 51.45 260.732 52.37 262.212C53.29 263.692 53.75 265.562 53.75 267.822C53.75 270.022 53.29 271.852 52.37 273.312C51.47 274.792 50.19 275.902 48.53 276.642C46.89 277.382 44.96 277.752 42.74 277.752ZM42.74 261.222C40.18 261.222 38.16 261.752 36.68 262.812C35.2 263.872 34.46 265.532 34.46 267.792C34.46 270.072 35.2 271.732 36.68 272.772C38.16 273.812 40.18 274.332 42.74 274.332C45.3 274.332 47.31 273.812 48.77 272.772C50.23 271.752 50.96 270.102 50.96 267.822C50.96 265.542 50.23 263.872 48.77 262.812C47.31 261.752 45.3 261.222 42.74 261.222ZM32 299.987L32 296.057L49.31 285.227L49.31 285.107C48.51 285.147 47.59 285.197 46.55 285.257C45.53 285.317 44.48 285.347 43.4 285.347L32 285.347L32 282.407L53.42 282.407L53.42 286.307L36.2 297.107L36.2 297.197C36.62 297.177 37.15 297.147 37.79 297.107C38.43 297.087 39.11 297.067 39.83 297.047C40.57 297.027 41.26 297.007 41.9 296.987L53.42 296.987L53.42 299.987L32 299.987ZM32 319.048L38.18 316.768L38.18 308.488L32 306.208L32 302.848L53.51 310.978L53.51 314.338L32 322.438L32 319.048ZM47.03 313.708C47.25 313.648 47.58 313.538 48.02 313.378C48.46 313.238 48.92 313.098 49.4 312.958C49.88 312.818 50.27 312.708 50.57 312.628C49.95 312.468 49.29 312.288 48.59 312.088C47.89 311.888 47.37 311.728 47.03 311.608L41 309.448L41 315.868L47.03 313.708ZM32 330.417L32 327.177L50.63 327.177L50.63 320.757L53.42 320.757L53.42 336.837L50.63 336.837L50.63 330.417L32 330.417ZM32 352.181L32 340.121L53.42 340.121L53.42 352.181L50.66 352.181L50.66 343.361L44.54 343.361L44.54 351.641L41.81 351.641L41.81 343.361L34.79 343.361L34.79 352.181L32 352.181Z" fill="#101010"/>
<circle cx="268" cy="161" r="4" fill="black"/>
<circle cx="54" cy="101" r="4" fill="black"/>
<circle cx="220" cy="492" r="4" fill="black"/>
<circle cx="32" cy="584" r="4" fill="black"/>
<circle cx="179" cy="390" r="4" fill="black"/>
<g filter="url(#filter0_d_3245_2724)">
<rect x="214" y="119" width="108" height="38" rx="4" fill="white"/>
</g>
<g filter="url(#filter1_d_3245_2724)">
<rect x="17" y="58" width="98" height="38" rx="4" fill="white"/>
</g>
<g filter="url(#filter2_d_3245_2724)">
<rect x="113" y="347" width="134" height="38" rx="4" fill="white"/>
</g>
<g filter="url(#filter3_d_3245_2724)">
<rect x="167" y="449" width="112" height="38" rx="4" fill="white"/>
</g>
<g filter="url(#filter4_d_3245_2724)">
<rect x="36" y="564" width="112" height="38" rx="4" fill="white"/>
</g>
<path d="M235.522 143H234.262V134.11H231.14V133.004H238.63V134.11H235.522V143ZM241.69 135.37C242.605 135.37 243.282 135.571 243.72 135.972C244.159 136.373 244.378 137.013 244.378 137.89V143H243.482L243.244 141.936H243.188C242.862 142.347 242.516 142.65 242.152 142.846C241.798 143.042 241.303 143.14 240.668 143.14C239.987 143.14 239.422 142.963 238.974 142.608C238.526 142.244 238.302 141.679 238.302 140.914C238.302 140.167 238.596 139.593 239.184 139.192C239.772 138.781 240.678 138.557 241.9 138.52L243.174 138.478V138.03C243.174 137.405 243.039 136.971 242.768 136.728C242.498 136.485 242.115 136.364 241.62 136.364C241.228 136.364 240.855 136.425 240.5 136.546C240.146 136.658 239.814 136.789 239.506 136.938L239.128 136.014C239.455 135.837 239.842 135.687 240.29 135.566C240.738 135.435 241.205 135.37 241.69 135.37ZM242.054 139.374C241.121 139.411 240.472 139.561 240.108 139.822C239.754 140.083 239.576 140.452 239.576 140.928C239.576 141.348 239.702 141.656 239.954 141.852C240.216 142.048 240.547 142.146 240.948 142.146C241.583 142.146 242.11 141.973 242.53 141.628C242.95 141.273 243.16 140.732 243.16 140.004V139.332L242.054 139.374ZM248.474 139.164L245.884 135.496H247.284L249.216 138.324L251.134 135.496H252.52L249.93 139.164L252.66 143H251.26L249.216 140.004L247.144 143H245.758L248.474 139.164ZM260.767 133.004C262.017 133.004 262.96 133.191 263.595 133.564C264.239 133.928 264.561 134.567 264.561 135.482C264.561 136.07 264.397 136.56 264.071 136.952C263.744 137.335 263.273 137.582 262.657 137.694V137.764C263.077 137.829 263.455 137.951 263.791 138.128C264.136 138.305 264.407 138.557 264.603 138.884C264.799 139.211 264.897 139.635 264.897 140.158C264.897 141.063 264.584 141.763 263.959 142.258C263.343 142.753 262.498 143 261.425 143H257.911V133.004H260.767ZM261.019 137.26C261.877 137.26 262.465 137.125 262.783 136.854C263.1 136.574 263.259 136.163 263.259 135.622C263.259 135.071 263.063 134.679 262.671 134.446C262.288 134.203 261.672 134.082 260.823 134.082H259.171V137.26H261.019ZM259.171 138.31V141.936H261.187C262.073 141.936 262.689 141.763 263.035 141.418C263.38 141.073 263.553 140.62 263.553 140.06C263.553 139.537 263.371 139.117 263.007 138.8C262.652 138.473 262.013 138.31 261.089 138.31H259.171ZM269.746 135.356C270.39 135.356 270.941 135.496 271.398 135.776C271.865 136.056 272.22 136.453 272.462 136.966C272.714 137.47 272.84 138.063 272.84 138.744V139.486H267.702C267.721 140.335 267.936 140.984 268.346 141.432C268.766 141.871 269.35 142.09 270.096 142.09C270.572 142.09 270.992 142.048 271.356 141.964C271.73 141.871 272.112 141.74 272.504 141.572V142.65C272.122 142.818 271.744 142.939 271.37 143.014C270.997 143.098 270.554 143.14 270.04 143.14C269.331 143.14 268.701 142.995 268.15 142.706C267.609 142.417 267.184 141.987 266.876 141.418C266.578 140.839 266.428 140.135 266.428 139.304C266.428 138.483 266.564 137.778 266.834 137.19C267.114 136.602 267.502 136.149 267.996 135.832C268.5 135.515 269.084 135.356 269.746 135.356ZM269.732 136.364C269.144 136.364 268.678 136.555 268.332 136.938C267.996 137.311 267.796 137.834 267.73 138.506H271.552C271.543 137.871 271.394 137.358 271.104 136.966C270.815 136.565 270.358 136.364 269.732 136.364ZM278.363 135.356C279.259 135.356 279.935 135.575 280.393 136.014C280.85 136.443 281.079 137.143 281.079 138.114V143H279.861V138.198C279.861 136.994 279.301 136.392 278.181 136.392C277.35 136.392 276.776 136.625 276.459 137.092C276.141 137.559 275.983 138.231 275.983 139.108V143H274.751V135.496H275.745L275.927 136.518H275.997C276.239 136.126 276.575 135.837 277.005 135.65C277.434 135.454 277.887 135.356 278.363 135.356ZM286.303 135.356C286.947 135.356 287.498 135.496 287.955 135.776C288.422 136.056 288.776 136.453 289.019 136.966C289.271 137.47 289.397 138.063 289.397 138.744V139.486H284.259C284.278 140.335 284.492 140.984 284.903 141.432C285.323 141.871 285.906 142.09 286.653 142.09C287.129 142.09 287.549 142.048 287.913 141.964C288.286 141.871 288.669 141.74 289.061 141.572V142.65C288.678 142.818 288.3 142.939 287.927 143.014C287.554 143.098 287.11 143.14 286.597 143.14C285.888 143.14 285.258 142.995 284.707 142.706C284.166 142.417 283.741 141.987 283.433 141.418C283.134 140.839 282.985 140.135 282.985 139.304C282.985 138.483 283.12 137.778 283.391 137.19C283.671 136.602 284.058 136.149 284.553 135.832C285.057 135.515 285.64 135.356 286.303 135.356ZM286.289 136.364C285.701 136.364 285.234 136.555 284.889 136.938C284.553 137.311 284.352 137.834 284.287 138.506H288.109C288.1 137.871 287.95 137.358 287.661 136.966C287.372 136.565 286.914 136.364 286.289 136.364ZM294.765 136.448H292.875V143H291.643V136.448H290.327V135.874L291.643 135.454V135.02C291.643 134.049 291.858 133.354 292.287 132.934C292.717 132.505 293.314 132.29 294.079 132.29C294.378 132.29 294.649 132.318 294.891 132.374C295.143 132.421 295.358 132.477 295.535 132.542L295.213 133.508C295.064 133.461 294.891 133.415 294.695 133.368C294.499 133.321 294.299 133.298 294.093 133.298C293.683 133.298 293.375 133.438 293.169 133.718C292.973 133.989 292.875 134.418 292.875 135.006V135.496H294.765V136.448ZM296.753 132.682C296.94 132.682 297.103 132.747 297.243 132.878C297.393 132.999 297.467 133.195 297.467 133.466C297.467 133.727 297.393 133.923 297.243 134.054C297.103 134.185 296.94 134.25 296.753 134.25C296.548 134.25 296.375 134.185 296.235 134.054C296.095 133.923 296.025 133.727 296.025 133.466C296.025 133.195 296.095 132.999 296.235 132.878C296.375 132.747 296.548 132.682 296.753 132.682ZM297.355 135.496V143H296.123V135.496H297.355ZM302.235 142.132C302.422 142.132 302.613 142.118 302.809 142.09C303.005 142.053 303.164 142.015 303.285 141.978V142.916C303.154 142.981 302.968 143.033 302.725 143.07C302.482 143.117 302.249 143.14 302.025 143.14C301.633 143.14 301.269 143.075 300.933 142.944C300.606 142.804 300.34 142.566 300.135 142.23C299.93 141.894 299.827 141.423 299.827 140.816V136.448H298.763V135.86L299.841 135.37L300.331 133.774H301.059V135.496H303.229V136.448H301.059V140.788C301.059 141.245 301.166 141.586 301.381 141.81C301.605 142.025 301.89 142.132 302.235 142.132Z" fill="black"/>
<path d="M40.028 78.326C40.028 79.2127 39.706 79.9033 39.062 80.398C38.418 80.8927 37.55 81.14 36.458 81.14C35.898 81.14 35.38 81.098 34.904 81.014C34.428 80.93 34.0313 80.8133 33.714 80.664V79.46C34.05 79.6093 34.4653 79.7447 34.96 79.866C35.464 79.9873 35.982 80.048 36.514 80.048C37.2607 80.048 37.8207 79.9033 38.194 79.614C38.5767 79.3247 38.768 78.9327 38.768 78.438C38.768 78.1113 38.698 77.836 38.558 77.612C38.418 77.388 38.1753 77.1827 37.83 76.996C37.494 76.8 37.0227 76.5947 36.416 76.38C35.5667 76.072 34.9227 75.694 34.484 75.246C34.0547 74.798 33.84 74.1867 33.84 73.412C33.84 72.88 33.9753 72.4273 34.246 72.054C34.5167 71.6713 34.89 71.3773 35.366 71.172C35.8513 70.9667 36.4067 70.864 37.032 70.864C37.5827 70.864 38.0867 70.9153 38.544 71.018C39.0013 71.1207 39.4167 71.256 39.79 71.424L39.398 72.502C39.0527 72.3527 38.6747 72.2267 38.264 72.124C37.8627 72.0213 37.4427 71.97 37.004 71.97C36.3787 71.97 35.9073 72.1053 35.59 72.376C35.2727 72.6373 35.114 72.9873 35.114 73.426C35.114 73.762 35.184 74.042 35.324 74.266C35.464 74.49 35.6927 74.6907 36.01 74.868C36.3273 75.0453 36.7567 75.2367 37.298 75.442C37.886 75.6567 38.3807 75.89 38.782 76.142C39.1927 76.3847 39.5007 76.6787 39.706 77.024C39.9207 77.3693 40.028 77.8033 40.028 78.326ZM43.1056 73.482C43.1056 73.8553 43.0823 74.2053 43.0356 74.532H43.1196C43.3623 74.1493 43.6889 73.86 44.0996 73.664C44.5196 73.468 44.9723 73.37 45.4576 73.37C46.3723 73.37 47.0583 73.5893 47.5156 74.028C47.9729 74.4573 48.2016 75.1527 48.2016 76.114V81H46.9836V76.198C46.9836 74.994 46.4236 74.392 45.3036 74.392C44.4636 74.392 43.8849 74.63 43.5676 75.106C43.2596 75.5727 43.1056 76.2447 43.1056 77.122V81H41.8736V70.36H43.1056V73.482ZM53.3699 73.37C54.2846 73.37 54.9612 73.5707 55.3999 73.972C55.8386 74.3733 56.0579 75.0127 56.0579 75.89V81H55.1619L54.9239 79.936H54.8679C54.5412 80.3467 54.1959 80.65 53.8319 80.846C53.4772 81.042 52.9826 81.14 52.3479 81.14C51.6666 81.14 51.1019 80.9627 50.6539 80.608C50.2059 80.244 49.9819 79.6793 49.9819 78.914C49.9819 78.1673 50.2759 77.5933 50.8639 77.192C51.4519 76.7813 52.3572 76.5573 53.5799 76.52L54.8539 76.478V76.03C54.8539 75.4047 54.7186 74.9707 54.4479 74.728C54.1772 74.4853 53.7946 74.364 53.2999 74.364C52.9079 74.364 52.5346 74.4247 52.1799 74.546C51.8252 74.658 51.4939 74.7887 51.1859 74.938L50.8079 74.014C51.1346 73.8367 51.5219 73.6873 51.9699 73.566C52.4179 73.4353 52.8846 73.37 53.3699 73.37ZM53.7339 77.374C52.8006 77.4113 52.1519 77.5607 51.7879 77.822C51.4332 78.0833 51.2559 78.452 51.2559 78.928C51.2559 79.348 51.3819 79.656 51.6339 79.852C51.8952 80.048 52.2266 80.146 52.6279 80.146C53.2626 80.146 53.7899 79.9733 54.2099 79.628C54.6299 79.2733 54.8399 78.732 54.8399 78.004V77.332L53.7339 77.374ZM61.8755 73.356C62.0155 73.356 62.1649 73.3653 62.3235 73.384C62.4915 73.3933 62.6362 73.412 62.7575 73.44L62.6035 74.574C62.4822 74.546 62.3469 74.5227 62.1975 74.504C62.0575 74.4853 61.9222 74.476 61.7915 74.476C61.4089 74.476 61.0495 74.5833 60.7135 74.798C60.3775 75.0033 60.1069 75.2973 59.9015 75.68C59.7055 76.0533 59.6075 76.492 59.6075 76.996V81H58.3755V73.496H59.3835L59.5235 74.868H59.5795C59.8222 74.4573 60.1349 74.1027 60.5175 73.804C60.9002 73.5053 61.3529 73.356 61.8755 73.356ZM66.7833 73.356C67.4273 73.356 67.978 73.496 68.4353 73.776C68.902 74.056 69.2566 74.4527 69.4993 74.966C69.7513 75.47 69.8773 76.0627 69.8773 76.744V77.486H64.7393C64.758 78.3353 64.9726 78.984 65.3833 79.432C65.8033 79.8707 66.3866 80.09 67.1333 80.09C67.6093 80.09 68.0293 80.048 68.3933 79.964C68.7666 79.8707 69.1493 79.74 69.5413 79.572V80.65C69.1586 80.818 68.7806 80.9393 68.4073 81.014C68.034 81.098 67.5906 81.14 67.0773 81.14C66.368 81.14 65.738 80.9953 65.1873 80.706C64.646 80.4167 64.2213 79.9873 63.9133 79.418C63.6146 78.8393 63.4653 78.1347 63.4653 77.304C63.4653 76.4827 63.6006 75.778 63.8713 75.19C64.1513 74.602 64.5386 74.1493 65.0333 73.832C65.5373 73.5147 66.1206 73.356 66.7833 73.356ZM66.7693 74.364C66.1813 74.364 65.7146 74.5553 65.3693 74.938C65.0333 75.3113 64.8326 75.834 64.7673 76.506H68.5893C68.58 75.8713 68.4306 75.358 68.1413 74.966C67.852 74.5647 67.3946 74.364 66.7693 74.364ZM74.6297 73.37C75.5443 73.37 76.221 73.5707 76.6597 73.972C77.0983 74.3733 77.3177 75.0127 77.3177 75.89V81H76.4217L76.1837 79.936H76.1277C75.801 80.3467 75.4557 80.65 75.0917 80.846C74.737 81.042 74.2423 81.14 73.6077 81.14C72.9263 81.14 72.3617 80.9627 71.9137 80.608C71.4657 80.244 71.2417 79.6793 71.2417 78.914C71.2417 78.1673 71.5357 77.5933 72.1237 77.192C72.7117 76.7813 73.617 76.5573 74.8397 76.52L76.1137 76.478V76.03C76.1137 75.4047 75.9783 74.9707 75.7077 74.728C75.437 74.4853 75.0543 74.364 74.5597 74.364C74.1677 74.364 73.7943 74.4247 73.4397 74.546C73.085 74.658 72.7537 74.7887 72.4457 74.938L72.0677 74.014C72.3943 73.8367 72.7817 73.6873 73.2297 73.566C73.6777 73.4353 74.1443 73.37 74.6297 73.37ZM74.9937 77.374C74.0603 77.4113 73.4117 77.5607 73.0477 77.822C72.693 78.0833 72.5157 78.452 72.5157 78.928C72.5157 79.348 72.6417 79.656 72.8937 79.852C73.155 80.048 73.4863 80.146 73.8877 80.146C74.5223 80.146 75.0497 79.9733 75.4697 79.628C75.8897 79.2733 76.0997 78.732 76.0997 78.004V77.332L74.9937 77.374ZM80.8673 72.95C80.8673 73.2673 80.858 73.566 80.8393 73.846C80.83 74.1167 80.816 74.3313 80.7973 74.49H80.8673C81.082 74.1727 81.376 73.9067 81.7493 73.692C82.1226 73.4773 82.6033 73.37 83.1913 73.37C84.1246 73.37 84.8713 73.6967 85.4313 74.35C86.0006 74.994 86.2853 75.96 86.2853 77.248C86.2853 78.536 86.0006 79.5067 85.4313 80.16C84.862 80.8133 84.1153 81.14 83.1913 81.14C82.6033 81.14 82.1226 81.0327 81.7493 80.818C81.376 80.6033 81.082 80.3467 80.8673 80.048H80.7693L80.5173 81H79.6353V70.36L80.8673 70.36V72.95ZM82.9813 74.392C82.188 74.392 81.6373 74.6207 81.3293 75.078C81.0213 75.5353 80.8673 76.2447 80.8673 77.206V77.262C80.8673 78.186 81.0166 78.8953 81.3153 79.39C81.6233 79.8753 82.188 80.118 83.0093 80.118C83.6813 80.118 84.1806 79.8707 84.5073 79.376C84.8433 78.8813 85.0113 78.1673 85.0113 77.234C85.0113 75.3393 84.3346 74.392 82.9813 74.392ZM89.4806 81H88.2486V70.36H89.4806V81ZM94.756 73.356C95.4 73.356 95.9506 73.496 96.408 73.776C96.8746 74.056 97.2293 74.4527 97.472 74.966C97.724 75.47 97.85 76.0627 97.85 76.744V77.486H92.712C92.7306 78.3353 92.9453 78.984 93.356 79.432C93.776 79.8707 94.3593 80.09 95.106 80.09C95.582 80.09 96.002 80.048 96.366 79.964C96.7393 79.8707 97.122 79.74 97.514 79.572V80.65C97.1313 80.818 96.7533 80.9393 96.38 81.014C96.0066 81.098 95.5633 81.14 95.05 81.14C94.3406 81.14 93.7106 80.9953 93.16 80.706C92.6186 80.4167 92.194 79.9873 91.886 79.418C91.5873 78.8393 91.438 78.1347 91.438 77.304C91.438 76.4827 91.5733 75.778 91.844 75.19C92.124 74.602 92.5113 74.1493 93.006 73.832C93.51 73.5147 94.0933 73.356 94.756 73.356ZM94.742 74.364C94.154 74.364 93.6873 74.5553 93.342 74.938C93.006 75.3113 92.8053 75.834 92.74 76.506H96.562C96.5526 75.8713 96.4033 75.358 96.114 74.966C95.8246 74.5647 95.3673 74.364 94.742 74.364Z" fill="black"/>
<path d="M137.028 367.326C137.028 368.213 136.706 368.903 136.062 369.398C135.418 369.893 134.55 370.14 133.458 370.14C132.898 370.14 132.38 370.098 131.904 370.014C131.428 369.93 131.031 369.813 130.714 369.664V368.46C131.05 368.609 131.465 368.745 131.96 368.866C132.464 368.987 132.982 369.048 133.514 369.048C134.261 369.048 134.821 368.903 135.194 368.614C135.577 368.325 135.768 367.933 135.768 367.438C135.768 367.111 135.698 366.836 135.558 366.612C135.418 366.388 135.175 366.183 134.83 365.996C134.494 365.8 134.023 365.595 133.416 365.38C132.567 365.072 131.923 364.694 131.484 364.246C131.055 363.798 130.84 363.187 130.84 362.412C130.84 361.88 130.975 361.427 131.246 361.054C131.517 360.671 131.89 360.377 132.366 360.172C132.851 359.967 133.407 359.864 134.032 359.864C134.583 359.864 135.087 359.915 135.544 360.018C136.001 360.121 136.417 360.256 136.79 360.424L136.398 361.502C136.053 361.353 135.675 361.227 135.264 361.124C134.863 361.021 134.443 360.97 134.004 360.97C133.379 360.97 132.907 361.105 132.59 361.376C132.273 361.637 132.114 361.987 132.114 362.426C132.114 362.762 132.184 363.042 132.324 363.266C132.464 363.49 132.693 363.691 133.01 363.868C133.327 364.045 133.757 364.237 134.298 364.442C134.886 364.657 135.381 364.89 135.782 365.142C136.193 365.385 136.501 365.679 136.706 366.024C136.921 366.369 137.028 366.803 137.028 367.326ZM140.106 362.482C140.106 362.855 140.082 363.205 140.036 363.532H140.12C140.362 363.149 140.689 362.86 141.1 362.664C141.52 362.468 141.972 362.37 142.458 362.37C143.372 362.37 144.058 362.589 144.516 363.028C144.973 363.457 145.202 364.153 145.202 365.114V370H143.984V365.198C143.984 363.994 143.424 363.392 142.304 363.392C141.464 363.392 140.885 363.63 140.568 364.106C140.26 364.573 140.106 365.245 140.106 366.122V370H138.874V359.36H140.106V362.482ZM150.37 362.37C151.285 362.37 151.961 362.571 152.4 362.972C152.839 363.373 153.058 364.013 153.058 364.89V370H152.162L151.924 368.936H151.868C151.541 369.347 151.196 369.65 150.832 369.846C150.477 370.042 149.983 370.14 149.348 370.14C148.667 370.14 148.102 369.963 147.654 369.608C147.206 369.244 146.982 368.679 146.982 367.914C146.982 367.167 147.276 366.593 147.864 366.192C148.452 365.781 149.357 365.557 150.58 365.52L151.854 365.478V365.03C151.854 364.405 151.719 363.971 151.448 363.728C151.177 363.485 150.795 363.364 150.3 363.364C149.908 363.364 149.535 363.425 149.18 363.546C148.825 363.658 148.494 363.789 148.186 363.938L147.808 363.014C148.135 362.837 148.522 362.687 148.97 362.566C149.418 362.435 149.885 362.37 150.37 362.37ZM150.734 366.374C149.801 366.411 149.152 366.561 148.788 366.822C148.433 367.083 148.256 367.452 148.256 367.928C148.256 368.348 148.382 368.656 148.634 368.852C148.895 369.048 149.227 369.146 149.628 369.146C150.263 369.146 150.79 368.973 151.21 368.628C151.63 368.273 151.84 367.732 151.84 367.004V366.332L150.734 366.374ZM158.946 362.356C159.87 362.356 160.612 362.678 161.172 363.322C161.741 363.966 162.026 364.937 162.026 366.234C162.026 367.513 161.741 368.483 161.172 369.146C160.612 369.809 159.865 370.14 158.932 370.14C158.353 370.14 157.872 370.033 157.49 369.818C157.116 369.594 156.822 369.337 156.608 369.048H156.524C156.542 369.207 156.561 369.407 156.58 369.65C156.598 369.893 156.608 370.103 156.608 370.28V373.36H155.376V362.496H156.384L156.552 363.518H156.608C156.832 363.191 157.126 362.916 157.49 362.692C157.854 362.468 158.339 362.356 158.946 362.356ZM158.722 363.392C157.956 363.392 157.415 363.607 157.098 364.036C156.79 364.465 156.626 365.119 156.608 365.996V366.234C156.608 367.158 156.757 367.872 157.056 368.376C157.364 368.871 157.928 369.118 158.75 369.118C159.207 369.118 159.58 368.992 159.87 368.74C160.168 368.488 160.388 368.147 160.528 367.718C160.677 367.279 160.752 366.78 160.752 366.22C160.752 365.361 160.584 364.675 160.248 364.162C159.921 363.649 159.412 363.392 158.722 363.392ZM166.887 362.356C167.531 362.356 168.081 362.496 168.539 362.776C169.005 363.056 169.36 363.453 169.603 363.966C169.855 364.47 169.981 365.063 169.981 365.744V366.486H164.843C164.861 367.335 165.076 367.984 165.487 368.432C165.907 368.871 166.49 369.09 167.237 369.09C167.713 369.09 168.133 369.048 168.497 368.964C168.87 368.871 169.253 368.74 169.645 368.572V369.65C169.262 369.818 168.884 369.939 168.511 370.014C168.137 370.098 167.694 370.14 167.181 370.14C166.471 370.14 165.841 369.995 165.291 369.706C164.749 369.417 164.325 368.987 164.017 368.418C163.718 367.839 163.569 367.135 163.569 366.304C163.569 365.483 163.704 364.778 163.975 364.19C164.255 363.602 164.642 363.149 165.137 362.832C165.641 362.515 166.224 362.356 166.887 362.356ZM166.873 363.364C166.285 363.364 165.818 363.555 165.473 363.938C165.137 364.311 164.936 364.834 164.871 365.506H168.693C168.683 364.871 168.534 364.358 168.245 363.966C167.955 363.565 167.498 363.364 166.873 363.364ZM178.37 362.37C179.285 362.37 179.961 362.571 180.4 362.972C180.839 363.373 181.058 364.013 181.058 364.89V370H180.162L179.924 368.936H179.868C179.541 369.347 179.196 369.65 178.832 369.846C178.477 370.042 177.983 370.14 177.348 370.14C176.667 370.14 176.102 369.963 175.654 369.608C175.206 369.244 174.982 368.679 174.982 367.914C174.982 367.167 175.276 366.593 175.864 366.192C176.452 365.781 177.357 365.557 178.58 365.52L179.854 365.478V365.03C179.854 364.405 179.719 363.971 179.448 363.728C179.177 363.485 178.795 363.364 178.3 363.364C177.908 363.364 177.535 363.425 177.18 363.546C176.825 363.658 176.494 363.789 176.186 363.938L175.808 363.014C176.135 362.837 176.522 362.687 176.97 362.566C177.418 362.435 177.885 362.37 178.37 362.37ZM178.734 366.374C177.801 366.411 177.152 366.561 176.788 366.822C176.433 367.083 176.256 367.452 176.256 367.928C176.256 368.348 176.382 368.656 176.634 368.852C176.895 369.048 177.227 369.146 177.628 369.146C178.263 369.146 178.79 368.973 179.21 368.628C179.63 368.273 179.84 367.732 179.84 367.004V366.332L178.734 366.374ZM188.44 370H187.18V360.004H192.766V361.11H188.44V364.652H192.5V365.758H188.44V370ZM200.544 362.496V370H199.536L199.354 369.006H199.298C199.055 369.398 198.719 369.687 198.29 369.874C197.861 370.051 197.403 370.14 196.918 370.14C196.013 370.14 195.331 369.925 194.874 369.496C194.417 369.057 194.188 368.362 194.188 367.41V362.496H195.434V367.326C195.434 368.521 195.989 369.118 197.1 369.118C197.931 369.118 198.505 368.885 198.822 368.418C199.149 367.951 199.312 367.279 199.312 366.402V362.496H200.544ZM205.432 369.132C205.619 369.132 205.81 369.118 206.006 369.09C206.202 369.053 206.361 369.015 206.482 368.978V369.916C206.352 369.981 206.165 370.033 205.922 370.07C205.68 370.117 205.446 370.14 205.222 370.14C204.83 370.14 204.466 370.075 204.13 369.944C203.804 369.804 203.538 369.566 203.332 369.23C203.127 368.894 203.024 368.423 203.024 367.816V363.448H201.96V362.86L203.038 362.37L203.528 360.774H204.256V362.496H206.426V363.448H204.256V367.788C204.256 368.245 204.364 368.586 204.578 368.81C204.802 369.025 205.087 369.132 205.432 369.132ZM214.257 362.496V370H213.249L213.067 369.006H213.011C212.768 369.398 212.432 369.687 212.003 369.874C211.574 370.051 211.116 370.14 210.631 370.14C209.726 370.14 209.044 369.925 208.587 369.496C208.13 369.057 207.901 368.362 207.901 367.41V362.496H209.147V367.326C209.147 368.521 209.702 369.118 210.813 369.118C211.644 369.118 212.218 368.885 212.535 368.418C212.862 367.951 213.025 367.279 213.025 366.402V362.496H214.257ZM220.139 362.356C220.279 362.356 220.429 362.365 220.587 362.384C220.755 362.393 220.9 362.412 221.021 362.44L220.867 363.574C220.746 363.546 220.611 363.523 220.461 363.504C220.321 363.485 220.186 363.476 220.055 363.476C219.673 363.476 219.313 363.583 218.977 363.798C218.641 364.003 218.371 364.297 218.165 364.68C217.969 365.053 217.871 365.492 217.871 365.996V370H216.639V362.496H217.647L217.787 363.868H217.843C218.086 363.457 218.399 363.103 218.781 362.804C219.164 362.505 219.617 362.356 220.139 362.356ZM225.047 362.356C225.691 362.356 226.242 362.496 226.699 362.776C227.166 363.056 227.52 363.453 227.763 363.966C228.015 364.47 228.141 365.063 228.141 365.744V366.486H223.003C223.022 367.335 223.236 367.984 223.647 368.432C224.067 368.871 224.65 369.09 225.397 369.09C225.873 369.09 226.293 369.048 226.657 368.964C227.03 368.871 227.413 368.74 227.805 368.572V369.65C227.422 369.818 227.044 369.939 226.671 370.014C226.298 370.098 225.854 370.14 225.341 370.14C224.632 370.14 224.002 369.995 223.451 369.706C222.91 369.417 222.485 368.987 222.177 368.418C221.878 367.839 221.729 367.135 221.729 366.304C221.729 365.483 221.864 364.778 222.135 364.19C222.415 363.602 222.802 363.149 223.297 362.832C223.801 362.515 224.384 362.356 225.047 362.356ZM225.033 363.364C224.445 363.364 223.978 363.555 223.633 363.938C223.297 364.311 223.096 364.834 223.031 365.506H226.853C226.844 364.871 226.694 364.358 226.405 363.966C226.116 363.565 225.658 363.364 225.033 363.364Z" fill="black"/>
<path d="M186.522 472H185.262V463.11H182.14V462.004H189.63V463.11H186.522V472ZM193.772 464.356C193.912 464.356 194.061 464.365 194.22 464.384C194.388 464.393 194.533 464.412 194.654 464.44L194.5 465.574C194.379 465.546 194.243 465.523 194.094 465.504C193.954 465.485 193.819 465.476 193.688 465.476C193.305 465.476 192.946 465.583 192.61 465.798C192.274 466.003 192.003 466.297 191.798 466.68C191.602 467.053 191.504 467.492 191.504 467.996V472H190.272V464.496H191.28L191.42 465.868H191.476C191.719 465.457 192.031 465.103 192.414 464.804C192.797 464.505 193.249 464.356 193.772 464.356ZM202.327 464.496V472H201.319L201.137 471.006H201.081C200.839 471.398 200.503 471.687 200.073 471.874C199.644 472.051 199.187 472.14 198.701 472.14C197.796 472.14 197.115 471.925 196.657 471.496C196.2 471.057 195.971 470.362 195.971 469.41V464.496H197.217V469.326C197.217 470.521 197.773 471.118 198.883 471.118C199.714 471.118 200.288 470.885 200.605 470.418C200.932 469.951 201.095 469.279 201.095 468.402V464.496H202.327ZM209.596 469.928C209.596 470.656 209.325 471.207 208.784 471.58C208.242 471.953 207.514 472.14 206.6 472.14C206.077 472.14 205.624 472.098 205.242 472.014C204.868 471.93 204.537 471.813 204.248 471.664V470.544C204.546 470.693 204.906 470.833 205.326 470.964C205.755 471.085 206.189 471.146 206.628 471.146C207.253 471.146 207.706 471.048 207.986 470.852C208.266 470.647 208.406 470.376 208.406 470.04C208.406 469.853 208.354 469.685 208.252 469.536C208.149 469.387 207.962 469.237 207.692 469.088C207.43 468.939 207.052 468.771 206.558 468.584C206.072 468.397 205.657 468.211 205.312 468.024C204.966 467.837 204.7 467.613 204.514 467.352C204.327 467.091 204.234 466.755 204.234 466.344C204.234 465.709 204.49 465.219 205.004 464.874C205.526 464.529 206.208 464.356 207.048 464.356C207.505 464.356 207.93 464.403 208.322 464.496C208.723 464.58 209.096 464.701 209.442 464.86L209.022 465.84C208.704 465.709 208.373 465.597 208.028 465.504C207.682 465.411 207.328 465.364 206.964 465.364C206.46 465.364 206.072 465.448 205.802 465.616C205.54 465.775 205.41 465.994 205.41 466.274C205.41 466.479 205.47 466.657 205.592 466.806C205.713 466.946 205.914 467.086 206.194 467.226C206.483 467.357 206.866 467.515 207.342 467.702C207.818 467.879 208.224 468.061 208.56 468.248C208.896 468.435 209.152 468.663 209.33 468.934C209.507 469.195 209.596 469.527 209.596 469.928ZM213.915 471.132C214.101 471.132 214.293 471.118 214.489 471.09C214.685 471.053 214.843 471.015 214.965 470.978V471.916C214.834 471.981 214.647 472.033 214.405 472.07C214.162 472.117 213.929 472.14 213.705 472.14C213.313 472.14 212.949 472.075 212.613 471.944C212.286 471.804 212.02 471.566 211.815 471.23C211.609 470.894 211.507 470.423 211.507 469.816V465.448H210.443V464.86L211.521 464.37L212.011 462.774H212.739V464.496H214.909V465.448H212.739V469.788C212.739 470.245 212.846 470.586 213.061 470.81C213.285 471.025 213.569 471.132 213.915 471.132ZM219.365 464.356C220.009 464.356 220.56 464.496 221.017 464.776C221.484 465.056 221.839 465.453 222.081 465.966C222.333 466.47 222.459 467.063 222.459 467.744V468.486H217.321C217.34 469.335 217.555 469.984 217.965 470.432C218.385 470.871 218.969 471.09 219.715 471.09C220.191 471.09 220.611 471.048 220.975 470.964C221.349 470.871 221.731 470.74 222.123 470.572V471.65C221.741 471.818 221.363 471.939 220.989 472.014C220.616 472.098 220.173 472.14 219.659 472.14C218.95 472.14 218.32 471.995 217.769 471.706C217.228 471.417 216.803 470.987 216.495 470.418C216.197 469.839 216.047 469.135 216.047 468.304C216.047 467.483 216.183 466.778 216.453 466.19C216.733 465.602 217.121 465.149 217.615 464.832C218.119 464.515 218.703 464.356 219.365 464.356ZM219.351 465.364C218.763 465.364 218.297 465.555 217.951 465.938C217.615 466.311 217.415 466.834 217.349 467.506H221.171C221.162 466.871 221.013 466.358 220.723 465.966C220.434 465.565 219.977 465.364 219.351 465.364ZM227.03 472.14C226.096 472.14 225.35 471.818 224.79 471.174C224.23 470.521 223.95 469.55 223.95 468.262C223.95 466.974 224.23 466.003 224.79 465.35C225.359 464.687 226.11 464.356 227.044 464.356C227.622 464.356 228.094 464.463 228.458 464.678C228.831 464.893 229.134 465.154 229.368 465.462H229.452C229.442 465.341 229.424 465.163 229.396 464.93C229.377 464.687 229.368 464.496 229.368 464.356V461.36H230.6V472H229.606L229.424 470.992H229.368C229.144 471.309 228.845 471.58 228.472 471.804C228.098 472.028 227.618 472.14 227.03 472.14ZM227.226 471.118C228.019 471.118 228.574 470.903 228.892 470.474C229.218 470.035 229.382 469.377 229.382 468.5V468.276C229.382 467.343 229.228 466.629 228.92 466.134C228.612 465.63 228.042 465.378 227.212 465.378C226.549 465.378 226.05 465.644 225.714 466.176C225.387 466.699 225.224 467.403 225.224 468.29C225.224 469.186 225.387 469.881 225.714 470.376C226.05 470.871 226.554 471.118 227.226 471.118ZM245.51 466.988C245.51 468.024 245.332 468.929 244.978 469.704C244.632 470.469 244.119 471.067 243.438 471.496C242.756 471.925 241.912 472.14 240.904 472.14C239.868 472.14 239.004 471.925 238.314 471.496C237.632 471.067 237.124 470.465 236.788 469.69C236.452 468.915 236.284 468.01 236.284 466.974C236.284 465.947 236.452 465.051 236.788 464.286C237.124 463.521 237.632 462.923 238.314 462.494C239.004 462.065 239.872 461.85 240.918 461.85C241.916 461.85 242.756 462.065 243.438 462.494C244.119 462.914 244.632 463.511 244.978 464.286C245.332 465.051 245.51 465.952 245.51 466.988ZM237.614 466.988C237.614 468.248 237.88 469.242 238.412 469.97C238.944 470.689 239.774 471.048 240.904 471.048C242.042 471.048 242.873 470.689 243.396 469.97C243.918 469.242 244.18 468.248 244.18 466.988C244.18 465.728 243.918 464.743 243.396 464.034C242.873 463.315 242.047 462.956 240.918 462.956C239.788 462.956 238.953 463.315 238.412 464.034C237.88 464.743 237.614 465.728 237.614 466.988ZM251.169 464.356C252.065 464.356 252.742 464.575 253.199 465.014C253.657 465.443 253.885 466.143 253.885 467.114V472H252.667V467.198C252.667 465.994 252.107 465.392 250.987 465.392C250.157 465.392 249.583 465.625 249.265 466.092C248.948 466.559 248.789 467.231 248.789 468.108V472H247.557V464.496H248.551L248.733 465.518H248.803C249.046 465.126 249.382 464.837 249.811 464.65C250.241 464.454 250.693 464.356 251.169 464.356ZM259.109 464.356C259.753 464.356 260.304 464.496 260.761 464.776C261.228 465.056 261.583 465.453 261.825 465.966C262.077 466.47 262.203 467.063 262.203 467.744V468.486H257.065C257.084 469.335 257.299 469.984 257.709 470.432C258.129 470.871 258.713 471.09 259.459 471.09C259.935 471.09 260.355 471.048 260.719 470.964C261.093 470.871 261.475 470.74 261.867 470.572V471.65C261.485 471.818 261.107 471.939 260.733 472.014C260.36 472.098 259.917 472.14 259.403 472.14C258.694 472.14 258.064 471.995 257.513 471.706C256.972 471.417 256.547 470.987 256.239 470.418C255.941 469.839 255.791 469.135 255.791 468.304C255.791 467.483 255.927 466.778 256.197 466.19C256.477 465.602 256.865 465.149 257.359 464.832C257.863 464.515 258.447 464.356 259.109 464.356ZM259.095 465.364C258.507 465.364 258.041 465.555 257.695 465.938C257.359 466.311 257.159 466.834 257.093 467.506H260.915C260.906 466.871 260.757 466.358 260.467 465.966C260.178 465.565 259.721 465.364 259.095 465.364Z" fill="black"/>
<path d="M60.002 588H58.742V583.338H53.618V588H52.358V578.004H53.618V582.232H58.742V578.004H60.002V588ZM65.465 580.356C66.109 580.356 66.6596 580.496 67.117 580.776C67.5836 581.056 67.9383 581.453 68.181 581.966C68.433 582.47 68.559 583.063 68.559 583.744V584.486H63.421C63.4396 585.335 63.6543 585.984 64.065 586.432C64.485 586.871 65.0683 587.09 65.815 587.09C66.291 587.09 66.711 587.048 67.075 586.964C67.4483 586.871 67.831 586.74 68.223 586.572V587.65C67.8403 587.818 67.4623 587.939 67.089 588.014C66.7156 588.098 66.2723 588.14 65.759 588.14C65.0496 588.14 64.4196 587.995 63.869 587.706C63.3276 587.417 62.903 586.987 62.595 586.418C62.2963 585.839 62.147 585.135 62.147 584.304C62.147 583.483 62.2823 582.778 62.553 582.19C62.833 581.602 63.2203 581.149 63.715 580.832C64.219 580.515 64.8023 580.356 65.465 580.356ZM65.451 581.364C64.863 581.364 64.3963 581.555 64.051 581.938C63.715 582.311 63.5143 582.834 63.449 583.506H67.271C67.2616 582.871 67.1123 582.358 66.823 581.966C66.5336 581.565 66.0763 581.364 65.451 581.364ZM71.7013 588H70.4693V577.36H71.7013V588ZM77.6487 580.356C78.5727 580.356 79.3147 580.678 79.8747 581.322C80.444 581.966 80.7287 582.937 80.7287 584.234C80.7287 585.513 80.444 586.483 79.8747 587.146C79.3147 587.809 78.568 588.14 77.6347 588.14C77.056 588.14 76.5753 588.033 76.1927 587.818C75.8193 587.594 75.5253 587.337 75.3107 587.048H75.2267C75.2453 587.207 75.264 587.407 75.2827 587.65C75.3013 587.893 75.3107 588.103 75.3107 588.28V591.36H74.0787V580.496H75.0867L75.2547 581.518H75.3107C75.5347 581.191 75.8287 580.916 76.1927 580.692C76.5567 580.468 77.042 580.356 77.6487 580.356ZM77.4247 581.392C76.6593 581.392 76.118 581.607 75.8007 582.036C75.4927 582.465 75.3293 583.119 75.3107 583.996V584.234C75.3107 585.158 75.46 585.872 75.7587 586.376C76.0667 586.871 76.6313 587.118 77.4527 587.118C77.91 587.118 78.2833 586.992 78.5727 586.74C78.8713 586.488 79.0907 586.147 79.2307 585.718C79.38 585.279 79.4547 584.78 79.4547 584.22C79.4547 583.361 79.2867 582.675 78.9507 582.162C78.624 581.649 78.1153 581.392 77.4247 581.392ZM95.2187 582.988C95.2187 584.024 95.0413 584.929 94.6867 585.704C94.3413 586.469 93.828 587.067 93.1467 587.496C92.4653 587.925 91.6207 588.14 90.6127 588.14C89.5767 588.14 88.7133 587.925 88.0227 587.496C87.3413 587.067 86.8327 586.465 86.4967 585.69C86.1607 584.915 85.9927 584.01 85.9927 582.974C85.9927 581.947 86.1607 581.051 86.4967 580.286C86.8327 579.521 87.3413 578.923 88.0227 578.494C88.7133 578.065 89.5813 577.85 90.6267 577.85C91.6253 577.85 92.4653 578.065 93.1467 578.494C93.828 578.914 94.3413 579.511 94.6867 580.286C95.0413 581.051 95.2187 581.952 95.2187 582.988ZM87.3227 582.988C87.3227 584.248 87.5887 585.242 88.1207 585.97C88.6527 586.689 89.4833 587.048 90.6127 587.048C91.7513 587.048 92.582 586.689 93.1047 585.97C93.6273 585.242 93.8887 584.248 93.8887 582.988C93.8887 581.728 93.6273 580.743 93.1047 580.034C92.582 579.315 91.756 578.956 90.6267 578.956C89.4973 578.956 88.662 579.315 88.1207 580.034C87.5887 580.743 87.3227 581.728 87.3227 582.988ZM99.7722 587.132C99.9588 587.132 100.15 587.118 100.346 587.09C100.542 587.053 100.701 587.015 100.822 586.978V587.916C100.692 587.981 100.505 588.033 100.262 588.07C100.02 588.117 99.7862 588.14 99.5622 588.14C99.1702 588.14 98.8062 588.075 98.4702 587.944C98.1435 587.804 97.8775 587.566 97.6722 587.23C97.4668 586.894 97.3642 586.423 97.3642 585.816V581.448H96.3002V580.86L97.3782 580.37L97.8682 578.774H98.5962V580.496H100.766V581.448H98.5962V585.788C98.5962 586.245 98.7035 586.586 98.9182 586.81C99.1422 587.025 99.4268 587.132 99.7722 587.132ZM103.557 580.482C103.557 580.855 103.533 581.205 103.487 581.532H103.571C103.813 581.149 104.14 580.86 104.551 580.664C104.971 580.468 105.423 580.37 105.909 580.37C106.823 580.37 107.509 580.589 107.967 581.028C108.424 581.457 108.653 582.153 108.653 583.114V588H107.435V583.198C107.435 581.994 106.875 581.392 105.755 581.392C104.915 581.392 104.336 581.63 104.019 582.106C103.711 582.573 103.557 583.245 103.557 584.122V588H102.325V577.36H103.557V580.482ZM113.877 580.356C114.521 580.356 115.072 580.496 115.529 580.776C115.996 581.056 116.35 581.453 116.593 581.966C116.845 582.47 116.971 583.063 116.971 583.744V584.486H111.833C111.852 585.335 112.066 585.984 112.477 586.432C112.897 586.871 113.48 587.09 114.227 587.09C114.703 587.09 115.123 587.048 115.487 586.964C115.86 586.871 116.243 586.74 116.635 586.572V587.65C116.252 587.818 115.874 587.939 115.501 588.014C115.128 588.098 114.684 588.14 114.171 588.14C113.462 588.14 112.832 587.995 112.281 587.706C111.74 587.417 111.315 586.987 111.007 586.418C110.708 585.839 110.559 585.135 110.559 584.304C110.559 583.483 110.694 582.778 110.965 582.19C111.245 581.602 111.632 581.149 112.127 580.832C112.631 580.515 113.214 580.356 113.877 580.356ZM113.863 581.364C113.275 581.364 112.808 581.555 112.463 581.938C112.127 582.311 111.926 582.834 111.861 583.506H115.683C115.674 582.871 115.524 582.358 115.235 581.966C114.946 581.565 114.488 581.364 113.863 581.364ZM122.381 580.356C122.521 580.356 122.671 580.365 122.829 580.384C122.997 580.393 123.142 580.412 123.263 580.44L123.109 581.574C122.988 581.546 122.853 581.523 122.703 581.504C122.563 581.485 122.428 581.476 122.297 581.476C121.915 581.476 121.555 581.583 121.219 581.798C120.883 582.003 120.613 582.297 120.407 582.68C120.211 583.053 120.113 583.492 120.113 583.996V588H118.881V580.496H119.889L120.029 581.868H120.085C120.328 581.457 120.641 581.103 121.023 580.804C121.406 580.505 121.859 580.356 122.381 580.356ZM129.551 585.928C129.551 586.656 129.28 587.207 128.739 587.58C128.197 587.953 127.469 588.14 126.555 588.14C126.032 588.14 125.579 588.098 125.197 588.014C124.823 587.93 124.492 587.813 124.203 587.664V586.544C124.501 586.693 124.861 586.833 125.281 586.964C125.71 587.085 126.144 587.146 126.583 587.146C127.208 587.146 127.661 587.048 127.941 586.852C128.221 586.647 128.361 586.376 128.361 586.04C128.361 585.853 128.309 585.685 128.207 585.536C128.104 585.387 127.917 585.237 127.647 585.088C127.385 584.939 127.007 584.771 126.513 584.584C126.027 584.397 125.612 584.211 125.267 584.024C124.921 583.837 124.655 583.613 124.469 583.352C124.282 583.091 124.189 582.755 124.189 582.344C124.189 581.709 124.445 581.219 124.959 580.874C125.481 580.529 126.163 580.356 127.003 580.356C127.46 580.356 127.885 580.403 128.277 580.496C128.678 580.58 129.051 580.701 129.397 580.86L128.977 581.84C128.659 581.709 128.328 581.597 127.983 581.504C127.637 581.411 127.283 581.364 126.919 581.364C126.415 581.364 126.027 581.448 125.757 581.616C125.495 581.775 125.365 581.994 125.365 582.274C125.365 582.479 125.425 582.657 125.547 582.806C125.668 582.946 125.869 583.086 126.149 583.226C126.438 583.357 126.821 583.515 127.297 583.702C127.773 583.879 128.179 584.061 128.515 584.248C128.851 584.435 129.107 584.663 129.285 584.934C129.462 585.195 129.551 585.527 129.551 585.928Z" fill="black"/>
<g filter="url(#filter5_d_3245_2724)">
<circle cx="298.5" cy="305.5" r="25.5" fill="white"/>
</g>
<g filter="url(#filter6_d_3245_2724)">
<circle cx="61.5" cy="483.5" r="25.5" fill="white"/>
</g>
<g filter="url(#filter7_d_3245_2724)">
<circle cx="189.5" cy="222.5" r="25.5" fill="white"/>
</g>
<g filter="url(#filter8_d_3245_2724)">
<circle cx="188.5" cy="57.5" r="25.5" fill="white"/>
</g>
<path d="M296.159 294C294.011 293.989 291.92 296.074 292.875 298.664H289.273C288.67 298.664 288.092 298.906 287.666 299.336C287.239 299.765 287 300.348 287 300.956V303.248C287 303.552 287.12 303.844 287.333 304.058C287.546 304.273 287.835 304.394 288.136 304.394H298.364V300.956H300.636V304.394H310.864C311.165 304.394 311.454 304.273 311.667 304.058C311.88 303.844 312 303.552 312 303.248V300.956C312 300.348 311.761 299.765 311.334 299.336C310.908 298.906 310.33 298.664 309.727 298.664H306.125C307.455 294.917 302.455 292.27 300.148 295.501L299.5 296.372L298.852 295.478C298.136 294.458 297.148 294.012 296.159 294ZM296.091 296.372C297.102 296.372 297.614 297.61 296.898 298.332C296.182 299.054 294.955 298.538 294.955 297.518C294.955 297.214 295.074 296.923 295.287 296.708C295.5 296.493 295.79 296.372 296.091 296.372ZM302.909 296.372C303.92 296.372 304.432 297.61 303.716 298.332C303 299.054 301.773 298.538 301.773 297.518C301.773 297.214 301.892 296.923 302.106 296.708C302.319 296.493 302.608 296.372 302.909 296.372ZM288.136 305.54V314.708C288.136 315.316 288.376 315.899 288.802 316.329C289.228 316.759 289.806 317 290.409 317H308.591C309.194 317 309.772 316.759 310.198 316.329C310.624 315.899 310.864 315.316 310.864 314.708V305.54H300.636V314.708H298.364V305.54H288.136Z" fill="#698FF2"/>
<path d="M190 234L188.26 232.489C182.08 227.145 178 223.609 178 219.294C178 215.758 180.904 213 184.6 213C186.688 213 188.692 213.927 190 215.38C191.308 213.927 193.312 213 195.4 213C199.096 213 202 215.758 202 219.294C202 223.609 197.92 227.145 191.74 232.489L190 234Z" fill="#E44545"/>
<path d="M199.429 58.7273C200.2 58.7273 200.843 59.0182 201.357 59.6C201.743 60.1818 202 60.9091 202 61.6364L191.714 66L182.714 63.0909V50H185.157L194.543 53.9273C195.186 54.2182 195.571 54.8 195.571 55.5273C195.571 55.9636 195.443 56.4 195.186 56.6909C194.929 56.9818 194.414 57.2727 194.029 57.2727H190.429L188.114 56.2545L187.729 57.5636L190.429 58.7273H199.429ZM175 50H180.143V66H175V50Z" fill="#3CAF47"/>
<path d="M59.1444 494V491.372C57.9162 491.128 56.8563 490.659 55.9646 489.967C55.072 489.274 54.4171 488.296 54 487.033L56.5722 486.117C56.9198 487.094 57.4356 487.838 58.1197 488.347C58.8028 488.856 59.7005 489.111 60.8128 489.111C61.7629 489.111 62.5684 488.923 63.2293 488.546C63.8893 488.169 64.2193 487.583 64.2193 486.789C64.2193 486.076 63.9644 485.51 63.4545 485.092C62.9447 484.675 61.7629 484.202 59.9091 483.672C57.9162 483.122 56.549 482.465 55.8075 481.702C55.066 480.938 54.6952 480.006 54.6952 478.906C54.6952 477.581 55.1818 476.553 56.1551 475.819C57.1283 475.086 58.1248 474.669 59.1444 474.567V472H61.9251V474.567C63.0838 474.73 64.0399 475.101 64.7935 475.681C65.5461 476.262 66.0963 476.97 66.4439 477.806L63.8717 478.783C63.5936 478.131 63.1996 477.643 62.6898 477.317C62.18 476.991 61.4848 476.828 60.6043 476.828C59.5847 476.828 58.8084 477.027 58.2754 477.424C57.7424 477.821 57.4759 478.315 57.4759 478.906C57.4759 479.578 57.8235 480.107 58.5187 480.494C59.2139 480.881 60.4189 481.289 62.1337 481.717C63.7326 482.124 64.9436 482.771 65.7667 483.656C66.5889 484.543 67 485.567 67 486.728C67 488.174 66.5134 489.274 65.5401 490.028C64.5668 490.781 63.3619 491.25 61.9251 491.433V494H59.1444Z" fill="#EA7B1F"/>
<defs>
<filter id="filter0_d_3245_2724" x="188" y="93" width="160" height="90" filterUnits="userSpaceOnUse" color-interpolation-filters="sRGB">
<feFlood flood-opacity="0" result="BackgroundImageFix"/>
<feColorMatrix in="SourceAlpha" type="matrix" values="0 0 0 0 0 0 0 0 0 0 0 0 0 0 0 0 0 0 127 0" result="hardAlpha"/>
<feMorphology radius="6" operator="dilate" in="SourceAlpha" result="effect1_dropShadow_3245_2724"/>
<feOffset/>
<feGaussianBlur stdDeviation="10"/>
<feComposite in2="hardAlpha" operator="out"/>
<feColorMatrix type="matrix" values="0 0 0 0 0 0 0 0 0 0 0 0 0 0 0 0 0 0 0.05 0"/>
<feBlend mode="normal" in2="BackgroundImageFix" result="effect1_dropShadow_3245_2724"/>
<feBlend mode="normal" in="SourceGraphic" in2="effect1_dropShadow_3245_2724" result="shape"/>
</filter>
<filter id="filter1_d_3245_2724" x="-9" y="32" width="150" height="90" filterUnits="userSpaceOnUse" color-interpolation-filters="sRGB">
<feFlood flood-opacity="0" result="BackgroundImageFix"/>
<feColorMatrix in="SourceAlpha" type="matrix" values="0 0 0 0 0 0 0 0 0 0 0 0 0 0 0 0 0 0 127 0" result="hardAlpha"/>
<feMorphology radius="6" operator="dilate" in="SourceAlpha" result="effect1_dropShadow_3245_2724"/>
<feOffset/>
<feGaussianBlur stdDeviation="10"/>
<feComposite in2="hardAlpha" operator="out"/>
<feColorMatrix type="matrix" values="0 0 0 0 0 0 0 0 0 0 0 0 0 0 0 0 0 0 0.05 0"/>
<feBlend mode="normal" in2="BackgroundImageFix" result="effect1_dropShadow_3245_2724"/>
<feBlend mode="normal" in="SourceGraphic" in2="effect1_dropShadow_3245_2724" result="shape"/>
</filter>
<filter id="filter2_d_3245_2724" x="87" y="321" width="186" height="90" filterUnits="userSpaceOnUse" color-interpolation-filters="sRGB">
<feFlood flood-opacity="0" result="BackgroundImageFix"/>
<feColorMatrix in="SourceAlpha" type="matrix" values="0 0 0 0 0 0 0 0 0 0 0 0 0 0 0 0 0 0 127 0" result="hardAlpha"/>
<feMorphology radius="6" operator="dilate" in="SourceAlpha" result="effect1_dropShadow_3245_2724"/>
<feOffset/>
<feGaussianBlur stdDeviation="10"/>
<feComposite in2="hardAlpha" operator="out"/>
<feColorMatrix type="matrix" values="0 0 0 0 0 0 0 0 0 0 0 0 0 0 0 0 0 0 0.05 0"/>
<feBlend mode="normal" in2="BackgroundImageFix" result="effect1_dropShadow_3245_2724"/>
<feBlend mode="normal" in="SourceGraphic" in2="effect1_dropShadow_3245_2724" result="shape"/>
</filter>
<filter id="filter3_d_3245_2724" x="141" y="423" width="164" height="90" filterUnits="userSpaceOnUse" color-interpolation-filters="sRGB">
<feFlood flood-opacity="0" result="BackgroundImageFix"/>
<feColorMatrix in="SourceAlpha" type="matrix" values="0 0 0 0 0 0 0 0 0 0 0 0 0 0 0 0 0 0 127 0" result="hardAlpha"/>
<feMorphology radius="6" operator="dilate" in="SourceAlpha" result="effect1_dropShadow_3245_2724"/>
<feOffset/>
<feGaussianBlur stdDeviation="10"/>
<feComposite in2="hardAlpha" operator="out"/>
<feColorMatrix type="matrix" values="0 0 0 0 0 0 0 0 0 0 0 0 0 0 0 0 0 0 0.05 0"/>
<feBlend mode="normal" in2="BackgroundImageFix" result="effect1_dropShadow_3245_2724"/>
<feBlend mode="normal" in="SourceGraphic" in2="effect1_dropShadow_3245_2724" result="shape"/>
</filter>
<filter id="filter4_d_3245_2724" x="10" y="538" width="164" height="90" filterUnits="userSpaceOnUse" color-interpolation-filters="sRGB">
<feFlood flood-opacity="0" result="BackgroundImageFix"/>
<feColorMatrix in="SourceAlpha" type="matrix" values="0 0 0 0 0 0 0 0 0 0 0 0 0 0 0 0 0 0 127 0" result="hardAlpha"/>
<feMorphology radius="6" operator="dilate" in="SourceAlpha" result="effect1_dropShadow_3245_2724"/>
<feOffset/>
<feGaussianBlur stdDeviation="10"/>
<feComposite in2="hardAlpha" operator="out"/>
<feColorMatrix type="matrix" values="0 0 0 0 0 0 0 0 0 0 0 0 0 0 0 0 0 0 0.05 0"/>
<feBlend mode="normal" in2="BackgroundImageFix" result="effect1_dropShadow_3245_2724"/>
<feBlend mode="normal" in="SourceGraphic" in2="effect1_dropShadow_3245_2724" result="shape"/>
</filter>
<filter id="filter5_d_3245_2724" x="247" y="254" width="103" height="103" filterUnits="userSpaceOnUse" color-interpolation-filters="sRGB">
<feFlood flood-opacity="0" result="BackgroundImageFix"/>
<feColorMatrix in="SourceAlpha" type="matrix" values="0 0 0 0 0 0 0 0 0 0 0 0 0 0 0 0 0 0 127 0" result="hardAlpha"/>
<feMorphology radius="6" operator="dilate" in="SourceAlpha" result="effect1_dropShadow_3245_2724"/>
<feOffset/>
<feGaussianBlur stdDeviation="10"/>
<feComposite in2="hardAlpha" operator="out"/>
<feColorMatrix type="matrix" values="0 0 0 0 0 0 0 0 0 0 0 0 0 0 0 0 0 0 0.05 0"/>
<feBlend mode="normal" in2="BackgroundImageFix" result="effect1_dropShadow_3245_2724"/>
<feBlend mode="normal" in="SourceGraphic" in2="effect1_dropShadow_3245_2724" result="shape"/>
</filter>
<filter id="filter6_d_3245_2724" x="10" y="432" width="103" height="103" filterUnits="userSpaceOnUse" color-interpolation-filters="sRGB">
<feFlood flood-opacity="0" result="BackgroundImageFix"/>
<feColorMatrix in="SourceAlpha" type="matrix" values="0 0 0 0 0 0 0 0 0 0 0 0 0 0 0 0 0 0 127 0" result="hardAlpha"/>
<feMorphology radius="6" operator="dilate" in="SourceAlpha" result="effect1_dropShadow_3245_2724"/>
<feOffset/>
<feGaussianBlur stdDeviation="10"/>
<feComposite in2="hardAlpha" operator="out"/>
<feColorMatrix type="matrix" values="0 0 0 0 0 0 0 0 0 0 0 0 0 0 0 0 0 0 0.05 0"/>
<feBlend mode="normal" in2="BackgroundImageFix" result="effect1_dropShadow_3245_2724"/>
<feBlend mode="normal" in="SourceGraphic" in2="effect1_dropShadow_3245_2724" result="shape"/>
</filter>
<filter id="filter7_d_3245_2724" x="138" y="171" width="103" height="103" filterUnits="userSpaceOnUse" color-interpolation-filters="sRGB">
<feFlood flood-opacity="0" result="BackgroundImageFix"/>
<feColorMatrix in="SourceAlpha" type="matrix" values="0 0 0 0 0 0 0 0 0 0 0 0 0 0 0 0 0 0 127 0" result="hardAlpha"/>
<feMorphology radius="6" operator="dilate" in="SourceAlpha" result="effect1_dropShadow_3245_2724"/>
<feOffset/>
<feGaussianBlur stdDeviation="10"/>
<feComposite in2="hardAlpha" operator="out"/>
<feColorMatrix type="matrix" values="0 0 0 0 0 0 0 0 0 0 0 0 0 0 0 0 0 0 0.05 0"/>
<feBlend mode="normal" in2="BackgroundImageFix" result="effect1_dropShadow_3245_2724"/>
<feBlend mode="normal" in="SourceGraphic" in2="effect1_dropShadow_3245_2724" result="shape"/>
</filter>
<filter id="filter8_d_3245_2724" x="137" y="6" width="103" height="103" filterUnits="userSpaceOnUse" color-interpolation-filters="sRGB">
<feFlood flood-opacity="0" result="BackgroundImageFix"/>
<feColorMatrix in="SourceAlpha" type="matrix" values="0 0 0 0 0 0 0 0 0 0 0 0 0 0 0 0 0 0 127 0" result="hardAlpha"/>
<feMorphology radius="6" operator="dilate" in="SourceAlpha" result="effect1_dropShadow_3245_2724"/>
<feOffset/>
<feGaussianBlur stdDeviation="10"/>
<feComposite in2="hardAlpha" operator="out"/>
<feColorMatrix type="matrix" values="0 0 0 0 0 0 0 0 0 0 0 0 0 0 0 0 0 0 0.05 0"/>
<feBlend mode="normal" in2="BackgroundImageFix" result="effect1_dropShadow_3245_2724"/>
<feBlend mode="normal" in="SourceGraphic" in2="effect1_dropShadow_3245_2724" result="shape"/>
</filter>
</defs>
</svg>
