<svg width="119" height="93" viewBox="0 0 119 93" fill="none" xmlns="http://www.w3.org/2000/svg">
<path d="M2.05867 0.352082L2.08479 0.378952L8.16626 6.82214C8.63982 7.32388 8.63598 8.1333 8.15767 8.63005C7.68805 9.11777 6.93567 9.12276 6.46026 8.64792L6.43414 8.62105L0.352673 2.17786C-0.120893 1.67612 -0.117046 0.866697 0.361265 0.369942C0.830879 -0.117781 1.58326 -0.122758 2.05867 0.352082ZM15.5887 0.352082L15.6149 0.378952L21.6963 6.82214C22.1699 7.32388 22.166 8.1333 21.6877 8.63005C21.2181 9.11777 20.4657 9.12276 19.9903 8.64792L19.9642 8.62105L13.8827 2.17786C13.4092 1.67612 13.413 0.866697 13.8913 0.369942C14.3609 -0.117781 15.1133 -0.122758 15.5887 0.352082ZM29.1188 0.352082L29.1449 0.378952L35.2264 6.82214C35.7 7.32388 35.6961 8.1333 35.2178 8.63005C34.7482 9.11777 33.9958 9.12276 33.5204 8.64792L33.4943 8.62105L27.4128 2.17786C26.9392 1.67612 26.9431 0.866697 27.4214 0.369942C27.891 -0.117781 28.6434 -0.122758 29.1188 0.352082ZM42.6489 0.352082L42.675 0.378952L48.7565 6.82214C49.23 7.32388 49.2262 8.1333 48.7479 8.63005C48.2783 9.11777 47.5259 9.12276 47.0505 8.64792L47.0243 8.62105L40.9429 2.17786C40.4693 1.67612 40.4732 0.866697 40.9515 0.369942C41.4211 -0.117781 42.1735 -0.122758 42.6489 0.352082ZM56.1789 0.352082L56.2051 0.378952L62.2865 6.82214C62.7601 7.32388 62.7562 8.1333 62.2779 8.63005C61.8083 9.11777 61.0559 9.12276 60.5805 8.64792L60.5544 8.62105L54.4729 2.17786C53.9994 1.67612 54.0032 0.866697 54.4815 0.369942C54.9511 -0.117781 55.7035 -0.122758 56.1789 0.352082ZM69.709 0.352082L69.7351 0.378952L75.8166 6.82214C76.2902 7.32388 76.2863 8.1333 75.808 8.63005C75.3384 9.11777 74.586 9.12276 74.1106 8.64792L74.0845 8.62105L68.003 2.17786C67.5294 1.67612 67.5333 0.866697 68.0116 0.369942C68.4812 -0.117781 69.2336 -0.122758 69.709 0.352082ZM83.2391 0.352082L83.2652 0.378952L89.3467 6.82214C89.8202 7.32388 89.8164 8.1333 89.3381 8.63005C88.8685 9.11777 88.1161 9.12276 87.6407 8.64792L87.6145 8.62105L81.5331 2.17786C81.0595 1.67612 81.0634 0.866697 81.5417 0.369942C82.0113 -0.117781 82.7637 -0.122758 83.2391 0.352082ZM96.7691 0.352082L96.7953 0.378952L102.877 6.82214C103.35 7.32388 103.346 8.1333 102.868 8.63005C102.399 9.11777 101.646 9.12276 101.171 8.64792L101.145 8.62105L95.0631 2.17786C94.5896 1.67612 94.5934 0.866697 95.0717 0.369942C95.5413 -0.117781 96.2937 -0.122758 96.7691 0.352082ZM110.299 0.352082L110.325 0.378952L116.407 6.82214C116.88 7.32388 116.877 8.1333 116.398 8.63005C115.929 9.11777 115.176 9.12276 114.701 8.64792L114.675 8.62105L108.593 2.17786C108.12 1.67612 108.123 0.866697 108.602 0.369942C109.071 -0.117781 109.824 -0.122758 110.299 0.352082ZM123.829 0.352082L123.855 0.378952L129.937 6.82214C130.41 7.32388 130.407 8.1333 129.928 8.63005C129.459 9.11777 128.706 9.12276 128.231 8.64792L128.205 8.62105L122.123 2.17786C121.65 1.67612 121.654 0.866697 122.132 0.369942C122.601 -0.117781 123.354 -0.122758 123.829 0.352082ZM137.359 0.352082L137.385 0.378952L143.467 6.82214C143.94 7.32388 143.937 8.1333 143.458 8.63005C142.989 9.11777 142.236 9.12276 141.761 8.64792L141.735 8.62105L135.653 2.17786C135.18 1.67612 135.184 0.866697 135.662 0.369942C136.132 -0.117781 136.884 -0.122758 137.359 0.352082ZM150.889 0.352082L150.916 0.378952L156.997 6.82214C157.471 7.32388 157.467 8.1333 156.988 8.63005C156.519 9.11777 155.766 9.12276 155.291 8.64792L155.265 8.62105L149.183 2.17786C148.71 1.67612 148.714 0.866697 149.192 0.369942C149.662 -0.117781 150.414 -0.122758 150.889 0.352082ZM164.419 0.352082L164.446 0.378952L170.527 6.82214C171.001 7.32388 170.997 8.1333 170.518 8.63005C170.049 9.11777 169.296 9.12276 168.821 8.64792L168.795 8.62105L162.713 2.17786C162.24 1.67612 162.244 0.866697 162.722 0.369942C163.192 -0.117781 163.944 -0.122758 164.419 0.352082ZM177.95 0.352082L177.976 0.378952L184.057 6.82214C184.531 7.32388 184.527 8.1333 184.049 8.63005C183.579 9.11777 182.827 9.12276 182.351 8.64792L182.325 8.62105L176.244 2.17786C175.77 1.67612 175.774 0.866697 176.252 0.369942C176.722 -0.117781 177.474 -0.122758 177.95 0.352082ZM191.48 0.352082L191.506 0.378952L197.587 6.82214C198.061 7.32388 198.057 8.1333 197.579 8.63005C197.109 9.11777 196.357 9.12276 195.881 8.64792L195.855 8.62105L189.774 2.17786C189.3 1.67612 189.304 0.866697 189.782 0.369942C190.252 -0.117781 191.004 -0.122758 191.48 0.352082ZM205.01 0.352082L205.036 0.378952L211.117 6.82214C211.591 7.32388 211.587 8.1333 211.109 8.63005C210.639 9.11777 209.887 9.12276 209.411 8.64792L209.385 8.62105L203.304 2.17786C202.83 1.67612 202.834 0.866697 203.312 0.369942C203.782 -0.117781 204.534 -0.122758 205.01 0.352082ZM218.54 0.352082L218.566 0.378952L224.647 6.82214C225.121 7.32388 225.117 8.1333 224.639 8.63005C224.169 9.11777 223.417 9.12276 222.941 8.64792L222.915 8.62105L216.834 2.17786C216.36 1.67612 216.364 0.866697 216.842 0.369942C217.312 -0.117781 218.064 -0.122758 218.54 0.352082Z" fill="#009DC4"/>
<path d="M2.05867 14.3521L2.08479 14.3789L8.16626 20.8221C8.63982 21.3239 8.63598 22.1333 8.15767 22.63C7.68805 23.1178 6.93567 23.1228 6.46026 22.6479L6.43414 22.621L0.352673 16.1779C-0.120893 15.6761 -0.117046 14.8667 0.361265 14.3699C0.830879 13.8822 1.58326 13.8772 2.05867 14.3521ZM15.5887 14.3521L15.6149 14.3789L21.6963 20.8221C22.1699 21.3239 22.166 22.1333 21.6877 22.63C21.2181 23.1178 20.4657 23.1228 19.9903 22.6479L19.9642 22.621L13.8827 16.1779C13.4092 15.6761 13.413 14.8667 13.8913 14.3699C14.3609 13.8822 15.1133 13.8772 15.5887 14.3521ZM29.1188 14.3521L29.1449 14.3789L35.2264 20.8221C35.7 21.3239 35.6961 22.1333 35.2178 22.63C34.7482 23.1178 33.9958 23.1228 33.5204 22.6479L33.4943 22.621L27.4128 16.1779C26.9392 15.6761 26.9431 14.8667 27.4214 14.3699C27.891 13.8822 28.6434 13.8772 29.1188 14.3521ZM42.6489 14.3521L42.675 14.3789L48.7565 20.8221C49.23 21.3239 49.2262 22.1333 48.7479 22.63C48.2783 23.1178 47.5259 23.1228 47.0505 22.6479L47.0243 22.621L40.9429 16.1779C40.4693 15.6761 40.4732 14.8667 40.9515 14.3699C41.4211 13.8822 42.1735 13.8772 42.6489 14.3521ZM56.1789 14.3521L56.2051 14.3789L62.2865 20.8221C62.7601 21.3239 62.7562 22.1333 62.2779 22.63C61.8083 23.1178 61.0559 23.1228 60.5805 22.6479L60.5544 22.621L54.4729 16.1779C53.9994 15.6761 54.0032 14.8667 54.4815 14.3699C54.9511 13.8822 55.7035 13.8772 56.1789 14.3521ZM69.709 14.3521L69.7351 14.3789L75.8166 20.8221C76.2902 21.3239 76.2863 22.1333 75.808 22.63C75.3384 23.1178 74.586 23.1228 74.1106 22.6479L74.0845 22.621L68.003 16.1779C67.5294 15.6761 67.5333 14.8667 68.0116 14.3699C68.4812 13.8822 69.2336 13.8772 69.709 14.3521ZM83.2391 14.3521L83.2652 14.3789L89.3467 20.8221C89.8202 21.3239 89.8164 22.1333 89.3381 22.63C88.8685 23.1178 88.1161 23.1228 87.6407 22.6479L87.6145 22.621L81.5331 16.1779C81.0595 15.6761 81.0634 14.8667 81.5417 14.3699C82.0113 13.8822 82.7637 13.8772 83.2391 14.3521ZM96.7691 14.3521L96.7953 14.3789L102.877 20.8221C103.35 21.3239 103.346 22.1333 102.868 22.63C102.399 23.1178 101.646 23.1228 101.171 22.6479L101.145 22.621L95.0631 16.1779C94.5896 15.6761 94.5934 14.8667 95.0717 14.3699C95.5413 13.8822 96.2937 13.8772 96.7691 14.3521ZM110.299 14.3521L110.325 14.3789L116.407 20.8221C116.88 21.3239 116.877 22.1333 116.398 22.63C115.929 23.1178 115.176 23.1228 114.701 22.6479L114.675 22.621L108.593 16.1779C108.12 15.6761 108.123 14.8667 108.602 14.3699C109.071 13.8822 109.824 13.8772 110.299 14.3521ZM123.829 14.3521L123.855 14.3789L129.937 20.8221C130.41 21.3239 130.407 22.1333 129.928 22.63C129.459 23.1178 128.706 23.1228 128.231 22.6479L128.205 22.621L122.123 16.1779C121.65 15.6761 121.654 14.8667 122.132 14.3699C122.601 13.8822 123.354 13.8772 123.829 14.3521ZM137.359 14.3521L137.385 14.3789L143.467 20.8221C143.94 21.3239 143.937 22.1333 143.458 22.63C142.989 23.1178 142.236 23.1228 141.761 22.6479L141.735 22.621L135.653 16.1779C135.18 15.6761 135.184 14.8667 135.662 14.3699C136.132 13.8822 136.884 13.8772 137.359 14.3521ZM150.889 14.3521L150.916 14.3789L156.997 20.8221C157.471 21.3239 157.467 22.1333 156.988 22.63C156.519 23.1178 155.766 23.1228 155.291 22.6479L155.265 22.621L149.183 16.1779C148.71 15.6761 148.714 14.8667 149.192 14.3699C149.662 13.8822 150.414 13.8772 150.889 14.3521ZM164.419 14.3521L164.446 14.3789L170.527 20.8221C171.001 21.3239 170.997 22.1333 170.518 22.63C170.049 23.1178 169.296 23.1228 168.821 22.6479L168.795 22.621L162.713 16.1779C162.24 15.6761 162.244 14.8667 162.722 14.3699C163.192 13.8822 163.944 13.8772 164.419 14.3521ZM177.95 14.3521L177.976 14.3789L184.057 20.8221C184.531 21.3239 184.527 22.1333 184.049 22.63C183.579 23.1178 182.827 23.1228 182.351 22.6479L182.325 22.621L176.244 16.1779C175.77 15.6761 175.774 14.8667 176.252 14.3699C176.722 13.8822 177.474 13.8772 177.95 14.3521ZM191.48 14.3521L191.506 14.3789L197.587 20.8221C198.061 21.3239 198.057 22.1333 197.579 22.63C197.109 23.1178 196.357 23.1228 195.881 22.6479L195.855 22.621L189.774 16.1779C189.3 15.6761 189.304 14.8667 189.782 14.3699C190.252 13.8822 191.004 13.8772 191.48 14.3521ZM205.01 14.3521L205.036 14.3789L211.117 20.8221C211.591 21.3239 211.587 22.1333 211.109 22.63C210.639 23.1178 209.887 23.1228 209.411 22.6479L209.385 22.621L203.304 16.1779C202.83 15.6761 202.834 14.8667 203.312 14.3699C203.782 13.8822 204.534 13.8772 205.01 14.3521ZM218.54 14.3521L218.566 14.3789L224.647 20.8221C225.121 21.3239 225.117 22.1333 224.639 22.63C224.169 23.1178 223.417 23.1228 222.941 22.6479L222.915 22.621L216.834 16.1779C216.36 15.6761 216.364 14.8667 216.842 14.3699C217.312 13.8822 218.064 13.8772 218.54 14.3521Z" fill="#009DC4"/>
<path d="M2.05867 28.3521L2.08479 28.3789L8.16626 34.8221C8.63982 35.3239 8.63598 36.1333 8.15767 36.63C7.68805 37.1178 6.93567 37.1228 6.46026 36.6479L6.43414 36.621L0.352673 30.1779C-0.120893 29.6761 -0.117046 28.8667 0.361265 28.3699C0.830879 27.8822 1.58326 27.8772 2.05867 28.3521ZM15.5887 28.3521L15.6149 28.3789L21.6963 34.8221C22.1699 35.3239 22.166 36.1333 21.6877 36.63C21.2181 37.1178 20.4657 37.1228 19.9903 36.6479L19.9642 36.621L13.8827 30.1779C13.4092 29.6761 13.413 28.8667 13.8913 28.3699C14.3609 27.8822 15.1133 27.8772 15.5887 28.3521ZM29.1188 28.3521L29.1449 28.3789L35.2264 34.8221C35.7 35.3239 35.6961 36.1333 35.2178 36.63C34.7482 37.1178 33.9958 37.1228 33.5204 36.6479L33.4943 36.621L27.4128 30.1779C26.9392 29.6761 26.9431 28.8667 27.4214 28.3699C27.891 27.8822 28.6434 27.8772 29.1188 28.3521ZM42.6489 28.3521L42.675 28.3789L48.7565 34.8221C49.23 35.3239 49.2262 36.1333 48.7479 36.63C48.2783 37.1178 47.5259 37.1228 47.0505 36.6479L47.0243 36.621L40.9429 30.1779C40.4693 29.6761 40.4732 28.8667 40.9515 28.3699C41.4211 27.8822 42.1735 27.8772 42.6489 28.3521ZM56.1789 28.3521L56.2051 28.3789L62.2865 34.8221C62.7601 35.3239 62.7562 36.1333 62.2779 36.63C61.8083 37.1178 61.0559 37.1228 60.5805 36.6479L60.5544 36.621L54.4729 30.1779C53.9994 29.6761 54.0032 28.8667 54.4815 28.3699C54.9511 27.8822 55.7035 27.8772 56.1789 28.3521ZM69.709 28.3521L69.7351 28.3789L75.8166 34.8221C76.2902 35.3239 76.2863 36.1333 75.808 36.63C75.3384 37.1178 74.586 37.1228 74.1106 36.6479L74.0845 36.621L68.003 30.1779C67.5294 29.6761 67.5333 28.8667 68.0116 28.3699C68.4812 27.8822 69.2336 27.8772 69.709 28.3521ZM83.2391 28.3521L83.2652 28.3789L89.3467 34.8221C89.8202 35.3239 89.8164 36.1333 89.3381 36.63C88.8685 37.1178 88.1161 37.1228 87.6407 36.6479L87.6145 36.621L81.5331 30.1779C81.0595 29.6761 81.0634 28.8667 81.5417 28.3699C82.0113 27.8822 82.7637 27.8772 83.2391 28.3521ZM96.7691 28.3521L96.7953 28.3789L102.877 34.8221C103.35 35.3239 103.346 36.1333 102.868 36.63C102.399 37.1178 101.646 37.1228 101.171 36.6479L101.145 36.621L95.0631 30.1779C94.5896 29.6761 94.5934 28.8667 95.0717 28.3699C95.5413 27.8822 96.2937 27.8772 96.7691 28.3521ZM110.299 28.3521L110.325 28.3789L116.407 34.8221C116.88 35.3239 116.877 36.1333 116.398 36.63C115.929 37.1178 115.176 37.1228 114.701 36.6479L114.675 36.621L108.593 30.1779C108.12 29.6761 108.123 28.8667 108.602 28.3699C109.071 27.8822 109.824 27.8772 110.299 28.3521ZM123.829 28.3521L123.855 28.3789L129.937 34.8221C130.41 35.3239 130.407 36.1333 129.928 36.63C129.459 37.1178 128.706 37.1228 128.231 36.6479L128.205 36.621L122.123 30.1779C121.65 29.6761 121.654 28.8667 122.132 28.3699C122.601 27.8822 123.354 27.8772 123.829 28.3521ZM137.359 28.3521L137.385 28.3789L143.467 34.8221C143.94 35.3239 143.937 36.1333 143.458 36.63C142.989 37.1178 142.236 37.1228 141.761 36.6479L141.735 36.621L135.653 30.1779C135.18 29.6761 135.184 28.8667 135.662 28.3699C136.132 27.8822 136.884 27.8772 137.359 28.3521ZM150.889 28.3521L150.916 28.3789L156.997 34.8221C157.471 35.3239 157.467 36.1333 156.988 36.63C156.519 37.1178 155.766 37.1228 155.291 36.6479L155.265 36.621L149.183 30.1779C148.71 29.6761 148.714 28.8667 149.192 28.3699C149.662 27.8822 150.414 27.8772 150.889 28.3521ZM164.419 28.3521L164.446 28.3789L170.527 34.8221C171.001 35.3239 170.997 36.1333 170.518 36.63C170.049 37.1178 169.296 37.1228 168.821 36.6479L168.795 36.621L162.713 30.1779C162.24 29.6761 162.244 28.8667 162.722 28.3699C163.192 27.8822 163.944 27.8772 164.419 28.3521ZM177.95 28.3521L177.976 28.3789L184.057 34.8221C184.531 35.3239 184.527 36.1333 184.049 36.63C183.579 37.1178 182.827 37.1228 182.351 36.6479L182.325 36.621L176.244 30.1779C175.77 29.6761 175.774 28.8667 176.252 28.3699C176.722 27.8822 177.474 27.8772 177.95 28.3521ZM191.48 28.3521L191.506 28.3789L197.587 34.8221C198.061 35.3239 198.057 36.1333 197.579 36.63C197.109 37.1178 196.357 37.1228 195.881 36.6479L195.855 36.621L189.774 30.1779C189.3 29.6761 189.304 28.8667 189.782 28.3699C190.252 27.8822 191.004 27.8772 191.48 28.3521ZM205.01 28.3521L205.036 28.3789L211.117 34.8221C211.591 35.3239 211.587 36.1333 211.109 36.63C210.639 37.1178 209.887 37.1228 209.411 36.6479L209.385 36.621L203.304 30.1779C202.83 29.6761 202.834 28.8667 203.312 28.3699C203.782 27.8822 204.534 27.8772 205.01 28.3521ZM218.54 28.3521L218.566 28.3789L224.647 34.8221C225.121 35.3239 225.117 36.1333 224.639 36.63C224.169 37.1178 223.417 37.1228 222.941 36.6479L222.915 36.621L216.834 30.1779C216.36 29.6761 216.364 28.8667 216.842 28.3699C217.312 27.8822 218.064 27.8772 218.54 28.3521Z" fill="#009DC4"/>
<path d="M2.05867 42.3521L2.08479 42.3789L8.16626 48.8221C8.63982 49.3239 8.63598 50.1333 8.15767 50.63C7.68805 51.1178 6.93567 51.1228 6.46026 50.6479L6.43414 50.621L0.352673 44.1779C-0.120893 43.6761 -0.117046 42.8667 0.361265 42.3699C0.830879 41.8822 1.58326 41.8772 2.05867 42.3521ZM15.5887 42.3521L15.6149 42.3789L21.6963 48.8221C22.1699 49.3239 22.166 50.1333 21.6877 50.63C21.2181 51.1178 20.4657 51.1228 19.9903 50.6479L19.9642 50.621L13.8827 44.1779C13.4092 43.6761 13.413 42.8667 13.8913 42.3699C14.3609 41.8822 15.1133 41.8772 15.5887 42.3521ZM29.1188 42.3521L29.1449 42.3789L35.2264 48.8221C35.7 49.3239 35.6961 50.1333 35.2178 50.63C34.7482 51.1178 33.9958 51.1228 33.5204 50.6479L33.4943 50.621L27.4128 44.1779C26.9392 43.6761 26.9431 42.8667 27.4214 42.3699C27.891 41.8822 28.6434 41.8772 29.1188 42.3521ZM42.6489 42.3521L42.675 42.3789L48.7565 48.8221C49.23 49.3239 49.2262 50.1333 48.7479 50.63C48.2783 51.1178 47.5259 51.1228 47.0505 50.6479L47.0243 50.621L40.9429 44.1779C40.4693 43.6761 40.4732 42.8667 40.9515 42.3699C41.4211 41.8822 42.1735 41.8772 42.6489 42.3521ZM56.1789 42.3521L56.2051 42.3789L62.2865 48.8221C62.7601 49.3239 62.7562 50.1333 62.2779 50.63C61.8083 51.1178 61.0559 51.1228 60.5805 50.6479L60.5544 50.621L54.4729 44.1779C53.9994 43.6761 54.0032 42.8667 54.4815 42.3699C54.9511 41.8822 55.7035 41.8772 56.1789 42.3521ZM69.709 42.3521L69.7351 42.3789L75.8166 48.8221C76.2902 49.3239 76.2863 50.1333 75.808 50.63C75.3384 51.1178 74.586 51.1228 74.1106 50.6479L74.0845 50.621L68.003 44.1779C67.5294 43.6761 67.5333 42.8667 68.0116 42.3699C68.4812 41.8822 69.2336 41.8772 69.709 42.3521ZM83.2391 42.3521L83.2652 42.3789L89.3467 48.8221C89.8202 49.3239 89.8164 50.1333 89.3381 50.63C88.8685 51.1178 88.1161 51.1228 87.6407 50.6479L87.6145 50.621L81.5331 44.1779C81.0595 43.6761 81.0634 42.8667 81.5417 42.3699C82.0113 41.8822 82.7637 41.8772 83.2391 42.3521ZM96.7691 42.3521L96.7953 42.3789L102.877 48.8221C103.35 49.3239 103.346 50.1333 102.868 50.63C102.399 51.1178 101.646 51.1228 101.171 50.6479L101.145 50.621L95.0631 44.1779C94.5896 43.6761 94.5934 42.8667 95.0717 42.3699C95.5413 41.8822 96.2937 41.8772 96.7691 42.3521ZM110.299 42.3521L110.325 42.3789L116.407 48.8221C116.88 49.3239 116.877 50.1333 116.398 50.63C115.929 51.1178 115.176 51.1228 114.701 50.6479L114.675 50.621L108.593 44.1779C108.12 43.6761 108.123 42.8667 108.602 42.3699C109.071 41.8822 109.824 41.8772 110.299 42.3521ZM123.829 42.3521L123.855 42.3789L129.937 48.8221C130.41 49.3239 130.407 50.1333 129.928 50.63C129.459 51.1178 128.706 51.1228 128.231 50.6479L128.205 50.621L122.123 44.1779C121.65 43.6761 121.654 42.8667 122.132 42.3699C122.601 41.8822 123.354 41.8772 123.829 42.3521ZM137.359 42.3521L137.385 42.3789L143.467 48.8221C143.94 49.3239 143.937 50.1333 143.458 50.63C142.989 51.1178 142.236 51.1228 141.761 50.6479L141.735 50.621L135.653 44.1779C135.18 43.6761 135.184 42.8667 135.662 42.3699C136.132 41.8822 136.884 41.8772 137.359 42.3521ZM150.889 42.3521L150.916 42.3789L156.997 48.8221C157.471 49.3239 157.467 50.1333 156.988 50.63C156.519 51.1178 155.766 51.1228 155.291 50.6479L155.265 50.621L149.183 44.1779C148.71 43.6761 148.714 42.8667 149.192 42.3699C149.662 41.8822 150.414 41.8772 150.889 42.3521ZM164.419 42.3521L164.446 42.3789L170.527 48.8221C171.001 49.3239 170.997 50.1333 170.518 50.63C170.049 51.1178 169.296 51.1228 168.821 50.6479L168.795 50.621L162.713 44.1779C162.24 43.6761 162.244 42.8667 162.722 42.3699C163.192 41.8822 163.944 41.8772 164.419 42.3521ZM177.95 42.3521L177.976 42.3789L184.057 48.8221C184.531 49.3239 184.527 50.1333 184.049 50.63C183.579 51.1178 182.827 51.1228 182.351 50.6479L182.325 50.621L176.244 44.1779C175.77 43.6761 175.774 42.8667 176.252 42.3699C176.722 41.8822 177.474 41.8772 177.95 42.3521ZM191.48 42.3521L191.506 42.3789L197.587 48.8221C198.061 49.3239 198.057 50.1333 197.579 50.63C197.109 51.1178 196.357 51.1228 195.881 50.6479L195.855 50.621L189.774 44.1779C189.3 43.6761 189.304 42.8667 189.782 42.3699C190.252 41.8822 191.004 41.8772 191.48 42.3521ZM205.01 42.3521L205.036 42.3789L211.117 48.8221C211.591 49.3239 211.587 50.1333 211.109 50.63C210.639 51.1178 209.887 51.1228 209.411 50.6479L209.385 50.621L203.304 44.1779C202.83 43.6761 202.834 42.8667 203.312 42.3699C203.782 41.8822 204.534 41.8772 205.01 42.3521ZM218.54 42.3521L218.566 42.3789L224.647 48.8221C225.121 49.3239 225.117 50.1333 224.639 50.63C224.169 51.1178 223.417 51.1228 222.941 50.6479L222.915 50.621L216.834 44.1779C216.36 43.6761 216.364 42.8667 216.842 42.3699C217.312 41.8822 218.064 41.8772 218.54 42.3521Z" fill="#009DC4"/>
<path d="M2.05867 56.3521L2.08479 56.3789L8.16626 62.8221C8.63982 63.3239 8.63598 64.1333 8.15767 64.63C7.68805 65.1178 6.93567 65.1228 6.46026 64.6479L6.43414 64.621L0.352673 58.1779C-0.120893 57.6761 -0.117046 56.8667 0.361265 56.3699C0.830879 55.8822 1.58326 55.8772 2.05867 56.3521ZM15.5887 56.3521L15.6149 56.3789L21.6963 62.8221C22.1699 63.3239 22.166 64.1333 21.6877 64.63C21.2181 65.1178 20.4657 65.1228 19.9903 64.6479L19.9642 64.621L13.8827 58.1779C13.4092 57.6761 13.413 56.8667 13.8913 56.3699C14.3609 55.8822 15.1133 55.8772 15.5887 56.3521ZM29.1188 56.3521L29.1449 56.3789L35.2264 62.8221C35.7 63.3239 35.6961 64.1333 35.2178 64.63C34.7482 65.1178 33.9958 65.1228 33.5204 64.6479L33.4943 64.621L27.4128 58.1779C26.9392 57.6761 26.9431 56.8667 27.4214 56.3699C27.891 55.8822 28.6434 55.8772 29.1188 56.3521ZM42.6489 56.3521L42.675 56.3789L48.7565 62.8221C49.23 63.3239 49.2262 64.1333 48.7479 64.63C48.2783 65.1178 47.5259 65.1228 47.0505 64.6479L47.0243 64.621L40.9429 58.1779C40.4693 57.6761 40.4732 56.8667 40.9515 56.3699C41.4211 55.8822 42.1735 55.8772 42.6489 56.3521ZM56.1789 56.3521L56.2051 56.3789L62.2865 62.8221C62.7601 63.3239 62.7562 64.1333 62.2779 64.63C61.8083 65.1178 61.0559 65.1228 60.5805 64.6479L60.5544 64.621L54.4729 58.1779C53.9994 57.6761 54.0032 56.8667 54.4815 56.3699C54.9511 55.8822 55.7035 55.8772 56.1789 56.3521ZM69.709 56.3521L69.7351 56.3789L75.8166 62.8221C76.2902 63.3239 76.2863 64.1333 75.808 64.63C75.3384 65.1178 74.586 65.1228 74.1106 64.6479L74.0845 64.621L68.003 58.1779C67.5294 57.6761 67.5333 56.8667 68.0116 56.3699C68.4812 55.8822 69.2336 55.8772 69.709 56.3521ZM83.2391 56.3521L83.2652 56.3789L89.3467 62.8221C89.8202 63.3239 89.8164 64.1333 89.3381 64.63C88.8685 65.1178 88.1161 65.1228 87.6407 64.6479L87.6145 64.621L81.5331 58.1779C81.0595 57.6761 81.0634 56.8667 81.5417 56.3699C82.0113 55.8822 82.7637 55.8772 83.2391 56.3521ZM96.7691 56.3521L96.7953 56.3789L102.877 62.8221C103.35 63.3239 103.346 64.1333 102.868 64.63C102.399 65.1178 101.646 65.1228 101.171 64.6479L101.145 64.621L95.0631 58.1779C94.5896 57.6761 94.5934 56.8667 95.0717 56.3699C95.5413 55.8822 96.2937 55.8772 96.7691 56.3521ZM110.299 56.3521L110.325 56.3789L116.407 62.8221C116.88 63.3239 116.877 64.1333 116.398 64.63C115.929 65.1178 115.176 65.1228 114.701 64.6479L114.675 64.621L108.593 58.1779C108.12 57.6761 108.123 56.8667 108.602 56.3699C109.071 55.8822 109.824 55.8772 110.299 56.3521ZM123.829 56.3521L123.855 56.3789L129.937 62.8221C130.41 63.3239 130.407 64.1333 129.928 64.63C129.459 65.1178 128.706 65.1228 128.231 64.6479L128.205 64.621L122.123 58.1779C121.65 57.6761 121.654 56.8667 122.132 56.3699C122.601 55.8822 123.354 55.8772 123.829 56.3521ZM137.359 56.3521L137.385 56.3789L143.467 62.8221C143.94 63.3239 143.937 64.1333 143.458 64.63C142.989 65.1178 142.236 65.1228 141.761 64.6479L141.735 64.621L135.653 58.1779C135.18 57.6761 135.184 56.8667 135.662 56.3699C136.132 55.8822 136.884 55.8772 137.359 56.3521ZM150.889 56.3521L150.916 56.3789L156.997 62.8221C157.471 63.3239 157.467 64.1333 156.988 64.63C156.519 65.1178 155.766 65.1228 155.291 64.6479L155.265 64.621L149.183 58.1779C148.71 57.6761 148.714 56.8667 149.192 56.3699C149.662 55.8822 150.414 55.8772 150.889 56.3521ZM164.419 56.3521L164.446 56.3789L170.527 62.8221C171.001 63.3239 170.997 64.1333 170.518 64.63C170.049 65.1178 169.296 65.1228 168.821 64.6479L168.795 64.621L162.713 58.1779C162.24 57.6761 162.244 56.8667 162.722 56.3699C163.192 55.8822 163.944 55.8772 164.419 56.3521ZM177.95 56.3521L177.976 56.3789L184.057 62.8221C184.531 63.3239 184.527 64.1333 184.049 64.63C183.579 65.1178 182.827 65.1228 182.351 64.6479L182.325 64.621L176.244 58.1779C175.77 57.6761 175.774 56.8667 176.252 56.3699C176.722 55.8822 177.474 55.8772 177.95 56.3521ZM191.48 56.3521L191.506 56.3789L197.587 62.8221C198.061 63.3239 198.057 64.1333 197.579 64.63C197.109 65.1178 196.357 65.1228 195.881 64.6479L195.855 64.621L189.774 58.1779C189.3 57.6761 189.304 56.8667 189.782 56.3699C190.252 55.8822 191.004 55.8772 191.48 56.3521ZM205.01 56.3521L205.036 56.3789L211.117 62.8221C211.591 63.3239 211.587 64.1333 211.109 64.63C210.639 65.1178 209.887 65.1228 209.411 64.6479L209.385 64.621L203.304 58.1779C202.83 57.6761 202.834 56.8667 203.312 56.3699C203.782 55.8822 204.534 55.8772 205.01 56.3521ZM218.54 56.3521L218.566 56.3789L224.647 62.8221C225.121 63.3239 225.117 64.1333 224.639 64.63C224.169 65.1178 223.417 65.1228 222.941 64.6479L222.915 64.621L216.834 58.1779C216.36 57.6761 216.364 56.8667 216.842 56.3699C217.312 55.8822 218.064 55.8772 218.54 56.3521Z" fill="#009DC4"/>
<path d="M2.05867 70.3521L2.08479 70.3789L8.16626 76.8221C8.63982 77.3239 8.63598 78.1333 8.15767 78.63C7.68805 79.1178 6.93567 79.1228 6.46026 78.6479L6.43414 78.621L0.352673 72.1779C-0.120893 71.6761 -0.117046 70.8667 0.361265 70.3699C0.830879 69.8822 1.58326 69.8772 2.05867 70.3521ZM15.5887 70.3521L15.6149 70.3789L21.6963 76.8221C22.1699 77.3239 22.166 78.1333 21.6877 78.63C21.2181 79.1178 20.4657 79.1228 19.9903 78.6479L19.9642 78.621L13.8827 72.1779C13.4092 71.6761 13.413 70.8667 13.8913 70.3699C14.3609 69.8822 15.1133 69.8772 15.5887 70.3521ZM29.1188 70.3521L29.1449 70.3789L35.2264 76.8221C35.7 77.3239 35.6961 78.1333 35.2178 78.63C34.7482 79.1178 33.9958 79.1228 33.5204 78.6479L33.4943 78.621L27.4128 72.1779C26.9392 71.6761 26.9431 70.8667 27.4214 70.3699C27.891 69.8822 28.6434 69.8772 29.1188 70.3521ZM42.6489 70.3521L42.675 70.3789L48.7565 76.8221C49.23 77.3239 49.2262 78.1333 48.7479 78.63C48.2783 79.1178 47.5259 79.1228 47.0505 78.6479L47.0243 78.621L40.9429 72.1779C40.4693 71.6761 40.4732 70.8667 40.9515 70.3699C41.4211 69.8822 42.1735 69.8772 42.6489 70.3521ZM56.1789 70.3521L56.2051 70.3789L62.2865 76.8221C62.7601 77.3239 62.7562 78.1333 62.2779 78.63C61.8083 79.1178 61.0559 79.1228 60.5805 78.6479L60.5544 78.621L54.4729 72.1779C53.9994 71.6761 54.0032 70.8667 54.4815 70.3699C54.9511 69.8822 55.7035 69.8772 56.1789 70.3521ZM69.709 70.3521L69.7351 70.3789L75.8166 76.8221C76.2902 77.3239 76.2863 78.1333 75.808 78.63C75.3384 79.1178 74.586 79.1228 74.1106 78.6479L74.0845 78.621L68.003 72.1779C67.5294 71.6761 67.5333 70.8667 68.0116 70.3699C68.4812 69.8822 69.2336 69.8772 69.709 70.3521ZM83.2391 70.3521L83.2652 70.3789L89.3467 76.8221C89.8202 77.3239 89.8164 78.1333 89.3381 78.63C88.8685 79.1178 88.1161 79.1228 87.6407 78.6479L87.6145 78.621L81.5331 72.1779C81.0595 71.6761 81.0634 70.8667 81.5417 70.3699C82.0113 69.8822 82.7637 69.8772 83.2391 70.3521ZM96.7691 70.3521L96.7953 70.3789L102.877 76.8221C103.35 77.3239 103.346 78.1333 102.868 78.63C102.399 79.1178 101.646 79.1228 101.171 78.6479L101.145 78.621L95.0631 72.1779C94.5896 71.6761 94.5934 70.8667 95.0717 70.3699C95.5413 69.8822 96.2937 69.8772 96.7691 70.3521ZM110.299 70.3521L110.325 70.3789L116.407 76.8221C116.88 77.3239 116.877 78.1333 116.398 78.63C115.929 79.1178 115.176 79.1228 114.701 78.6479L114.675 78.621L108.593 72.1779C108.12 71.6761 108.123 70.8667 108.602 70.3699C109.071 69.8822 109.824 69.8772 110.299 70.3521ZM123.829 70.3521L123.855 70.3789L129.937 76.8221C130.41 77.3239 130.407 78.1333 129.928 78.63C129.459 79.1178 128.706 79.1228 128.231 78.6479L128.205 78.621L122.123 72.1779C121.65 71.6761 121.654 70.8667 122.132 70.3699C122.601 69.8822 123.354 69.8772 123.829 70.3521ZM137.359 70.3521L137.385 70.3789L143.467 76.8221C143.94 77.3239 143.937 78.1333 143.458 78.63C142.989 79.1178 142.236 79.1228 141.761 78.6479L141.735 78.621L135.653 72.1779C135.18 71.6761 135.184 70.8667 135.662 70.3699C136.132 69.8822 136.884 69.8772 137.359 70.3521ZM150.889 70.3521L150.916 70.3789L156.997 76.8221C157.471 77.3239 157.467 78.1333 156.988 78.63C156.519 79.1178 155.766 79.1228 155.291 78.6479L155.265 78.621L149.183 72.1779C148.71 71.6761 148.714 70.8667 149.192 70.3699C149.662 69.8822 150.414 69.8772 150.889 70.3521ZM164.419 70.3521L164.446 70.3789L170.527 76.8221C171.001 77.3239 170.997 78.1333 170.518 78.63C170.049 79.1178 169.296 79.1228 168.821 78.6479L168.795 78.621L162.713 72.1779C162.24 71.6761 162.244 70.8667 162.722 70.3699C163.192 69.8822 163.944 69.8772 164.419 70.3521ZM177.95 70.3521L177.976 70.3789L184.057 76.8221C184.531 77.3239 184.527 78.1333 184.049 78.63C183.579 79.1178 182.827 79.1228 182.351 78.6479L182.325 78.621L176.244 72.1779C175.77 71.6761 175.774 70.8667 176.252 70.3699C176.722 69.8822 177.474 69.8772 177.95 70.3521ZM191.48 70.3521L191.506 70.3789L197.587 76.8221C198.061 77.3239 198.057 78.1333 197.579 78.63C197.109 79.1178 196.357 79.1228 195.881 78.6479L195.855 78.621L189.774 72.1779C189.3 71.6761 189.304 70.8667 189.782 70.3699C190.252 69.8822 191.004 69.8772 191.48 70.3521ZM205.01 70.3521L205.036 70.3789L211.117 76.8221C211.591 77.3239 211.587 78.1333 211.109 78.63C210.639 79.1178 209.887 79.1228 209.411 78.6479L209.385 78.621L203.304 72.1779C202.83 71.6761 202.834 70.8667 203.312 70.3699C203.782 69.8822 204.534 69.8772 205.01 70.3521ZM218.54 70.3521L218.566 70.3789L224.647 76.8221C225.121 77.3239 225.117 78.1333 224.639 78.63C224.169 79.1178 223.417 79.1228 222.941 78.6479L222.915 78.621L216.834 72.1779C216.36 71.6761 216.364 70.8667 216.842 70.3699C217.312 69.8822 218.064 69.8772 218.54 70.3521Z" fill="#009DC4"/>
<path d="M2.05867 84.3521L2.08479 84.3789L8.16626 90.8221C8.63982 91.3239 8.63598 92.1333 8.15767 92.63C7.68805 93.1178 6.93567 93.1228 6.46026 92.6479L6.43414 92.621L0.352673 86.1779C-0.120893 85.6761 -0.117046 84.8667 0.361265 84.3699C0.830879 83.8822 1.58326 83.8772 2.05867 84.3521ZM15.5887 84.3521L15.6149 84.3789L21.6963 90.8221C22.1699 91.3239 22.166 92.1333 21.6877 92.63C21.2181 93.1178 20.4657 93.1228 19.9903 92.6479L19.9642 92.621L13.8827 86.1779C13.4092 85.6761 13.413 84.8667 13.8913 84.3699C14.3609 83.8822 15.1133 83.8772 15.5887 84.3521ZM29.1188 84.3521L29.1449 84.3789L35.2264 90.8221C35.7 91.3239 35.6961 92.1333 35.2178 92.63C34.7482 93.1178 33.9958 93.1228 33.5204 92.6479L33.4943 92.621L27.4128 86.1779C26.9392 85.6761 26.9431 84.8667 27.4214 84.3699C27.891 83.8822 28.6434 83.8772 29.1188 84.3521ZM42.6489 84.3521L42.675 84.3789L48.7565 90.8221C49.23 91.3239 49.2262 92.1333 48.7479 92.63C48.2783 93.1178 47.5259 93.1228 47.0505 92.6479L47.0243 92.621L40.9429 86.1779C40.4693 85.6761 40.4732 84.8667 40.9515 84.3699C41.4211 83.8822 42.1735 83.8772 42.6489 84.3521ZM56.1789 84.3521L56.2051 84.3789L62.2865 90.8221C62.7601 91.3239 62.7562 92.1333 62.2779 92.63C61.8083 93.1178 61.0559 93.1228 60.5805 92.6479L60.5544 92.621L54.4729 86.1779C53.9994 85.6761 54.0032 84.8667 54.4815 84.3699C54.9511 83.8822 55.7035 83.8772 56.1789 84.3521ZM69.709 84.3521L69.7351 84.3789L75.8166 90.8221C76.2902 91.3239 76.2863 92.1333 75.808 92.63C75.3384 93.1178 74.586 93.1228 74.1106 92.6479L74.0845 92.621L68.003 86.1779C67.5294 85.6761 67.5333 84.8667 68.0116 84.3699C68.4812 83.8822 69.2336 83.8772 69.709 84.3521ZM83.2391 84.3521L83.2652 84.3789L89.3467 90.8221C89.8202 91.3239 89.8164 92.1333 89.3381 92.63C88.8685 93.1178 88.1161 93.1228 87.6407 92.6479L87.6145 92.621L81.5331 86.1779C81.0595 85.6761 81.0634 84.8667 81.5417 84.3699C82.0113 83.8822 82.7637 83.8772 83.2391 84.3521ZM96.7691 84.3521L96.7953 84.3789L102.877 90.8221C103.35 91.3239 103.346 92.1333 102.868 92.63C102.399 93.1178 101.646 93.1228 101.171 92.6479L101.145 92.621L95.0631 86.1779C94.5896 85.6761 94.5934 84.8667 95.0717 84.3699C95.5413 83.8822 96.2937 83.8772 96.7691 84.3521ZM110.299 84.3521L110.325 84.3789L116.407 90.8221C116.88 91.3239 116.877 92.1333 116.398 92.63C115.929 93.1178 115.176 93.1228 114.701 92.6479L114.675 92.621L108.593 86.1779C108.12 85.6761 108.123 84.8667 108.602 84.3699C109.071 83.8822 109.824 83.8772 110.299 84.3521ZM123.829 84.3521L123.855 84.3789L129.937 90.8221C130.41 91.3239 130.407 92.1333 129.928 92.63C129.459 93.1178 128.706 93.1228 128.231 92.6479L128.205 92.621L122.123 86.1779C121.65 85.6761 121.654 84.8667 122.132 84.3699C122.601 83.8822 123.354 83.8772 123.829 84.3521ZM137.359 84.3521L137.385 84.3789L143.467 90.8221C143.94 91.3239 143.937 92.1333 143.458 92.63C142.989 93.1178 142.236 93.1228 141.761 92.6479L141.735 92.621L135.653 86.1779C135.18 85.6761 135.184 84.8667 135.662 84.3699C136.132 83.8822 136.884 83.8772 137.359 84.3521ZM150.889 84.3521L150.916 84.3789L156.997 90.8221C157.471 91.3239 157.467 92.1333 156.988 92.63C156.519 93.1178 155.766 93.1228 155.291 92.6479L155.265 92.621L149.183 86.1779C148.71 85.6761 148.714 84.8667 149.192 84.3699C149.662 83.8822 150.414 83.8772 150.889 84.3521ZM164.419 84.3521L164.446 84.3789L170.527 90.8221C171.001 91.3239 170.997 92.1333 170.518 92.63C170.049 93.1178 169.296 93.1228 168.821 92.6479L168.795 92.621L162.713 86.1779C162.24 85.6761 162.244 84.8667 162.722 84.3699C163.192 83.8822 163.944 83.8772 164.419 84.3521ZM177.95 84.3521L177.976 84.3789L184.057 90.8221C184.531 91.3239 184.527 92.1333 184.049 92.63C183.579 93.1178 182.827 93.1228 182.351 92.6479L182.325 92.621L176.244 86.1779C175.77 85.6761 175.774 84.8667 176.252 84.3699C176.722 83.8822 177.474 83.8772 177.95 84.3521ZM191.48 84.3521L191.506 84.3789L197.587 90.8221C198.061 91.3239 198.057 92.1333 197.579 92.63C197.109 93.1178 196.357 93.1228 195.881 92.6479L195.855 92.621L189.774 86.1779C189.3 85.6761 189.304 84.8667 189.782 84.3699C190.252 83.8822 191.004 83.8772 191.48 84.3521ZM205.01 84.3521L205.036 84.3789L211.117 90.8221C211.591 91.3239 211.587 92.1333 211.109 92.63C210.639 93.1178 209.887 93.1228 209.411 92.6479L209.385 92.621L203.304 86.1779C202.83 85.6761 202.834 84.8667 203.312 84.3699C203.782 83.8822 204.534 83.8772 205.01 84.3521ZM218.54 84.3521L218.566 84.3789L224.647 90.8221C225.121 91.3239 225.117 92.1333 224.639 92.63C224.169 93.1178 223.417 93.1228 222.941 92.6479L222.915 92.621L216.834 86.1779C216.36 85.6761 216.364 84.8667 216.842 84.3699C217.312 83.8822 218.064 83.8772 218.54 84.3521Z" fill="#009DC4"/>
</svg>
