<svg width="77" height="76" viewBox="0 0 77 76" fill="none" xmlns="http://www.w3.org/2000/svg">
<path opacity="0.3" d="M37.2093 6C57.7594 6 75 33.2971 75 53.9781C75 74.6591 57.7594 64.5098 37.2093 64.5098C16.6592 64.5098 -1.2557e-07 64.1273 -1.02957e-06 43.4463C-1.93356e-06 22.7653 16.6592 6 37.2093 6Z" fill="#FFC701"/>
<g clip-path="url(#clip0_3245_2728)">
<path d="M39 30.0833C38.3667 29.2917 37.5486 28.671 36.5459 28.2213C35.5431 27.7738 34.4611 27.55 33.3 27.55C31.4 27.55 29.7639 28.2361 28.3917 29.6084C27.0195 30.9806 26.3334 32.6167 26.3334 34.5167C26.3334 36.1528 26.7419 37.6834 27.5589 39.1084C28.378 40.5334 30.3445 42.6709 33.4584 45.5209L36.8625 48.6875C37.4431 49.2681 38.1556 49.5583 39 49.5583C39.8445 49.5583 40.557 49.2681 41.1375 48.6875L44.4625 45.6C47.5236 42.75 49.4901 40.5861 50.362 39.1084C51.2318 37.6306 51.6667 36.1 51.6667 34.5167C51.6667 32.6167 50.9806 30.9806 49.6084 29.6084C48.2361 28.2361 46.6 27.55 44.7 27.55C43.5917 27.55 42.5235 27.7738 41.4954 28.2213C40.4651 28.671 39.6334 29.2917 39 30.0833ZM39 69.4292H38.2084C37.9445 69.4292 37.707 69.3764 37.4959 69.2709C30.582 67.107 24.882 62.8182 20.3959 56.4047C15.9097 49.9932 13.6667 42.9084 13.6667 35.15V20.1875C13.6667 18.8681 14.0499 17.6806 14.8162 16.625C15.5804 15.5695 16.5695 14.8042 17.7834 14.3292L36.7834 7.20418C37.5222 6.94029 38.2611 6.80835 39 6.80835C39.7389 6.80835 40.4778 6.94029 41.2167 7.20418L60.2167 14.3292C61.4306 14.8042 62.4207 15.5695 63.187 16.625C63.9512 17.6806 64.3334 18.8681 64.3334 20.1875V35.15C64.3334 42.9084 62.0903 49.9932 57.6042 56.4047C53.1181 62.8182 47.4181 67.107 40.5042 69.2709C40.2403 69.3764 39.7389 69.4292 39 69.4292ZM39 63.0167C44.4889 61.275 49.0278 57.7917 52.6167 52.5667C56.2056 47.3417 58 41.5361 58 35.15V20.1875L39 13.0625L20 20.1875V35.15C20 41.5361 21.7945 47.3417 25.3834 52.5667C28.9722 57.7917 33.5111 61.275 39 63.0167Z" fill="black"/>
<path d="M39 30.0834C38.3666 29.2917 37.5486 28.671 36.5458 28.2214C35.543 27.7738 34.4611 27.55 33.3 27.55C31.4 27.55 29.7639 28.2362 28.3916 29.6084C27.0194 30.9806 26.3333 32.6167 26.3333 34.5167C26.3333 36.1528 26.7418 37.6834 27.5588 39.1084C28.3779 40.5334 30.3444 42.6709 33.4583 45.5209L36.8625 48.6876C37.443 49.2681 38.1555 49.5584 39 49.5584C39.8444 49.5584 40.5569 49.2681 41.1375 48.6876L44.4625 45.6C47.5236 42.75 49.4901 40.5862 50.362 39.1084C51.2318 37.6306 51.6666 36.1 51.6666 34.5167C51.6666 32.6167 50.9805 30.9806 49.6083 29.6084C48.2361 28.2362 46.6 27.55 44.7 27.55C43.5916 27.55 42.5234 27.7738 41.4953 28.2214C40.4651 28.671 39.6333 29.2917 39 30.0834Z" fill="#009DC4"/>
</g>
<defs>
<clipPath id="clip0_3245_2728">
<rect width="76" height="76" fill="white" transform="translate(1)"/>
</clipPath>
</defs>
</svg>
