<svg width="87" height="219" viewBox="0 0 87 219" fill="none" xmlns="http://www.w3.org/2000/svg">
<path d="M-135.941 0.352081L-135.915 0.378955L-129.834 6.82214C-129.36 7.32387 -129.364 8.1333 -129.842 8.63006C-130.312 9.11778 -131.064 9.12276 -131.54 8.64792L-131.566 8.62105L-137.647 2.17786C-138.121 1.67613 -138.117 0.866697 -137.639 0.369942C-137.169 -0.117781 -136.417 -0.122759 -135.941 0.352081ZM-122.411 0.352081L-122.385 0.378955L-116.304 6.82214C-115.83 7.32387 -115.834 8.1333 -116.312 8.63006C-116.782 9.11778 -117.534 9.12276 -118.01 8.64792L-118.036 8.62105L-124.117 2.17786C-124.591 1.67613 -124.587 0.866697 -124.109 0.369942C-123.639 -0.117781 -122.887 -0.122759 -122.411 0.352081ZM-108.881 0.352081L-108.855 0.378955L-102.774 6.82214C-102.3 7.32387 -102.304 8.1333 -102.782 8.63006C-103.252 9.11778 -104.004 9.12276 -104.48 8.64792L-104.506 8.62105L-110.587 2.17786C-111.061 1.67613 -111.057 0.866697 -110.579 0.369942C-110.109 -0.117781 -109.357 -0.122759 -108.881 0.352081ZM-95.3511 0.352081L-95.325 0.378955L-89.2435 6.82214C-88.77 7.32387 -88.7738 8.1333 -89.2521 8.63006C-89.7217 9.11778 -90.4741 9.12276 -90.9495 8.64792L-90.9757 8.62105L-97.0571 2.17786C-97.5307 1.67613 -97.5268 0.866697 -97.0485 0.369942C-96.5789 -0.117781 -95.8265 -0.122759 -95.3511 0.352081ZM-81.8211 0.352081L-81.7949 0.378955L-75.7135 6.82214C-75.2399 7.32387 -75.2438 8.1333 -75.7221 8.63006C-76.1917 9.11778 -76.9441 9.12276 -77.4195 8.64792L-77.4456 8.62105L-83.5271 2.17786C-84.0006 1.67613 -83.9968 0.866697 -83.5185 0.369942C-83.0489 -0.117781 -82.2965 -0.122759 -81.8211 0.352081ZM-68.291 0.352081L-68.2649 0.378955L-62.1834 6.82214C-61.7098 7.32387 -61.7137 8.1333 -62.192 8.63006C-62.6616 9.11778 -63.414 9.12276 -63.8894 8.64792L-63.9155 8.62105L-69.997 2.17786C-70.4706 1.67613 -70.4667 0.866697 -69.9884 0.369942C-69.5188 -0.117781 -68.7664 -0.122759 -68.291 0.352081ZM-54.7609 0.352081L-54.7348 0.378955L-48.6533 6.82214C-48.1798 7.32387 -48.1836 8.1333 -48.6619 8.63006C-49.1315 9.11778 -49.8839 9.12276 -50.3593 8.64792L-50.3855 8.62105L-56.4669 2.17786C-56.9405 1.67613 -56.9366 0.866697 -56.4583 0.369942C-55.9887 -0.117781 -55.2363 -0.122759 -54.7609 0.352081ZM-41.2309 0.352081L-41.2047 0.378955L-35.1233 6.82214C-34.6497 7.32387 -34.6536 8.1333 -35.1319 8.63006C-35.6015 9.11778 -36.3539 9.12276 -36.8293 8.64792L-36.8554 8.62105L-42.9369 2.17786C-43.4104 1.67613 -43.4066 0.866697 -42.9283 0.369942C-42.4587 -0.117781 -41.7063 -0.122759 -41.2309 0.352081ZM-27.7008 0.352081L-27.6747 0.378955L-21.5932 6.82214C-21.1196 7.32387 -21.1235 8.1333 -21.6018 8.63006C-22.0714 9.11778 -22.8238 9.12276 -23.2992 8.64792L-23.3253 8.62105L-29.4068 2.17786C-29.8804 1.67613 -29.8765 0.866697 -29.3982 0.369942C-28.9286 -0.117781 -28.1762 -0.122759 -27.7008 0.352081ZM-14.1707 0.352081L-14.1446 0.378955L-8.06314 6.82214C-7.58957 7.32387 -7.59341 8.1333 -8.07173 8.63006C-8.54135 9.11778 -9.29373 9.12276 -9.76913 8.64792L-9.79526 8.62105L-15.8767 2.17786C-16.3503 1.67613 -16.3464 0.866697 -15.8681 0.369942C-15.3985 -0.117781 -14.6461 -0.122759 -14.1707 0.352081ZM-0.640671 0.352081L-0.614548 0.378955L5.46692 6.82214C5.94049 7.32387 5.93665 8.1333 5.45833 8.63006C4.98871 9.11778 4.23633 9.12276 3.76093 8.64792L3.73482 8.62105L-2.34666 2.17786C-2.82024 1.67613 -2.81639 0.866697 -2.33807 0.369942C-1.86845 -0.117781 -1.11607 -0.122759 -0.640671 0.352081ZM12.8894 0.352081L12.9155 0.378955L18.997 6.82214C19.4706 7.32387 19.4667 8.1333 18.9884 8.63006C18.5188 9.11778 17.7664 9.12276 17.291 8.64792L17.2649 8.62105L11.1834 2.17786C10.7098 1.67613 10.7137 0.866697 11.192 0.369942C11.6616 -0.117781 12.414 -0.122759 12.8894 0.352081ZM26.4195 0.352081L26.4456 0.378955L32.5271 6.82214C33.0006 7.32387 32.9968 8.1333 32.5185 8.63006C32.0488 9.11778 31.2965 9.12276 30.8211 8.64792L30.7949 8.62105L24.7135 2.17786C24.2399 1.67613 24.2437 0.866697 24.7221 0.369942C25.1917 -0.117781 25.9441 -0.122759 26.4195 0.352081ZM39.9495 0.352081L39.9757 0.378955L46.0571 6.82214C46.5307 7.32387 46.5269 8.1333 46.0485 8.63006C45.5789 9.11778 44.8265 9.12276 44.3511 8.64792L44.325 8.62105L38.2435 2.17786C37.77 1.67613 37.7738 0.866697 38.2521 0.369942C38.7218 -0.117781 39.4741 -0.122759 39.9495 0.352081ZM53.4796 0.352081L53.5057 0.378955L59.5872 6.82214C60.0608 7.32387 60.0569 8.1333 59.5786 8.63006C59.109 9.11778 58.3566 9.12276 57.8812 8.64792L57.8551 8.62105L51.7736 2.17786C51.3 1.67613 51.3039 0.866697 51.7822 0.369942C52.2518 -0.117781 53.0042 -0.122759 53.4796 0.352081ZM67.0097 0.352081L67.0358 0.378955L73.1173 6.82214C73.5908 7.32387 73.587 8.1333 73.1087 8.63006C72.6391 9.11778 71.8867 9.12276 71.4113 8.64792L71.3851 8.62105L65.3037 2.17786C64.8301 1.67613 64.834 0.866697 65.3123 0.369942C65.7819 -0.117781 66.5343 -0.122759 67.0097 0.352081ZM80.5397 0.352081L80.5659 0.378955L86.6473 6.82214C87.1209 7.32387 87.1171 8.1333 86.6387 8.63006C86.1691 9.11778 85.4167 9.12276 84.9413 8.64792L84.9152 8.62105L78.8337 2.17786C78.3602 1.67613 78.364 0.866697 78.8423 0.369942C79.312 -0.117781 80.0643 -0.122759 80.5397 0.352081Z" fill="#009DC4"/>
<path d="M-135.941 14.3521L-135.915 14.379L-129.834 20.8221C-129.36 21.3239 -129.364 22.1333 -129.842 22.6301C-130.312 23.1178 -131.064 23.1228 -131.54 22.6479L-131.566 22.621L-137.647 16.1779C-138.121 15.6761 -138.117 14.8667 -137.639 14.3699C-137.169 13.8822 -136.417 13.8772 -135.941 14.3521ZM-122.411 14.3521L-122.385 14.379L-116.304 20.8221C-115.83 21.3239 -115.834 22.1333 -116.312 22.6301C-116.782 23.1178 -117.534 23.1228 -118.01 22.6479L-118.036 22.621L-124.117 16.1779C-124.591 15.6761 -124.587 14.8667 -124.109 14.3699C-123.639 13.8822 -122.887 13.8772 -122.411 14.3521ZM-108.881 14.3521L-108.855 14.379L-102.774 20.8221C-102.3 21.3239 -102.304 22.1333 -102.782 22.6301C-103.252 23.1178 -104.004 23.1228 -104.48 22.6479L-104.506 22.621L-110.587 16.1779C-111.061 15.6761 -111.057 14.8667 -110.579 14.3699C-110.109 13.8822 -109.357 13.8772 -108.881 14.3521ZM-95.3511 14.3521L-95.325 14.379L-89.2435 20.8221C-88.77 21.3239 -88.7738 22.1333 -89.2521 22.6301C-89.7217 23.1178 -90.4741 23.1228 -90.9495 22.6479L-90.9757 22.621L-97.0571 16.1779C-97.5307 15.6761 -97.5268 14.8667 -97.0485 14.3699C-96.5789 13.8822 -95.8265 13.8772 -95.3511 14.3521ZM-81.8211 14.3521L-81.7949 14.379L-75.7135 20.8221C-75.2399 21.3239 -75.2438 22.1333 -75.7221 22.6301C-76.1917 23.1178 -76.9441 23.1228 -77.4195 22.6479L-77.4456 22.621L-83.5271 16.1779C-84.0006 15.6761 -83.9968 14.8667 -83.5185 14.3699C-83.0489 13.8822 -82.2965 13.8772 -81.8211 14.3521ZM-68.291 14.3521L-68.2649 14.379L-62.1834 20.8221C-61.7098 21.3239 -61.7137 22.1333 -62.192 22.6301C-62.6616 23.1178 -63.414 23.1228 -63.8894 22.6479L-63.9155 22.621L-69.997 16.1779C-70.4706 15.6761 -70.4667 14.8667 -69.9884 14.3699C-69.5188 13.8822 -68.7664 13.8772 -68.291 14.3521ZM-54.7609 14.3521L-54.7348 14.379L-48.6533 20.8221C-48.1798 21.3239 -48.1836 22.1333 -48.6619 22.6301C-49.1315 23.1178 -49.8839 23.1228 -50.3593 22.6479L-50.3855 22.621L-56.4669 16.1779C-56.9405 15.6761 -56.9366 14.8667 -56.4583 14.3699C-55.9887 13.8822 -55.2363 13.8772 -54.7609 14.3521ZM-41.2309 14.3521L-41.2047 14.379L-35.1233 20.8221C-34.6497 21.3239 -34.6536 22.1333 -35.1319 22.6301C-35.6015 23.1178 -36.3539 23.1228 -36.8293 22.6479L-36.8554 22.621L-42.9369 16.1779C-43.4104 15.6761 -43.4066 14.8667 -42.9283 14.3699C-42.4587 13.8822 -41.7063 13.8772 -41.2309 14.3521ZM-27.7008 14.3521L-27.6747 14.379L-21.5932 20.8221C-21.1196 21.3239 -21.1235 22.1333 -21.6018 22.6301C-22.0714 23.1178 -22.8238 23.1228 -23.2992 22.6479L-23.3253 22.621L-29.4068 16.1779C-29.8804 15.6761 -29.8765 14.8667 -29.3982 14.3699C-28.9286 13.8822 -28.1762 13.8772 -27.7008 14.3521ZM-14.1707 14.3521L-14.1446 14.379L-8.06314 20.8221C-7.58957 21.3239 -7.59341 22.1333 -8.07173 22.6301C-8.54135 23.1178 -9.29373 23.1228 -9.76913 22.6479L-9.79526 22.621L-15.8767 16.1779C-16.3503 15.6761 -16.3464 14.8667 -15.8681 14.3699C-15.3985 13.8822 -14.6461 13.8772 -14.1707 14.3521ZM-0.640671 14.3521L-0.614548 14.379L5.46692 20.8221C5.94049 21.3239 5.93665 22.1333 5.45833 22.6301C4.98871 23.1178 4.23633 23.1228 3.76093 22.6479L3.73482 22.621L-2.34666 16.1779C-2.82024 15.6761 -2.81639 14.8667 -2.33807 14.3699C-1.86845 13.8822 -1.11607 13.8772 -0.640671 14.3521ZM12.8894 14.3521L12.9155 14.379L18.997 20.8221C19.4706 21.3239 19.4667 22.1333 18.9884 22.6301C18.5188 23.1178 17.7664 23.1228 17.291 22.6479L17.2649 22.621L11.1834 16.1779C10.7098 15.6761 10.7137 14.8667 11.192 14.3699C11.6616 13.8822 12.414 13.8772 12.8894 14.3521ZM26.4195 14.3521L26.4456 14.379L32.5271 20.8221C33.0006 21.3239 32.9968 22.1333 32.5185 22.6301C32.0488 23.1178 31.2965 23.1228 30.8211 22.6479L30.7949 22.621L24.7135 16.1779C24.2399 15.6761 24.2437 14.8667 24.7221 14.3699C25.1917 13.8822 25.9441 13.8772 26.4195 14.3521ZM39.9495 14.3521L39.9757 14.379L46.0571 20.8221C46.5307 21.3239 46.5269 22.1333 46.0485 22.6301C45.5789 23.1178 44.8265 23.1228 44.3511 22.6479L44.325 22.621L38.2435 16.1779C37.77 15.6761 37.7738 14.8667 38.2521 14.3699C38.7218 13.8822 39.4741 13.8772 39.9495 14.3521ZM53.4796 14.3521L53.5057 14.379L59.5872 20.8221C60.0608 21.3239 60.0569 22.1333 59.5786 22.6301C59.109 23.1178 58.3566 23.1228 57.8812 22.6479L57.8551 22.621L51.7736 16.1779C51.3 15.6761 51.3039 14.8667 51.7822 14.3699C52.2518 13.8822 53.0042 13.8772 53.4796 14.3521ZM67.0097 14.3521L67.0358 14.379L73.1173 20.8221C73.5908 21.3239 73.587 22.1333 73.1087 22.6301C72.6391 23.1178 71.8867 23.1228 71.4113 22.6479L71.3851 22.621L65.3037 16.1779C64.8301 15.6761 64.834 14.8667 65.3123 14.3699C65.7819 13.8822 66.5343 13.8772 67.0097 14.3521ZM80.5397 14.3521L80.5659 14.379L86.6473 20.8221C87.1209 21.3239 87.1171 22.1333 86.6387 22.6301C86.1691 23.1178 85.4167 23.1228 84.9413 22.6479L84.9152 22.621L78.8337 16.1779C78.3602 15.6761 78.364 14.8667 78.8423 14.3699C79.312 13.8822 80.0643 13.8772 80.5397 14.3521Z" fill="#009DC4"/>
<path d="M-135.941 28.3521L-135.915 28.379L-129.834 34.8221C-129.36 35.3239 -129.364 36.1333 -129.842 36.6301C-130.312 37.1178 -131.064 37.1228 -131.54 36.6479L-131.566 36.621L-137.647 30.1779C-138.121 29.6761 -138.117 28.8667 -137.639 28.3699C-137.169 27.8822 -136.417 27.8772 -135.941 28.3521ZM-122.411 28.3521L-122.385 28.379L-116.304 34.8221C-115.83 35.3239 -115.834 36.1333 -116.312 36.6301C-116.782 37.1178 -117.534 37.1228 -118.01 36.6479L-118.036 36.621L-124.117 30.1779C-124.591 29.6761 -124.587 28.8667 -124.109 28.3699C-123.639 27.8822 -122.887 27.8772 -122.411 28.3521ZM-108.881 28.3521L-108.855 28.379L-102.774 34.8221C-102.3 35.3239 -102.304 36.1333 -102.782 36.6301C-103.252 37.1178 -104.004 37.1228 -104.48 36.6479L-104.506 36.621L-110.587 30.1779C-111.061 29.6761 -111.057 28.8667 -110.579 28.3699C-110.109 27.8822 -109.357 27.8772 -108.881 28.3521ZM-95.3511 28.3521L-95.325 28.379L-89.2435 34.8221C-88.77 35.3239 -88.7738 36.1333 -89.2521 36.6301C-89.7217 37.1178 -90.4741 37.1228 -90.9495 36.6479L-90.9757 36.621L-97.0571 30.1779C-97.5307 29.6761 -97.5268 28.8667 -97.0485 28.3699C-96.5789 27.8822 -95.8265 27.8772 -95.3511 28.3521ZM-81.8211 28.3521L-81.7949 28.379L-75.7135 34.8221C-75.2399 35.3239 -75.2438 36.1333 -75.7221 36.6301C-76.1917 37.1178 -76.9441 37.1228 -77.4195 36.6479L-77.4456 36.621L-83.5271 30.1779C-84.0006 29.6761 -83.9968 28.8667 -83.5185 28.3699C-83.0489 27.8822 -82.2965 27.8772 -81.8211 28.3521ZM-68.291 28.3521L-68.2649 28.379L-62.1834 34.8221C-61.7098 35.3239 -61.7137 36.1333 -62.192 36.6301C-62.6616 37.1178 -63.414 37.1228 -63.8894 36.6479L-63.9155 36.621L-69.997 30.1779C-70.4706 29.6761 -70.4667 28.8667 -69.9884 28.3699C-69.5188 27.8822 -68.7664 27.8772 -68.291 28.3521ZM-54.7609 28.3521L-54.7348 28.379L-48.6533 34.8221C-48.1798 35.3239 -48.1836 36.1333 -48.6619 36.6301C-49.1315 37.1178 -49.8839 37.1228 -50.3593 36.6479L-50.3855 36.621L-56.4669 30.1779C-56.9405 29.6761 -56.9366 28.8667 -56.4583 28.3699C-55.9887 27.8822 -55.2363 27.8772 -54.7609 28.3521ZM-41.2309 28.3521L-41.2047 28.379L-35.1233 34.8221C-34.6497 35.3239 -34.6536 36.1333 -35.1319 36.6301C-35.6015 37.1178 -36.3539 37.1228 -36.8293 36.6479L-36.8554 36.621L-42.9369 30.1779C-43.4104 29.6761 -43.4066 28.8667 -42.9283 28.3699C-42.4587 27.8822 -41.7063 27.8772 -41.2309 28.3521ZM-27.7008 28.3521L-27.6747 28.379L-21.5932 34.8221C-21.1196 35.3239 -21.1235 36.1333 -21.6018 36.6301C-22.0714 37.1178 -22.8238 37.1228 -23.2992 36.6479L-23.3253 36.621L-29.4068 30.1779C-29.8804 29.6761 -29.8765 28.8667 -29.3982 28.3699C-28.9286 27.8822 -28.1762 27.8772 -27.7008 28.3521ZM-14.1707 28.3521L-14.1446 28.379L-8.06314 34.8221C-7.58957 35.3239 -7.59341 36.1333 -8.07173 36.6301C-8.54135 37.1178 -9.29373 37.1228 -9.76913 36.6479L-9.79526 36.621L-15.8767 30.1779C-16.3503 29.6761 -16.3464 28.8667 -15.8681 28.3699C-15.3985 27.8822 -14.6461 27.8772 -14.1707 28.3521ZM-0.640671 28.3521L-0.614548 28.379L5.46692 34.8221C5.94049 35.3239 5.93665 36.1333 5.45833 36.6301C4.98871 37.1178 4.23633 37.1228 3.76093 36.6479L3.73482 36.621L-2.34666 30.1779C-2.82024 29.6761 -2.81639 28.8667 -2.33807 28.3699C-1.86845 27.8822 -1.11607 27.8772 -0.640671 28.3521ZM12.8894 28.3521L12.9155 28.379L18.997 34.8221C19.4706 35.3239 19.4667 36.1333 18.9884 36.6301C18.5188 37.1178 17.7664 37.1228 17.291 36.6479L17.2649 36.621L11.1834 30.1779C10.7098 29.6761 10.7137 28.8667 11.192 28.3699C11.6616 27.8822 12.414 27.8772 12.8894 28.3521ZM26.4195 28.3521L26.4456 28.379L32.5271 34.8221C33.0006 35.3239 32.9968 36.1333 32.5185 36.6301C32.0488 37.1178 31.2965 37.1228 30.8211 36.6479L30.7949 36.621L24.7135 30.1779C24.2399 29.6761 24.2437 28.8667 24.7221 28.3699C25.1917 27.8822 25.9441 27.8772 26.4195 28.3521ZM39.9495 28.3521L39.9757 28.379L46.0571 34.8221C46.5307 35.3239 46.5269 36.1333 46.0485 36.6301C45.5789 37.1178 44.8265 37.1228 44.3511 36.6479L44.325 36.621L38.2435 30.1779C37.77 29.6761 37.7738 28.8667 38.2521 28.3699C38.7218 27.8822 39.4741 27.8772 39.9495 28.3521ZM53.4796 28.3521L53.5057 28.379L59.5872 34.8221C60.0608 35.3239 60.0569 36.1333 59.5786 36.6301C59.109 37.1178 58.3566 37.1228 57.8812 36.6479L57.8551 36.621L51.7736 30.1779C51.3 29.6761 51.3039 28.8667 51.7822 28.3699C52.2518 27.8822 53.0042 27.8772 53.4796 28.3521ZM67.0097 28.3521L67.0358 28.379L73.1173 34.8221C73.5908 35.3239 73.587 36.1333 73.1087 36.6301C72.6391 37.1178 71.8867 37.1228 71.4113 36.6479L71.3851 36.621L65.3037 30.1779C64.8301 29.6761 64.834 28.8667 65.3123 28.3699C65.7819 27.8822 66.5343 27.8772 67.0097 28.3521ZM80.5397 28.3521L80.5659 28.379L86.6473 34.8221C87.1209 35.3239 87.1171 36.1333 86.6387 36.6301C86.1691 37.1178 85.4167 37.1228 84.9413 36.6479L84.9152 36.621L78.8337 30.1779C78.3602 29.6761 78.364 28.8667 78.8423 28.3699C79.312 27.8822 80.0643 27.8772 80.5397 28.3521Z" fill="#009DC4"/>
<path d="M-135.941 42.3521L-135.915 42.379L-129.834 48.8221C-129.36 49.3239 -129.364 50.1333 -129.842 50.6301C-130.312 51.1178 -131.064 51.1228 -131.54 50.6479L-131.566 50.621L-137.647 44.1779C-138.121 43.6761 -138.117 42.8667 -137.639 42.3699C-137.169 41.8822 -136.417 41.8772 -135.941 42.3521ZM-122.411 42.3521L-122.385 42.379L-116.304 48.8221C-115.83 49.3239 -115.834 50.1333 -116.312 50.6301C-116.782 51.1178 -117.534 51.1228 -118.01 50.6479L-118.036 50.621L-124.117 44.1779C-124.591 43.6761 -124.587 42.8667 -124.109 42.3699C-123.639 41.8822 -122.887 41.8772 -122.411 42.3521ZM-108.881 42.3521L-108.855 42.379L-102.774 48.8221C-102.3 49.3239 -102.304 50.1333 -102.782 50.6301C-103.252 51.1178 -104.004 51.1228 -104.48 50.6479L-104.506 50.621L-110.587 44.1779C-111.061 43.6761 -111.057 42.8667 -110.579 42.3699C-110.109 41.8822 -109.357 41.8772 -108.881 42.3521ZM-95.3511 42.3521L-95.325 42.379L-89.2435 48.8221C-88.77 49.3239 -88.7738 50.1333 -89.2521 50.6301C-89.7217 51.1178 -90.4741 51.1228 -90.9495 50.6479L-90.9757 50.621L-97.0571 44.1779C-97.5307 43.6761 -97.5268 42.8667 -97.0485 42.3699C-96.5789 41.8822 -95.8265 41.8772 -95.3511 42.3521ZM-81.8211 42.3521L-81.7949 42.379L-75.7135 48.8221C-75.2399 49.3239 -75.2438 50.1333 -75.7221 50.6301C-76.1917 51.1178 -76.9441 51.1228 -77.4195 50.6479L-77.4456 50.621L-83.5271 44.1779C-84.0006 43.6761 -83.9968 42.8667 -83.5185 42.3699C-83.0489 41.8822 -82.2965 41.8772 -81.8211 42.3521ZM-68.291 42.3521L-68.2649 42.379L-62.1834 48.8221C-61.7098 49.3239 -61.7137 50.1333 -62.192 50.6301C-62.6616 51.1178 -63.414 51.1228 -63.8894 50.6479L-63.9155 50.621L-69.997 44.1779C-70.4706 43.6761 -70.4667 42.8667 -69.9884 42.3699C-69.5188 41.8822 -68.7664 41.8772 -68.291 42.3521ZM-54.7609 42.3521L-54.7348 42.379L-48.6533 48.8221C-48.1798 49.3239 -48.1836 50.1333 -48.6619 50.6301C-49.1315 51.1178 -49.8839 51.1228 -50.3593 50.6479L-50.3855 50.621L-56.4669 44.1779C-56.9405 43.6761 -56.9366 42.8667 -56.4583 42.3699C-55.9887 41.8822 -55.2363 41.8772 -54.7609 42.3521ZM-41.2309 42.3521L-41.2047 42.379L-35.1233 48.8221C-34.6497 49.3239 -34.6536 50.1333 -35.1319 50.6301C-35.6015 51.1178 -36.3539 51.1228 -36.8293 50.6479L-36.8554 50.621L-42.9369 44.1779C-43.4104 43.6761 -43.4066 42.8667 -42.9283 42.3699C-42.4587 41.8822 -41.7063 41.8772 -41.2309 42.3521ZM-27.7008 42.3521L-27.6747 42.379L-21.5932 48.8221C-21.1196 49.3239 -21.1235 50.1333 -21.6018 50.6301C-22.0714 51.1178 -22.8238 51.1228 -23.2992 50.6479L-23.3253 50.621L-29.4068 44.1779C-29.8804 43.6761 -29.8765 42.8667 -29.3982 42.3699C-28.9286 41.8822 -28.1762 41.8772 -27.7008 42.3521ZM-14.1707 42.3521L-14.1446 42.379L-8.06314 48.8221C-7.58957 49.3239 -7.59341 50.1333 -8.07173 50.6301C-8.54135 51.1178 -9.29373 51.1228 -9.76913 50.6479L-9.79526 50.621L-15.8767 44.1779C-16.3503 43.6761 -16.3464 42.8667 -15.8681 42.3699C-15.3985 41.8822 -14.6461 41.8772 -14.1707 42.3521ZM-0.640671 42.3521L-0.614548 42.379L5.46692 48.8221C5.94049 49.3239 5.93665 50.1333 5.45833 50.6301C4.98871 51.1178 4.23633 51.1228 3.76093 50.6479L3.73482 50.621L-2.34666 44.1779C-2.82024 43.6761 -2.81639 42.8667 -2.33807 42.3699C-1.86845 41.8822 -1.11607 41.8772 -0.640671 42.3521ZM12.8894 42.3521L12.9155 42.379L18.997 48.8221C19.4706 49.3239 19.4667 50.1333 18.9884 50.6301C18.5188 51.1178 17.7664 51.1228 17.291 50.6479L17.2649 50.621L11.1834 44.1779C10.7098 43.6761 10.7137 42.8667 11.192 42.3699C11.6616 41.8822 12.414 41.8772 12.8894 42.3521ZM26.4195 42.3521L26.4456 42.379L32.5271 48.8221C33.0006 49.3239 32.9968 50.1333 32.5185 50.6301C32.0488 51.1178 31.2965 51.1228 30.8211 50.6479L30.7949 50.621L24.7135 44.1779C24.2399 43.6761 24.2437 42.8667 24.7221 42.3699C25.1917 41.8822 25.9441 41.8772 26.4195 42.3521ZM39.9495 42.3521L39.9757 42.379L46.0571 48.8221C46.5307 49.3239 46.5269 50.1333 46.0485 50.6301C45.5789 51.1178 44.8265 51.1228 44.3511 50.6479L44.325 50.621L38.2435 44.1779C37.77 43.6761 37.7738 42.8667 38.2521 42.3699C38.7218 41.8822 39.4741 41.8772 39.9495 42.3521ZM53.4796 42.3521L53.5057 42.379L59.5872 48.8221C60.0608 49.3239 60.0569 50.1333 59.5786 50.6301C59.109 51.1178 58.3566 51.1228 57.8812 50.6479L57.8551 50.621L51.7736 44.1779C51.3 43.6761 51.3039 42.8667 51.7822 42.3699C52.2518 41.8822 53.0042 41.8772 53.4796 42.3521ZM67.0097 42.3521L67.0358 42.379L73.1173 48.8221C73.5908 49.3239 73.587 50.1333 73.1087 50.6301C72.6391 51.1178 71.8867 51.1228 71.4113 50.6479L71.3851 50.621L65.3037 44.1779C64.8301 43.6761 64.834 42.8667 65.3123 42.3699C65.7819 41.8822 66.5343 41.8772 67.0097 42.3521ZM80.5397 42.3521L80.5659 42.379L86.6473 48.8221C87.1209 49.3239 87.1171 50.1333 86.6387 50.6301C86.1691 51.1178 85.4167 51.1228 84.9413 50.6479L84.9152 50.621L78.8337 44.1779C78.3602 43.6761 78.364 42.8667 78.8423 42.3699C79.312 41.8822 80.0643 41.8772 80.5397 42.3521Z" fill="#009DC4"/>
<path d="M-135.941 56.3521L-135.915 56.379L-129.834 62.8221C-129.36 63.3239 -129.364 64.1333 -129.842 64.6301C-130.312 65.1178 -131.064 65.1228 -131.54 64.6479L-131.566 64.621L-137.647 58.1779C-138.121 57.6761 -138.117 56.8667 -137.639 56.3699C-137.169 55.8822 -136.417 55.8772 -135.941 56.3521ZM-122.411 56.3521L-122.385 56.379L-116.304 62.8221C-115.83 63.3239 -115.834 64.1333 -116.312 64.6301C-116.782 65.1178 -117.534 65.1228 -118.01 64.6479L-118.036 64.621L-124.117 58.1779C-124.591 57.6761 -124.587 56.8667 -124.109 56.3699C-123.639 55.8822 -122.887 55.8772 -122.411 56.3521ZM-108.881 56.3521L-108.855 56.379L-102.774 62.8221C-102.3 63.3239 -102.304 64.1333 -102.782 64.6301C-103.252 65.1178 -104.004 65.1228 -104.48 64.6479L-104.506 64.621L-110.587 58.1779C-111.061 57.6761 -111.057 56.8667 -110.579 56.3699C-110.109 55.8822 -109.357 55.8772 -108.881 56.3521ZM-95.3511 56.3521L-95.325 56.379L-89.2435 62.8221C-88.77 63.3239 -88.7738 64.1333 -89.2521 64.6301C-89.7217 65.1178 -90.4741 65.1228 -90.9495 64.6479L-90.9757 64.621L-97.0571 58.1779C-97.5307 57.6761 -97.5268 56.8667 -97.0485 56.3699C-96.5789 55.8822 -95.8265 55.8772 -95.3511 56.3521ZM-81.8211 56.3521L-81.7949 56.379L-75.7135 62.8221C-75.2399 63.3239 -75.2438 64.1333 -75.7221 64.6301C-76.1917 65.1178 -76.9441 65.1228 -77.4195 64.6479L-77.4456 64.621L-83.5271 58.1779C-84.0006 57.6761 -83.9968 56.8667 -83.5185 56.3699C-83.0489 55.8822 -82.2965 55.8772 -81.8211 56.3521ZM-68.291 56.3521L-68.2649 56.379L-62.1834 62.8221C-61.7098 63.3239 -61.7137 64.1333 -62.192 64.6301C-62.6616 65.1178 -63.414 65.1228 -63.8894 64.6479L-63.9155 64.621L-69.997 58.1779C-70.4706 57.6761 -70.4667 56.8667 -69.9884 56.3699C-69.5188 55.8822 -68.7664 55.8772 -68.291 56.3521ZM-54.7609 56.3521L-54.7348 56.379L-48.6533 62.8221C-48.1798 63.3239 -48.1836 64.1333 -48.6619 64.6301C-49.1315 65.1178 -49.8839 65.1228 -50.3593 64.6479L-50.3855 64.621L-56.4669 58.1779C-56.9405 57.6761 -56.9366 56.8667 -56.4583 56.3699C-55.9887 55.8822 -55.2363 55.8772 -54.7609 56.3521ZM-41.2309 56.3521L-41.2047 56.379L-35.1233 62.8221C-34.6497 63.3239 -34.6536 64.1333 -35.1319 64.6301C-35.6015 65.1178 -36.3539 65.1228 -36.8293 64.6479L-36.8554 64.621L-42.9369 58.1779C-43.4104 57.6761 -43.4066 56.8667 -42.9283 56.3699C-42.4587 55.8822 -41.7063 55.8772 -41.2309 56.3521ZM-27.7008 56.3521L-27.6747 56.379L-21.5932 62.8221C-21.1196 63.3239 -21.1235 64.1333 -21.6018 64.6301C-22.0714 65.1178 -22.8238 65.1228 -23.2992 64.6479L-23.3253 64.621L-29.4068 58.1779C-29.8804 57.6761 -29.8765 56.8667 -29.3982 56.3699C-28.9286 55.8822 -28.1762 55.8772 -27.7008 56.3521ZM-14.1707 56.3521L-14.1446 56.379L-8.06314 62.8221C-7.58957 63.3239 -7.59341 64.1333 -8.07173 64.6301C-8.54135 65.1178 -9.29373 65.1228 -9.76913 64.6479L-9.79526 64.621L-15.8767 58.1779C-16.3503 57.6761 -16.3464 56.8667 -15.8681 56.3699C-15.3985 55.8822 -14.6461 55.8772 -14.1707 56.3521ZM-0.640671 56.3521L-0.614548 56.379L5.46692 62.8221C5.94049 63.3239 5.93665 64.1333 5.45833 64.6301C4.98871 65.1178 4.23633 65.1228 3.76093 64.6479L3.73482 64.621L-2.34666 58.1779C-2.82024 57.6761 -2.81639 56.8667 -2.33807 56.3699C-1.86845 55.8822 -1.11607 55.8772 -0.640671 56.3521ZM12.8894 56.3521L12.9155 56.379L18.997 62.8221C19.4706 63.3239 19.4667 64.1333 18.9884 64.6301C18.5188 65.1178 17.7664 65.1228 17.291 64.6479L17.2649 64.621L11.1834 58.1779C10.7098 57.6761 10.7137 56.8667 11.192 56.3699C11.6616 55.8822 12.414 55.8772 12.8894 56.3521ZM26.4195 56.3521L26.4456 56.379L32.5271 62.8221C33.0006 63.3239 32.9968 64.1333 32.5185 64.6301C32.0488 65.1178 31.2965 65.1228 30.8211 64.6479L30.7949 64.621L24.7135 58.1779C24.2399 57.6761 24.2437 56.8667 24.7221 56.3699C25.1917 55.8822 25.9441 55.8772 26.4195 56.3521ZM39.9495 56.3521L39.9757 56.379L46.0571 62.8221C46.5307 63.3239 46.5269 64.1333 46.0485 64.6301C45.5789 65.1178 44.8265 65.1228 44.3511 64.6479L44.325 64.621L38.2435 58.1779C37.77 57.6761 37.7738 56.8667 38.2521 56.3699C38.7218 55.8822 39.4741 55.8772 39.9495 56.3521ZM53.4796 56.3521L53.5057 56.379L59.5872 62.8221C60.0608 63.3239 60.0569 64.1333 59.5786 64.6301C59.109 65.1178 58.3566 65.1228 57.8812 64.6479L57.8551 64.621L51.7736 58.1779C51.3 57.6761 51.3039 56.8667 51.7822 56.3699C52.2518 55.8822 53.0042 55.8772 53.4796 56.3521ZM67.0097 56.3521L67.0358 56.379L73.1173 62.8221C73.5908 63.3239 73.587 64.1333 73.1087 64.6301C72.6391 65.1178 71.8867 65.1228 71.4113 64.6479L71.3851 64.621L65.3037 58.1779C64.8301 57.6761 64.834 56.8667 65.3123 56.3699C65.7819 55.8822 66.5343 55.8772 67.0097 56.3521ZM80.5397 56.3521L80.5659 56.379L86.6473 62.8221C87.1209 63.3239 87.1171 64.1333 86.6387 64.6301C86.1691 65.1178 85.4167 65.1228 84.9413 64.6479L84.9152 64.621L78.8337 58.1779C78.3602 57.6761 78.364 56.8667 78.8423 56.3699C79.312 55.8822 80.0643 55.8772 80.5397 56.3521Z" fill="#009DC4"/>
<path d="M-135.941 70.3521L-135.915 70.379L-129.834 76.8221C-129.36 77.3239 -129.364 78.1333 -129.842 78.6301C-130.312 79.1178 -131.064 79.1228 -131.54 78.6479L-131.566 78.621L-137.647 72.1779C-138.121 71.6761 -138.117 70.8667 -137.639 70.3699C-137.169 69.8822 -136.417 69.8772 -135.941 70.3521ZM-122.411 70.3521L-122.385 70.379L-116.304 76.8221C-115.83 77.3239 -115.834 78.1333 -116.312 78.6301C-116.782 79.1178 -117.534 79.1228 -118.01 78.6479L-118.036 78.621L-124.117 72.1779C-124.591 71.6761 -124.587 70.8667 -124.109 70.3699C-123.639 69.8822 -122.887 69.8772 -122.411 70.3521ZM-108.881 70.3521L-108.855 70.379L-102.774 76.8221C-102.3 77.3239 -102.304 78.1333 -102.782 78.6301C-103.252 79.1178 -104.004 79.1228 -104.48 78.6479L-104.506 78.621L-110.587 72.1779C-111.061 71.6761 -111.057 70.8667 -110.579 70.3699C-110.109 69.8822 -109.357 69.8772 -108.881 70.3521ZM-95.3511 70.3521L-95.325 70.379L-89.2435 76.8221C-88.77 77.3239 -88.7738 78.1333 -89.2521 78.6301C-89.7217 79.1178 -90.4741 79.1228 -90.9495 78.6479L-90.9757 78.621L-97.0571 72.1779C-97.5307 71.6761 -97.5268 70.8667 -97.0485 70.3699C-96.5789 69.8822 -95.8265 69.8772 -95.3511 70.3521ZM-81.8211 70.3521L-81.7949 70.379L-75.7135 76.8221C-75.2399 77.3239 -75.2438 78.1333 -75.7221 78.6301C-76.1917 79.1178 -76.9441 79.1228 -77.4195 78.6479L-77.4456 78.621L-83.5271 72.1779C-84.0006 71.6761 -83.9968 70.8667 -83.5185 70.3699C-83.0489 69.8822 -82.2965 69.8772 -81.8211 70.3521ZM-68.291 70.3521L-68.2649 70.379L-62.1834 76.8221C-61.7098 77.3239 -61.7137 78.1333 -62.192 78.6301C-62.6616 79.1178 -63.414 79.1228 -63.8894 78.6479L-63.9155 78.621L-69.997 72.1779C-70.4706 71.6761 -70.4667 70.8667 -69.9884 70.3699C-69.5188 69.8822 -68.7664 69.8772 -68.291 70.3521ZM-54.7609 70.3521L-54.7348 70.379L-48.6533 76.8221C-48.1798 77.3239 -48.1836 78.1333 -48.6619 78.6301C-49.1315 79.1178 -49.8839 79.1228 -50.3593 78.6479L-50.3855 78.621L-56.4669 72.1779C-56.9405 71.6761 -56.9366 70.8667 -56.4583 70.3699C-55.9887 69.8822 -55.2363 69.8772 -54.7609 70.3521ZM-41.2309 70.3521L-41.2047 70.379L-35.1233 76.8221C-34.6497 77.3239 -34.6536 78.1333 -35.1319 78.6301C-35.6015 79.1178 -36.3539 79.1228 -36.8293 78.6479L-36.8554 78.621L-42.9369 72.1779C-43.4104 71.6761 -43.4066 70.8667 -42.9283 70.3699C-42.4587 69.8822 -41.7063 69.8772 -41.2309 70.3521ZM-27.7008 70.3521L-27.6747 70.379L-21.5932 76.8221C-21.1196 77.3239 -21.1235 78.1333 -21.6018 78.6301C-22.0714 79.1178 -22.8238 79.1228 -23.2992 78.6479L-23.3253 78.621L-29.4068 72.1779C-29.8804 71.6761 -29.8765 70.8667 -29.3982 70.3699C-28.9286 69.8822 -28.1762 69.8772 -27.7008 70.3521ZM-14.1707 70.3521L-14.1446 70.379L-8.06314 76.8221C-7.58957 77.3239 -7.59341 78.1333 -8.07173 78.6301C-8.54135 79.1178 -9.29373 79.1228 -9.76913 78.6479L-9.79526 78.621L-15.8767 72.1779C-16.3503 71.6761 -16.3464 70.8667 -15.8681 70.3699C-15.3985 69.8822 -14.6461 69.8772 -14.1707 70.3521ZM-0.640671 70.3521L-0.614548 70.379L5.46692 76.8221C5.94049 77.3239 5.93665 78.1333 5.45833 78.6301C4.98871 79.1178 4.23633 79.1228 3.76093 78.6479L3.73482 78.621L-2.34666 72.1779C-2.82024 71.6761 -2.81639 70.8667 -2.33807 70.3699C-1.86845 69.8822 -1.11607 69.8772 -0.640671 70.3521ZM12.8894 70.3521L12.9155 70.379L18.997 76.8221C19.4706 77.3239 19.4667 78.1333 18.9884 78.6301C18.5188 79.1178 17.7664 79.1228 17.291 78.6479L17.2649 78.621L11.1834 72.1779C10.7098 71.6761 10.7137 70.8667 11.192 70.3699C11.6616 69.8822 12.414 69.8772 12.8894 70.3521ZM26.4195 70.3521L26.4456 70.379L32.5271 76.8221C33.0006 77.3239 32.9968 78.1333 32.5185 78.6301C32.0488 79.1178 31.2965 79.1228 30.8211 78.6479L30.7949 78.621L24.7135 72.1779C24.2399 71.6761 24.2437 70.8667 24.7221 70.3699C25.1917 69.8822 25.9441 69.8772 26.4195 70.3521ZM39.9495 70.3521L39.9757 70.379L46.0571 76.8221C46.5307 77.3239 46.5269 78.1333 46.0485 78.6301C45.5789 79.1178 44.8265 79.1228 44.3511 78.6479L44.325 78.621L38.2435 72.1779C37.77 71.6761 37.7738 70.8667 38.2521 70.3699C38.7218 69.8822 39.4741 69.8772 39.9495 70.3521ZM53.4796 70.3521L53.5057 70.379L59.5872 76.8221C60.0608 77.3239 60.0569 78.1333 59.5786 78.6301C59.109 79.1178 58.3566 79.1228 57.8812 78.6479L57.8551 78.621L51.7736 72.1779C51.3 71.6761 51.3039 70.8667 51.7822 70.3699C52.2518 69.8822 53.0042 69.8772 53.4796 70.3521ZM67.0097 70.3521L67.0358 70.379L73.1173 76.8221C73.5908 77.3239 73.587 78.1333 73.1087 78.6301C72.6391 79.1178 71.8867 79.1228 71.4113 78.6479L71.3851 78.621L65.3037 72.1779C64.8301 71.6761 64.834 70.8667 65.3123 70.3699C65.7819 69.8822 66.5343 69.8772 67.0097 70.3521ZM80.5397 70.3521L80.5659 70.379L86.6473 76.8221C87.1209 77.3239 87.1171 78.1333 86.6387 78.6301C86.1691 79.1178 85.4167 79.1228 84.9413 78.6479L84.9152 78.621L78.8337 72.1779C78.3602 71.6761 78.364 70.8667 78.8423 70.3699C79.312 69.8822 80.0643 69.8772 80.5397 70.3521Z" fill="#009DC4"/>
<path d="M-135.941 84.3521L-135.915 84.379L-129.834 90.8221C-129.36 91.3239 -129.364 92.1333 -129.842 92.6301C-130.312 93.1178 -131.064 93.1228 -131.54 92.6479L-131.566 92.621L-137.647 86.1779C-138.121 85.6761 -138.117 84.8667 -137.639 84.3699C-137.169 83.8822 -136.417 83.8772 -135.941 84.3521ZM-122.411 84.3521L-122.385 84.379L-116.304 90.8221C-115.83 91.3239 -115.834 92.1333 -116.312 92.6301C-116.782 93.1178 -117.534 93.1228 -118.01 92.6479L-118.036 92.621L-124.117 86.1779C-124.591 85.6761 -124.587 84.8667 -124.109 84.3699C-123.639 83.8822 -122.887 83.8772 -122.411 84.3521ZM-108.881 84.3521L-108.855 84.379L-102.774 90.8221C-102.3 91.3239 -102.304 92.1333 -102.782 92.6301C-103.252 93.1178 -104.004 93.1228 -104.48 92.6479L-104.506 92.621L-110.587 86.1779C-111.061 85.6761 -111.057 84.8667 -110.579 84.3699C-110.109 83.8822 -109.357 83.8772 -108.881 84.3521ZM-95.3511 84.3521L-95.325 84.379L-89.2435 90.8221C-88.77 91.3239 -88.7738 92.1333 -89.2521 92.6301C-89.7217 93.1178 -90.4741 93.1228 -90.9495 92.6479L-90.9757 92.621L-97.0571 86.1779C-97.5307 85.6761 -97.5268 84.8667 -97.0485 84.3699C-96.5789 83.8822 -95.8265 83.8772 -95.3511 84.3521ZM-81.8211 84.3521L-81.7949 84.379L-75.7135 90.8221C-75.2399 91.3239 -75.2438 92.1333 -75.7221 92.6301C-76.1917 93.1178 -76.9441 93.1228 -77.4195 92.6479L-77.4456 92.621L-83.5271 86.1779C-84.0006 85.6761 -83.9968 84.8667 -83.5185 84.3699C-83.0489 83.8822 -82.2965 83.8772 -81.8211 84.3521ZM-68.291 84.3521L-68.2649 84.379L-62.1834 90.8221C-61.7098 91.3239 -61.7137 92.1333 -62.192 92.6301C-62.6616 93.1178 -63.414 93.1228 -63.8894 92.6479L-63.9155 92.621L-69.997 86.1779C-70.4706 85.6761 -70.4667 84.8667 -69.9884 84.3699C-69.5188 83.8822 -68.7664 83.8772 -68.291 84.3521ZM-54.7609 84.3521L-54.7348 84.379L-48.6533 90.8221C-48.1798 91.3239 -48.1836 92.1333 -48.6619 92.6301C-49.1315 93.1178 -49.8839 93.1228 -50.3593 92.6479L-50.3855 92.621L-56.4669 86.1779C-56.9405 85.6761 -56.9366 84.8667 -56.4583 84.3699C-55.9887 83.8822 -55.2363 83.8772 -54.7609 84.3521ZM-41.2309 84.3521L-41.2047 84.379L-35.1233 90.8221C-34.6497 91.3239 -34.6536 92.1333 -35.1319 92.6301C-35.6015 93.1178 -36.3539 93.1228 -36.8293 92.6479L-36.8554 92.621L-42.9369 86.1779C-43.4104 85.6761 -43.4066 84.8667 -42.9283 84.3699C-42.4587 83.8822 -41.7063 83.8772 -41.2309 84.3521ZM-27.7008 84.3521L-27.6747 84.379L-21.5932 90.8221C-21.1196 91.3239 -21.1235 92.1333 -21.6018 92.6301C-22.0714 93.1178 -22.8238 93.1228 -23.2992 92.6479L-23.3253 92.621L-29.4068 86.1779C-29.8804 85.6761 -29.8765 84.8667 -29.3982 84.3699C-28.9286 83.8822 -28.1762 83.8772 -27.7008 84.3521ZM-14.1707 84.3521L-14.1446 84.379L-8.06314 90.8221C-7.58957 91.3239 -7.59341 92.1333 -8.07173 92.6301C-8.54135 93.1178 -9.29373 93.1228 -9.76913 92.6479L-9.79526 92.621L-15.8767 86.1779C-16.3503 85.6761 -16.3464 84.8667 -15.8681 84.3699C-15.3985 83.8822 -14.6461 83.8772 -14.1707 84.3521ZM-0.640671 84.3521L-0.614548 84.379L5.46692 90.8221C5.94049 91.3239 5.93665 92.1333 5.45833 92.6301C4.98871 93.1178 4.23633 93.1228 3.76093 92.6479L3.73482 92.621L-2.34666 86.1779C-2.82024 85.6761 -2.81639 84.8667 -2.33807 84.3699C-1.86845 83.8822 -1.11607 83.8772 -0.640671 84.3521ZM12.8894 84.3521L12.9155 84.379L18.997 90.8221C19.4706 91.3239 19.4667 92.1333 18.9884 92.6301C18.5188 93.1178 17.7664 93.1228 17.291 92.6479L17.2649 92.621L11.1834 86.1779C10.7098 85.6761 10.7137 84.8667 11.192 84.3699C11.6616 83.8822 12.414 83.8772 12.8894 84.3521ZM26.4195 84.3521L26.4456 84.379L32.5271 90.8221C33.0006 91.3239 32.9968 92.1333 32.5185 92.6301C32.0488 93.1178 31.2965 93.1228 30.8211 92.6479L30.7949 92.621L24.7135 86.1779C24.2399 85.6761 24.2437 84.8667 24.7221 84.3699C25.1917 83.8822 25.9441 83.8772 26.4195 84.3521ZM39.9495 84.3521L39.9757 84.379L46.0571 90.8221C46.5307 91.3239 46.5269 92.1333 46.0485 92.6301C45.5789 93.1178 44.8265 93.1228 44.3511 92.6479L44.325 92.621L38.2435 86.1779C37.77 85.6761 37.7738 84.8667 38.2521 84.3699C38.7218 83.8822 39.4741 83.8772 39.9495 84.3521ZM53.4796 84.3521L53.5057 84.379L59.5872 90.8221C60.0608 91.3239 60.0569 92.1333 59.5786 92.6301C59.109 93.1178 58.3566 93.1228 57.8812 92.6479L57.8551 92.621L51.7736 86.1779C51.3 85.6761 51.3039 84.8667 51.7822 84.3699C52.2518 83.8822 53.0042 83.8772 53.4796 84.3521ZM67.0097 84.3521L67.0358 84.379L73.1173 90.8221C73.5908 91.3239 73.587 92.1333 73.1087 92.6301C72.6391 93.1178 71.8867 93.1228 71.4113 92.6479L71.3851 92.621L65.3037 86.1779C64.8301 85.6761 64.834 84.8667 65.3123 84.3699C65.7819 83.8822 66.5343 83.8772 67.0097 84.3521ZM80.5397 84.3521L80.5659 84.379L86.6473 90.8221C87.1209 91.3239 87.1171 92.1333 86.6387 92.6301C86.1691 93.1178 85.4167 93.1228 84.9413 92.6479L84.9152 92.621L78.8337 86.1779C78.3602 85.6761 78.364 84.8667 78.8423 84.3699C79.312 83.8822 80.0643 83.8772 80.5397 84.3521Z" fill="#009DC4"/>
<path d="M-135.941 98.3521L-135.915 98.379L-129.834 104.822C-129.36 105.324 -129.364 106.133 -129.842 106.63C-130.312 107.118 -131.064 107.123 -131.54 106.648L-131.566 106.621L-137.647 100.178C-138.121 99.6761 -138.117 98.8667 -137.639 98.3699C-137.169 97.8822 -136.417 97.8772 -135.941 98.3521ZM-122.411 98.3521L-122.385 98.379L-116.304 104.822C-115.83 105.324 -115.834 106.133 -116.312 106.63C-116.782 107.118 -117.534 107.123 -118.01 106.648L-118.036 106.621L-124.117 100.178C-124.591 99.6761 -124.587 98.8667 -124.109 98.3699C-123.639 97.8822 -122.887 97.8772 -122.411 98.3521ZM-108.881 98.3521L-108.855 98.379L-102.774 104.822C-102.3 105.324 -102.304 106.133 -102.782 106.63C-103.252 107.118 -104.004 107.123 -104.48 106.648L-104.506 106.621L-110.587 100.178C-111.061 99.6761 -111.057 98.8667 -110.579 98.3699C-110.109 97.8822 -109.357 97.8772 -108.881 98.3521ZM-95.3511 98.3521L-95.325 98.379L-89.2435 104.822C-88.77 105.324 -88.7738 106.133 -89.2521 106.63C-89.7217 107.118 -90.4741 107.123 -90.9495 106.648L-90.9757 106.621L-97.0571 100.178C-97.5307 99.6761 -97.5268 98.8667 -97.0485 98.3699C-96.5789 97.8822 -95.8265 97.8772 -95.3511 98.3521ZM-81.8211 98.3521L-81.7949 98.379L-75.7135 104.822C-75.2399 105.324 -75.2438 106.133 -75.7221 106.63C-76.1917 107.118 -76.9441 107.123 -77.4195 106.648L-77.4456 106.621L-83.5271 100.178C-84.0006 99.6761 -83.9968 98.8667 -83.5185 98.3699C-83.0489 97.8822 -82.2965 97.8772 -81.8211 98.3521ZM-68.291 98.3521L-68.2649 98.379L-62.1834 104.822C-61.7098 105.324 -61.7137 106.133 -62.192 106.63C-62.6616 107.118 -63.414 107.123 -63.8894 106.648L-63.9155 106.621L-69.997 100.178C-70.4706 99.6761 -70.4667 98.8667 -69.9884 98.3699C-69.5188 97.8822 -68.7664 97.8772 -68.291 98.3521ZM-54.7609 98.3521L-54.7348 98.379L-48.6533 104.822C-48.1798 105.324 -48.1836 106.133 -48.6619 106.63C-49.1315 107.118 -49.8839 107.123 -50.3593 106.648L-50.3855 106.621L-56.4669 100.178C-56.9405 99.6761 -56.9366 98.8667 -56.4583 98.3699C-55.9887 97.8822 -55.2363 97.8772 -54.7609 98.3521ZM-41.2309 98.3521L-41.2047 98.379L-35.1233 104.822C-34.6497 105.324 -34.6536 106.133 -35.1319 106.63C-35.6015 107.118 -36.3539 107.123 -36.8293 106.648L-36.8554 106.621L-42.9369 100.178C-43.4104 99.6761 -43.4066 98.8667 -42.9283 98.3699C-42.4587 97.8822 -41.7063 97.8772 -41.2309 98.3521ZM-27.7008 98.3521L-27.6747 98.379L-21.5932 104.822C-21.1196 105.324 -21.1235 106.133 -21.6018 106.63C-22.0714 107.118 -22.8238 107.123 -23.2992 106.648L-23.3253 106.621L-29.4068 100.178C-29.8804 99.6761 -29.8765 98.8667 -29.3982 98.3699C-28.9286 97.8822 -28.1762 97.8772 -27.7008 98.3521ZM-14.1707 98.3521L-14.1446 98.379L-8.06314 104.822C-7.58957 105.324 -7.59341 106.133 -8.07173 106.63C-8.54135 107.118 -9.29373 107.123 -9.76913 106.648L-9.79526 106.621L-15.8767 100.178C-16.3503 99.6761 -16.3464 98.8667 -15.8681 98.3699C-15.3985 97.8822 -14.6461 97.8772 -14.1707 98.3521ZM-0.640671 98.3521L-0.614548 98.379L5.46692 104.822C5.94049 105.324 5.93665 106.133 5.45833 106.63C4.98871 107.118 4.23633 107.123 3.76093 106.648L3.73482 106.621L-2.34666 100.178C-2.82024 99.6761 -2.81639 98.8667 -2.33807 98.3699C-1.86845 97.8822 -1.11607 97.8772 -0.640671 98.3521ZM12.8894 98.3521L12.9155 98.379L18.997 104.822C19.4706 105.324 19.4667 106.133 18.9884 106.63C18.5188 107.118 17.7664 107.123 17.291 106.648L17.2649 106.621L11.1834 100.178C10.7098 99.6761 10.7137 98.8667 11.192 98.3699C11.6616 97.8822 12.414 97.8772 12.8894 98.3521ZM26.4195 98.3521L26.4456 98.379L32.5271 104.822C33.0006 105.324 32.9968 106.133 32.5185 106.63C32.0488 107.118 31.2965 107.123 30.8211 106.648L30.7949 106.621L24.7135 100.178C24.2399 99.6761 24.2437 98.8667 24.7221 98.3699C25.1917 97.8822 25.9441 97.8772 26.4195 98.3521ZM39.9495 98.3521L39.9757 98.379L46.0571 104.822C46.5307 105.324 46.5269 106.133 46.0485 106.63C45.5789 107.118 44.8265 107.123 44.3511 106.648L44.325 106.621L38.2435 100.178C37.77 99.6761 37.7738 98.8667 38.2521 98.3699C38.7218 97.8822 39.4741 97.8772 39.9495 98.3521ZM53.4796 98.3521L53.5057 98.379L59.5872 104.822C60.0608 105.324 60.0569 106.133 59.5786 106.63C59.109 107.118 58.3566 107.123 57.8812 106.648L57.8551 106.621L51.7736 100.178C51.3 99.6761 51.3039 98.8667 51.7822 98.3699C52.2518 97.8822 53.0042 97.8772 53.4796 98.3521ZM67.0097 98.3521L67.0358 98.379L73.1173 104.822C73.5908 105.324 73.587 106.133 73.1087 106.63C72.6391 107.118 71.8867 107.123 71.4113 106.648L71.3851 106.621L65.3037 100.178C64.8301 99.6761 64.834 98.8667 65.3123 98.3699C65.7819 97.8822 66.5343 97.8772 67.0097 98.3521ZM80.5397 98.3521L80.5659 98.379L86.6473 104.822C87.1209 105.324 87.1171 106.133 86.6387 106.63C86.1691 107.118 85.4167 107.123 84.9413 106.648L84.9152 106.621L78.8337 100.178C78.3602 99.6761 78.364 98.8667 78.8423 98.3699C79.312 97.8822 80.0643 97.8772 80.5397 98.3521Z" fill="#009DC4"/>
<path d="M-135.941 112.352L-135.915 112.379L-129.834 118.822C-129.36 119.324 -129.364 120.133 -129.842 120.63C-130.312 121.118 -131.064 121.123 -131.54 120.648L-131.566 120.621L-137.647 114.178C-138.121 113.676 -138.117 112.867 -137.639 112.37C-137.169 111.882 -136.417 111.877 -135.941 112.352ZM-122.411 112.352L-122.385 112.379L-116.304 118.822C-115.83 119.324 -115.834 120.133 -116.312 120.63C-116.782 121.118 -117.534 121.123 -118.01 120.648L-118.036 120.621L-124.117 114.178C-124.591 113.676 -124.587 112.867 -124.109 112.37C-123.639 111.882 -122.887 111.877 -122.411 112.352ZM-108.881 112.352L-108.855 112.379L-102.774 118.822C-102.3 119.324 -102.304 120.133 -102.782 120.63C-103.252 121.118 -104.004 121.123 -104.48 120.648L-104.506 120.621L-110.587 114.178C-111.061 113.676 -111.057 112.867 -110.579 112.37C-110.109 111.882 -109.357 111.877 -108.881 112.352ZM-95.3511 112.352L-95.325 112.379L-89.2435 118.822C-88.77 119.324 -88.7738 120.133 -89.2521 120.63C-89.7217 121.118 -90.4741 121.123 -90.9495 120.648L-90.9757 120.621L-97.0571 114.178C-97.5307 113.676 -97.5268 112.867 -97.0485 112.37C-96.5789 111.882 -95.8265 111.877 -95.3511 112.352ZM-81.8211 112.352L-81.7949 112.379L-75.7135 118.822C-75.2399 119.324 -75.2438 120.133 -75.7221 120.63C-76.1917 121.118 -76.9441 121.123 -77.4195 120.648L-77.4456 120.621L-83.5271 114.178C-84.0006 113.676 -83.9968 112.867 -83.5185 112.37C-83.0489 111.882 -82.2965 111.877 -81.8211 112.352ZM-68.291 112.352L-68.2649 112.379L-62.1834 118.822C-61.7098 119.324 -61.7137 120.133 -62.192 120.63C-62.6616 121.118 -63.414 121.123 -63.8894 120.648L-63.9155 120.621L-69.997 114.178C-70.4706 113.676 -70.4667 112.867 -69.9884 112.37C-69.5188 111.882 -68.7664 111.877 -68.291 112.352ZM-54.7609 112.352L-54.7348 112.379L-48.6533 118.822C-48.1798 119.324 -48.1836 120.133 -48.6619 120.63C-49.1315 121.118 -49.8839 121.123 -50.3593 120.648L-50.3855 120.621L-56.4669 114.178C-56.9405 113.676 -56.9366 112.867 -56.4583 112.37C-55.9887 111.882 -55.2363 111.877 -54.7609 112.352ZM-41.2309 112.352L-41.2047 112.379L-35.1233 118.822C-34.6497 119.324 -34.6536 120.133 -35.1319 120.63C-35.6015 121.118 -36.3539 121.123 -36.8293 120.648L-36.8554 120.621L-42.9369 114.178C-43.4104 113.676 -43.4066 112.867 -42.9283 112.37C-42.4587 111.882 -41.7063 111.877 -41.2309 112.352ZM-27.7008 112.352L-27.6747 112.379L-21.5932 118.822C-21.1196 119.324 -21.1235 120.133 -21.6018 120.63C-22.0714 121.118 -22.8238 121.123 -23.2992 120.648L-23.3253 120.621L-29.4068 114.178C-29.8804 113.676 -29.8765 112.867 -29.3982 112.37C-28.9286 111.882 -28.1762 111.877 -27.7008 112.352ZM-14.1707 112.352L-14.1446 112.379L-8.06314 118.822C-7.58957 119.324 -7.59341 120.133 -8.07173 120.63C-8.54135 121.118 -9.29373 121.123 -9.76913 120.648L-9.79526 120.621L-15.8767 114.178C-16.3503 113.676 -16.3464 112.867 -15.8681 112.37C-15.3985 111.882 -14.6461 111.877 -14.1707 112.352ZM-0.640671 112.352L-0.614548 112.379L5.46692 118.822C5.94049 119.324 5.93665 120.133 5.45833 120.63C4.98871 121.118 4.23633 121.123 3.76093 120.648L3.73482 120.621L-2.34666 114.178C-2.82024 113.676 -2.81639 112.867 -2.33807 112.37C-1.86845 111.882 -1.11607 111.877 -0.640671 112.352ZM12.8894 112.352L12.9155 112.379L18.997 118.822C19.4706 119.324 19.4667 120.133 18.9884 120.63C18.5188 121.118 17.7664 121.123 17.291 120.648L17.2649 120.621L11.1834 114.178C10.7098 113.676 10.7137 112.867 11.192 112.37C11.6616 111.882 12.414 111.877 12.8894 112.352ZM26.4195 112.352L26.4456 112.379L32.5271 118.822C33.0006 119.324 32.9968 120.133 32.5185 120.63C32.0488 121.118 31.2965 121.123 30.8211 120.648L30.7949 120.621L24.7135 114.178C24.2399 113.676 24.2437 112.867 24.7221 112.37C25.1917 111.882 25.9441 111.877 26.4195 112.352ZM39.9495 112.352L39.9757 112.379L46.0571 118.822C46.5307 119.324 46.5269 120.133 46.0485 120.63C45.5789 121.118 44.8265 121.123 44.3511 120.648L44.325 120.621L38.2435 114.178C37.77 113.676 37.7738 112.867 38.2521 112.37C38.7218 111.882 39.4741 111.877 39.9495 112.352ZM53.4796 112.352L53.5057 112.379L59.5872 118.822C60.0608 119.324 60.0569 120.133 59.5786 120.63C59.109 121.118 58.3566 121.123 57.8812 120.648L57.8551 120.621L51.7736 114.178C51.3 113.676 51.3039 112.867 51.7822 112.37C52.2518 111.882 53.0042 111.877 53.4796 112.352ZM67.0097 112.352L67.0358 112.379L73.1173 118.822C73.5908 119.324 73.587 120.133 73.1087 120.63C72.6391 121.118 71.8867 121.123 71.4113 120.648L71.3851 120.621L65.3037 114.178C64.8301 113.676 64.834 112.867 65.3123 112.37C65.7819 111.882 66.5343 111.877 67.0097 112.352ZM80.5397 112.352L80.5659 112.379L86.6473 118.822C87.1209 119.324 87.1171 120.133 86.6387 120.63C86.1691 121.118 85.4167 121.123 84.9413 120.648L84.9152 120.621L78.8337 114.178C78.3602 113.676 78.364 112.867 78.8423 112.37C79.312 111.882 80.0643 111.877 80.5397 112.352Z" fill="#009DC4"/>
<path d="M-135.941 126.352L-135.915 126.379L-129.834 132.822C-129.36 133.324 -129.364 134.133 -129.842 134.63C-130.312 135.118 -131.064 135.123 -131.54 134.648L-131.566 134.621L-137.647 128.178C-138.121 127.676 -138.117 126.867 -137.639 126.37C-137.169 125.882 -136.417 125.877 -135.941 126.352ZM-122.411 126.352L-122.385 126.379L-116.304 132.822C-115.83 133.324 -115.834 134.133 -116.312 134.63C-116.782 135.118 -117.534 135.123 -118.01 134.648L-118.036 134.621L-124.117 128.178C-124.591 127.676 -124.587 126.867 -124.109 126.37C-123.639 125.882 -122.887 125.877 -122.411 126.352ZM-108.881 126.352L-108.855 126.379L-102.774 132.822C-102.3 133.324 -102.304 134.133 -102.782 134.63C-103.252 135.118 -104.004 135.123 -104.48 134.648L-104.506 134.621L-110.587 128.178C-111.061 127.676 -111.057 126.867 -110.579 126.37C-110.109 125.882 -109.357 125.877 -108.881 126.352ZM-95.3511 126.352L-95.325 126.379L-89.2435 132.822C-88.77 133.324 -88.7738 134.133 -89.2521 134.63C-89.7217 135.118 -90.4741 135.123 -90.9495 134.648L-90.9757 134.621L-97.0571 128.178C-97.5307 127.676 -97.5268 126.867 -97.0485 126.37C-96.5789 125.882 -95.8265 125.877 -95.3511 126.352ZM-81.8211 126.352L-81.7949 126.379L-75.7135 132.822C-75.2399 133.324 -75.2438 134.133 -75.7221 134.63C-76.1917 135.118 -76.9441 135.123 -77.4195 134.648L-77.4456 134.621L-83.5271 128.178C-84.0006 127.676 -83.9968 126.867 -83.5185 126.37C-83.0489 125.882 -82.2965 125.877 -81.8211 126.352ZM-68.291 126.352L-68.2649 126.379L-62.1834 132.822C-61.7098 133.324 -61.7137 134.133 -62.192 134.63C-62.6616 135.118 -63.414 135.123 -63.8894 134.648L-63.9155 134.621L-69.997 128.178C-70.4706 127.676 -70.4667 126.867 -69.9884 126.37C-69.5188 125.882 -68.7664 125.877 -68.291 126.352ZM-54.7609 126.352L-54.7348 126.379L-48.6533 132.822C-48.1798 133.324 -48.1836 134.133 -48.6619 134.63C-49.1315 135.118 -49.8839 135.123 -50.3593 134.648L-50.3855 134.621L-56.4669 128.178C-56.9405 127.676 -56.9366 126.867 -56.4583 126.37C-55.9887 125.882 -55.2363 125.877 -54.7609 126.352ZM-41.2309 126.352L-41.2047 126.379L-35.1233 132.822C-34.6497 133.324 -34.6536 134.133 -35.1319 134.63C-35.6015 135.118 -36.3539 135.123 -36.8293 134.648L-36.8554 134.621L-42.9369 128.178C-43.4104 127.676 -43.4066 126.867 -42.9283 126.37C-42.4587 125.882 -41.7063 125.877 -41.2309 126.352ZM-27.7008 126.352L-27.6747 126.379L-21.5932 132.822C-21.1196 133.324 -21.1235 134.133 -21.6018 134.63C-22.0714 135.118 -22.8238 135.123 -23.2992 134.648L-23.3253 134.621L-29.4068 128.178C-29.8804 127.676 -29.8765 126.867 -29.3982 126.37C-28.9286 125.882 -28.1762 125.877 -27.7008 126.352ZM-14.1707 126.352L-14.1446 126.379L-8.06314 132.822C-7.58957 133.324 -7.59341 134.133 -8.07173 134.63C-8.54135 135.118 -9.29373 135.123 -9.76913 134.648L-9.79526 134.621L-15.8767 128.178C-16.3503 127.676 -16.3464 126.867 -15.8681 126.37C-15.3985 125.882 -14.6461 125.877 -14.1707 126.352ZM-0.640671 126.352L-0.614548 126.379L5.46692 132.822C5.94049 133.324 5.93665 134.133 5.45833 134.63C4.98871 135.118 4.23633 135.123 3.76093 134.648L3.73482 134.621L-2.34666 128.178C-2.82024 127.676 -2.81639 126.867 -2.33807 126.37C-1.86845 125.882 -1.11607 125.877 -0.640671 126.352ZM12.8894 126.352L12.9155 126.379L18.997 132.822C19.4706 133.324 19.4667 134.133 18.9884 134.63C18.5188 135.118 17.7664 135.123 17.291 134.648L17.2649 134.621L11.1834 128.178C10.7098 127.676 10.7137 126.867 11.192 126.37C11.6616 125.882 12.414 125.877 12.8894 126.352ZM26.4195 126.352L26.4456 126.379L32.5271 132.822C33.0006 133.324 32.9968 134.133 32.5185 134.63C32.0488 135.118 31.2965 135.123 30.8211 134.648L30.7949 134.621L24.7135 128.178C24.2399 127.676 24.2437 126.867 24.7221 126.37C25.1917 125.882 25.9441 125.877 26.4195 126.352ZM39.9495 126.352L39.9757 126.379L46.0571 132.822C46.5307 133.324 46.5269 134.133 46.0485 134.63C45.5789 135.118 44.8265 135.123 44.3511 134.648L44.325 134.621L38.2435 128.178C37.77 127.676 37.7738 126.867 38.2521 126.37C38.7218 125.882 39.4741 125.877 39.9495 126.352ZM53.4796 126.352L53.5057 126.379L59.5872 132.822C60.0608 133.324 60.0569 134.133 59.5786 134.63C59.109 135.118 58.3566 135.123 57.8812 134.648L57.8551 134.621L51.7736 128.178C51.3 127.676 51.3039 126.867 51.7822 126.37C52.2518 125.882 53.0042 125.877 53.4796 126.352ZM67.0097 126.352L67.0358 126.379L73.1173 132.822C73.5908 133.324 73.587 134.133 73.1087 134.63C72.6391 135.118 71.8867 135.123 71.4113 134.648L71.3851 134.621L65.3037 128.178C64.8301 127.676 64.834 126.867 65.3123 126.37C65.7819 125.882 66.5343 125.877 67.0097 126.352ZM80.5397 126.352L80.5659 126.379L86.6473 132.822C87.1209 133.324 87.1171 134.133 86.6387 134.63C86.1691 135.118 85.4167 135.123 84.9413 134.648L84.9152 134.621L78.8337 128.178C78.3602 127.676 78.364 126.867 78.8423 126.37C79.312 125.882 80.0643 125.877 80.5397 126.352Z" fill="#009DC4"/>
<path d="M-135.941 140.352L-135.915 140.379L-129.834 146.822C-129.36 147.324 -129.364 148.133 -129.842 148.63C-130.312 149.118 -131.064 149.123 -131.54 148.648L-131.566 148.621L-137.647 142.178C-138.121 141.676 -138.117 140.867 -137.639 140.37C-137.169 139.882 -136.417 139.877 -135.941 140.352ZM-122.411 140.352L-122.385 140.379L-116.304 146.822C-115.83 147.324 -115.834 148.133 -116.312 148.63C-116.782 149.118 -117.534 149.123 -118.01 148.648L-118.036 148.621L-124.117 142.178C-124.591 141.676 -124.587 140.867 -124.109 140.37C-123.639 139.882 -122.887 139.877 -122.411 140.352ZM-108.881 140.352L-108.855 140.379L-102.774 146.822C-102.3 147.324 -102.304 148.133 -102.782 148.63C-103.252 149.118 -104.004 149.123 -104.48 148.648L-104.506 148.621L-110.587 142.178C-111.061 141.676 -111.057 140.867 -110.579 140.37C-110.109 139.882 -109.357 139.877 -108.881 140.352ZM-95.3511 140.352L-95.325 140.379L-89.2435 146.822C-88.77 147.324 -88.7738 148.133 -89.2521 148.63C-89.7217 149.118 -90.4741 149.123 -90.9495 148.648L-90.9757 148.621L-97.0571 142.178C-97.5307 141.676 -97.5268 140.867 -97.0485 140.37C-96.5789 139.882 -95.8265 139.877 -95.3511 140.352ZM-81.8211 140.352L-81.7949 140.379L-75.7135 146.822C-75.2399 147.324 -75.2438 148.133 -75.7221 148.63C-76.1917 149.118 -76.9441 149.123 -77.4195 148.648L-77.4456 148.621L-83.5271 142.178C-84.0006 141.676 -83.9968 140.867 -83.5185 140.37C-83.0489 139.882 -82.2965 139.877 -81.8211 140.352ZM-68.291 140.352L-68.2649 140.379L-62.1834 146.822C-61.7098 147.324 -61.7137 148.133 -62.192 148.63C-62.6616 149.118 -63.414 149.123 -63.8894 148.648L-63.9155 148.621L-69.997 142.178C-70.4706 141.676 -70.4667 140.867 -69.9884 140.37C-69.5188 139.882 -68.7664 139.877 -68.291 140.352ZM-54.7609 140.352L-54.7348 140.379L-48.6533 146.822C-48.1798 147.324 -48.1836 148.133 -48.6619 148.63C-49.1315 149.118 -49.8839 149.123 -50.3593 148.648L-50.3855 148.621L-56.4669 142.178C-56.9405 141.676 -56.9366 140.867 -56.4583 140.37C-55.9887 139.882 -55.2363 139.877 -54.7609 140.352ZM-41.2309 140.352L-41.2047 140.379L-35.1233 146.822C-34.6497 147.324 -34.6536 148.133 -35.1319 148.63C-35.6015 149.118 -36.3539 149.123 -36.8293 148.648L-36.8554 148.621L-42.9369 142.178C-43.4104 141.676 -43.4066 140.867 -42.9283 140.37C-42.4587 139.882 -41.7063 139.877 -41.2309 140.352ZM-27.7008 140.352L-27.6747 140.379L-21.5932 146.822C-21.1196 147.324 -21.1235 148.133 -21.6018 148.63C-22.0714 149.118 -22.8238 149.123 -23.2992 148.648L-23.3253 148.621L-29.4068 142.178C-29.8804 141.676 -29.8765 140.867 -29.3982 140.37C-28.9286 139.882 -28.1762 139.877 -27.7008 140.352ZM-14.1707 140.352L-14.1446 140.379L-8.06314 146.822C-7.58957 147.324 -7.59341 148.133 -8.07173 148.63C-8.54135 149.118 -9.29373 149.123 -9.76913 148.648L-9.79526 148.621L-15.8767 142.178C-16.3503 141.676 -16.3464 140.867 -15.8681 140.37C-15.3985 139.882 -14.6461 139.877 -14.1707 140.352ZM-0.640671 140.352L-0.614548 140.379L5.46692 146.822C5.94049 147.324 5.93665 148.133 5.45833 148.63C4.98871 149.118 4.23633 149.123 3.76093 148.648L3.73482 148.621L-2.34666 142.178C-2.82024 141.676 -2.81639 140.867 -2.33807 140.37C-1.86845 139.882 -1.11607 139.877 -0.640671 140.352ZM12.8894 140.352L12.9155 140.379L18.997 146.822C19.4706 147.324 19.4667 148.133 18.9884 148.63C18.5188 149.118 17.7664 149.123 17.291 148.648L17.2649 148.621L11.1834 142.178C10.7098 141.676 10.7137 140.867 11.192 140.37C11.6616 139.882 12.414 139.877 12.8894 140.352ZM26.4195 140.352L26.4456 140.379L32.5271 146.822C33.0006 147.324 32.9968 148.133 32.5185 148.63C32.0488 149.118 31.2965 149.123 30.8211 148.648L30.7949 148.621L24.7135 142.178C24.2399 141.676 24.2437 140.867 24.7221 140.37C25.1917 139.882 25.9441 139.877 26.4195 140.352ZM39.9495 140.352L39.9757 140.379L46.0571 146.822C46.5307 147.324 46.5269 148.133 46.0485 148.63C45.5789 149.118 44.8265 149.123 44.3511 148.648L44.325 148.621L38.2435 142.178C37.77 141.676 37.7738 140.867 38.2521 140.37C38.7218 139.882 39.4741 139.877 39.9495 140.352ZM53.4796 140.352L53.5057 140.379L59.5872 146.822C60.0608 147.324 60.0569 148.133 59.5786 148.63C59.109 149.118 58.3566 149.123 57.8812 148.648L57.8551 148.621L51.7736 142.178C51.3 141.676 51.3039 140.867 51.7822 140.37C52.2518 139.882 53.0042 139.877 53.4796 140.352ZM67.0097 140.352L67.0358 140.379L73.1173 146.822C73.5908 147.324 73.587 148.133 73.1087 148.63C72.6391 149.118 71.8867 149.123 71.4113 148.648L71.3851 148.621L65.3037 142.178C64.8301 141.676 64.834 140.867 65.3123 140.37C65.7819 139.882 66.5343 139.877 67.0097 140.352ZM80.5397 140.352L80.5659 140.379L86.6473 146.822C87.1209 147.324 87.1171 148.133 86.6387 148.63C86.1691 149.118 85.4167 149.123 84.9413 148.648L84.9152 148.621L78.8337 142.178C78.3602 141.676 78.364 140.867 78.8423 140.37C79.312 139.882 80.0643 139.877 80.5397 140.352Z" fill="#009DC4"/>
<path d="M-135.941 154.352L-135.915 154.379L-129.834 160.822C-129.36 161.324 -129.364 162.133 -129.842 162.63C-130.312 163.118 -131.064 163.123 -131.54 162.648L-131.566 162.621L-137.647 156.178C-138.121 155.676 -138.117 154.867 -137.639 154.37C-137.169 153.882 -136.417 153.877 -135.941 154.352ZM-122.411 154.352L-122.385 154.379L-116.304 160.822C-115.83 161.324 -115.834 162.133 -116.312 162.63C-116.782 163.118 -117.534 163.123 -118.01 162.648L-118.036 162.621L-124.117 156.178C-124.591 155.676 -124.587 154.867 -124.109 154.37C-123.639 153.882 -122.887 153.877 -122.411 154.352ZM-108.881 154.352L-108.855 154.379L-102.774 160.822C-102.3 161.324 -102.304 162.133 -102.782 162.63C-103.252 163.118 -104.004 163.123 -104.48 162.648L-104.506 162.621L-110.587 156.178C-111.061 155.676 -111.057 154.867 -110.579 154.37C-110.109 153.882 -109.357 153.877 -108.881 154.352ZM-95.3511 154.352L-95.325 154.379L-89.2435 160.822C-88.77 161.324 -88.7738 162.133 -89.2521 162.63C-89.7217 163.118 -90.4741 163.123 -90.9495 162.648L-90.9757 162.621L-97.0571 156.178C-97.5307 155.676 -97.5268 154.867 -97.0485 154.37C-96.5789 153.882 -95.8265 153.877 -95.3511 154.352ZM-81.8211 154.352L-81.7949 154.379L-75.7135 160.822C-75.2399 161.324 -75.2438 162.133 -75.7221 162.63C-76.1917 163.118 -76.9441 163.123 -77.4195 162.648L-77.4456 162.621L-83.5271 156.178C-84.0006 155.676 -83.9968 154.867 -83.5185 154.37C-83.0489 153.882 -82.2965 153.877 -81.8211 154.352ZM-68.291 154.352L-68.2649 154.379L-62.1834 160.822C-61.7098 161.324 -61.7137 162.133 -62.192 162.63C-62.6616 163.118 -63.414 163.123 -63.8894 162.648L-63.9155 162.621L-69.997 156.178C-70.4706 155.676 -70.4667 154.867 -69.9884 154.37C-69.5188 153.882 -68.7664 153.877 -68.291 154.352ZM-54.7609 154.352L-54.7348 154.379L-48.6533 160.822C-48.1798 161.324 -48.1836 162.133 -48.6619 162.63C-49.1315 163.118 -49.8839 163.123 -50.3593 162.648L-50.3855 162.621L-56.4669 156.178C-56.9405 155.676 -56.9366 154.867 -56.4583 154.37C-55.9887 153.882 -55.2363 153.877 -54.7609 154.352ZM-41.2309 154.352L-41.2047 154.379L-35.1233 160.822C-34.6497 161.324 -34.6536 162.133 -35.1319 162.63C-35.6015 163.118 -36.3539 163.123 -36.8293 162.648L-36.8554 162.621L-42.9369 156.178C-43.4104 155.676 -43.4066 154.867 -42.9283 154.37C-42.4587 153.882 -41.7063 153.877 -41.2309 154.352ZM-27.7008 154.352L-27.6747 154.379L-21.5932 160.822C-21.1196 161.324 -21.1235 162.133 -21.6018 162.63C-22.0714 163.118 -22.8238 163.123 -23.2992 162.648L-23.3253 162.621L-29.4068 156.178C-29.8804 155.676 -29.8765 154.867 -29.3982 154.37C-28.9286 153.882 -28.1762 153.877 -27.7008 154.352ZM-14.1707 154.352L-14.1446 154.379L-8.06314 160.822C-7.58957 161.324 -7.59341 162.133 -8.07173 162.63C-8.54135 163.118 -9.29373 163.123 -9.76913 162.648L-9.79526 162.621L-15.8767 156.178C-16.3503 155.676 -16.3464 154.867 -15.8681 154.37C-15.3985 153.882 -14.6461 153.877 -14.1707 154.352ZM-0.640671 154.352L-0.614548 154.379L5.46692 160.822C5.94049 161.324 5.93665 162.133 5.45833 162.63C4.98871 163.118 4.23633 163.123 3.76093 162.648L3.73482 162.621L-2.34666 156.178C-2.82024 155.676 -2.81639 154.867 -2.33807 154.37C-1.86845 153.882 -1.11607 153.877 -0.640671 154.352ZM12.8894 154.352L12.9155 154.379L18.997 160.822C19.4706 161.324 19.4667 162.133 18.9884 162.63C18.5188 163.118 17.7664 163.123 17.291 162.648L17.2649 162.621L11.1834 156.178C10.7098 155.676 10.7137 154.867 11.192 154.37C11.6616 153.882 12.414 153.877 12.8894 154.352ZM26.4195 154.352L26.4456 154.379L32.5271 160.822C33.0006 161.324 32.9968 162.133 32.5185 162.63C32.0488 163.118 31.2965 163.123 30.8211 162.648L30.7949 162.621L24.7135 156.178C24.2399 155.676 24.2437 154.867 24.7221 154.37C25.1917 153.882 25.9441 153.877 26.4195 154.352ZM39.9495 154.352L39.9757 154.379L46.0571 160.822C46.5307 161.324 46.5269 162.133 46.0485 162.63C45.5789 163.118 44.8265 163.123 44.3511 162.648L44.325 162.621L38.2435 156.178C37.77 155.676 37.7738 154.867 38.2521 154.37C38.7218 153.882 39.4741 153.877 39.9495 154.352ZM53.4796 154.352L53.5057 154.379L59.5872 160.822C60.0608 161.324 60.0569 162.133 59.5786 162.63C59.109 163.118 58.3566 163.123 57.8812 162.648L57.8551 162.621L51.7736 156.178C51.3 155.676 51.3039 154.867 51.7822 154.37C52.2518 153.882 53.0042 153.877 53.4796 154.352ZM67.0097 154.352L67.0358 154.379L73.1173 160.822C73.5908 161.324 73.587 162.133 73.1087 162.63C72.6391 163.118 71.8867 163.123 71.4113 162.648L71.3851 162.621L65.3037 156.178C64.8301 155.676 64.834 154.867 65.3123 154.37C65.7819 153.882 66.5343 153.877 67.0097 154.352ZM80.5397 154.352L80.5659 154.379L86.6473 160.822C87.1209 161.324 87.1171 162.133 86.6387 162.63C86.1691 163.118 85.4167 163.123 84.9413 162.648L84.9152 162.621L78.8337 156.178C78.3602 155.676 78.364 154.867 78.8423 154.37C79.312 153.882 80.0643 153.877 80.5397 154.352Z" fill="#009DC4"/>
<path d="M-135.941 168.352L-135.915 168.379L-129.834 174.822C-129.36 175.324 -129.364 176.133 -129.842 176.63C-130.312 177.118 -131.064 177.123 -131.54 176.648L-131.566 176.621L-137.647 170.178C-138.121 169.676 -138.117 168.867 -137.639 168.37C-137.169 167.882 -136.417 167.877 -135.941 168.352ZM-122.411 168.352L-122.385 168.379L-116.304 174.822C-115.83 175.324 -115.834 176.133 -116.312 176.63C-116.782 177.118 -117.534 177.123 -118.01 176.648L-118.036 176.621L-124.117 170.178C-124.591 169.676 -124.587 168.867 -124.109 168.37C-123.639 167.882 -122.887 167.877 -122.411 168.352ZM-108.881 168.352L-108.855 168.379L-102.774 174.822C-102.3 175.324 -102.304 176.133 -102.782 176.63C-103.252 177.118 -104.004 177.123 -104.48 176.648L-104.506 176.621L-110.587 170.178C-111.061 169.676 -111.057 168.867 -110.579 168.37C-110.109 167.882 -109.357 167.877 -108.881 168.352ZM-95.3511 168.352L-95.325 168.379L-89.2435 174.822C-88.77 175.324 -88.7738 176.133 -89.2521 176.63C-89.7217 177.118 -90.4741 177.123 -90.9495 176.648L-90.9757 176.621L-97.0571 170.178C-97.5307 169.676 -97.5268 168.867 -97.0485 168.37C-96.5789 167.882 -95.8265 167.877 -95.3511 168.352ZM-81.8211 168.352L-81.7949 168.379L-75.7135 174.822C-75.2399 175.324 -75.2438 176.133 -75.7221 176.63C-76.1917 177.118 -76.9441 177.123 -77.4195 176.648L-77.4456 176.621L-83.5271 170.178C-84.0006 169.676 -83.9968 168.867 -83.5185 168.37C-83.0489 167.882 -82.2965 167.877 -81.8211 168.352ZM-68.291 168.352L-68.2649 168.379L-62.1834 174.822C-61.7098 175.324 -61.7137 176.133 -62.192 176.63C-62.6616 177.118 -63.414 177.123 -63.8894 176.648L-63.9155 176.621L-69.997 170.178C-70.4706 169.676 -70.4667 168.867 -69.9884 168.37C-69.5188 167.882 -68.7664 167.877 -68.291 168.352ZM-54.7609 168.352L-54.7348 168.379L-48.6533 174.822C-48.1798 175.324 -48.1836 176.133 -48.6619 176.63C-49.1315 177.118 -49.8839 177.123 -50.3593 176.648L-50.3855 176.621L-56.4669 170.178C-56.9405 169.676 -56.9366 168.867 -56.4583 168.37C-55.9887 167.882 -55.2363 167.877 -54.7609 168.352ZM-41.2309 168.352L-41.2047 168.379L-35.1233 174.822C-34.6497 175.324 -34.6536 176.133 -35.1319 176.63C-35.6015 177.118 -36.3539 177.123 -36.8293 176.648L-36.8554 176.621L-42.9369 170.178C-43.4104 169.676 -43.4066 168.867 -42.9283 168.37C-42.4587 167.882 -41.7063 167.877 -41.2309 168.352ZM-27.7008 168.352L-27.6747 168.379L-21.5932 174.822C-21.1196 175.324 -21.1235 176.133 -21.6018 176.63C-22.0714 177.118 -22.8238 177.123 -23.2992 176.648L-23.3253 176.621L-29.4068 170.178C-29.8804 169.676 -29.8765 168.867 -29.3982 168.37C-28.9286 167.882 -28.1762 167.877 -27.7008 168.352ZM-14.1707 168.352L-14.1446 168.379L-8.06314 174.822C-7.58957 175.324 -7.59341 176.133 -8.07173 176.63C-8.54135 177.118 -9.29373 177.123 -9.76913 176.648L-9.79526 176.621L-15.8767 170.178C-16.3503 169.676 -16.3464 168.867 -15.8681 168.37C-15.3985 167.882 -14.6461 167.877 -14.1707 168.352ZM-0.640671 168.352L-0.614548 168.379L5.46692 174.822C5.94049 175.324 5.93665 176.133 5.45833 176.63C4.98871 177.118 4.23633 177.123 3.76093 176.648L3.73482 176.621L-2.34666 170.178C-2.82024 169.676 -2.81639 168.867 -2.33807 168.37C-1.86845 167.882 -1.11607 167.877 -0.640671 168.352ZM12.8894 168.352L12.9155 168.379L18.997 174.822C19.4706 175.324 19.4667 176.133 18.9884 176.63C18.5188 177.118 17.7664 177.123 17.291 176.648L17.2649 176.621L11.1834 170.178C10.7098 169.676 10.7137 168.867 11.192 168.37C11.6616 167.882 12.414 167.877 12.8894 168.352ZM26.4195 168.352L26.4456 168.379L32.5271 174.822C33.0006 175.324 32.9968 176.133 32.5185 176.63C32.0488 177.118 31.2965 177.123 30.8211 176.648L30.7949 176.621L24.7135 170.178C24.2399 169.676 24.2437 168.867 24.7221 168.37C25.1917 167.882 25.9441 167.877 26.4195 168.352ZM39.9495 168.352L39.9757 168.379L46.0571 174.822C46.5307 175.324 46.5269 176.133 46.0485 176.63C45.5789 177.118 44.8265 177.123 44.3511 176.648L44.325 176.621L38.2435 170.178C37.77 169.676 37.7738 168.867 38.2521 168.37C38.7218 167.882 39.4741 167.877 39.9495 168.352ZM53.4796 168.352L53.5057 168.379L59.5872 174.822C60.0608 175.324 60.0569 176.133 59.5786 176.63C59.109 177.118 58.3566 177.123 57.8812 176.648L57.8551 176.621L51.7736 170.178C51.3 169.676 51.3039 168.867 51.7822 168.37C52.2518 167.882 53.0042 167.877 53.4796 168.352ZM67.0097 168.352L67.0358 168.379L73.1173 174.822C73.5908 175.324 73.587 176.133 73.1087 176.63C72.6391 177.118 71.8867 177.123 71.4113 176.648L71.3851 176.621L65.3037 170.178C64.8301 169.676 64.834 168.867 65.3123 168.37C65.7819 167.882 66.5343 167.877 67.0097 168.352ZM80.5397 168.352L80.5659 168.379L86.6473 174.822C87.1209 175.324 87.1171 176.133 86.6387 176.63C86.1691 177.118 85.4167 177.123 84.9413 176.648L84.9152 176.621L78.8337 170.178C78.3602 169.676 78.364 168.867 78.8423 168.37C79.312 167.882 80.0643 167.877 80.5397 168.352Z" fill="#009DC4"/>
<path d="M-135.941 182.352L-135.915 182.379L-129.834 188.822C-129.36 189.324 -129.364 190.133 -129.842 190.63C-130.312 191.118 -131.064 191.123 -131.54 190.648L-131.566 190.621L-137.647 184.178C-138.121 183.676 -138.117 182.867 -137.639 182.37C-137.169 181.882 -136.417 181.877 -135.941 182.352ZM-122.411 182.352L-122.385 182.379L-116.304 188.822C-115.83 189.324 -115.834 190.133 -116.312 190.63C-116.782 191.118 -117.534 191.123 -118.01 190.648L-118.036 190.621L-124.117 184.178C-124.591 183.676 -124.587 182.867 -124.109 182.37C-123.639 181.882 -122.887 181.877 -122.411 182.352ZM-108.881 182.352L-108.855 182.379L-102.774 188.822C-102.3 189.324 -102.304 190.133 -102.782 190.63C-103.252 191.118 -104.004 191.123 -104.48 190.648L-104.506 190.621L-110.587 184.178C-111.061 183.676 -111.057 182.867 -110.579 182.37C-110.109 181.882 -109.357 181.877 -108.881 182.352ZM-95.3511 182.352L-95.325 182.379L-89.2435 188.822C-88.77 189.324 -88.7738 190.133 -89.2521 190.63C-89.7217 191.118 -90.4741 191.123 -90.9495 190.648L-90.9757 190.621L-97.0571 184.178C-97.5307 183.676 -97.5268 182.867 -97.0485 182.37C-96.5789 181.882 -95.8265 181.877 -95.3511 182.352ZM-81.8211 182.352L-81.7949 182.379L-75.7135 188.822C-75.2399 189.324 -75.2438 190.133 -75.7221 190.63C-76.1917 191.118 -76.9441 191.123 -77.4195 190.648L-77.4456 190.621L-83.5271 184.178C-84.0006 183.676 -83.9968 182.867 -83.5185 182.37C-83.0489 181.882 -82.2965 181.877 -81.8211 182.352ZM-68.291 182.352L-68.2649 182.379L-62.1834 188.822C-61.7098 189.324 -61.7137 190.133 -62.192 190.63C-62.6616 191.118 -63.414 191.123 -63.8894 190.648L-63.9155 190.621L-69.997 184.178C-70.4706 183.676 -70.4667 182.867 -69.9884 182.37C-69.5188 181.882 -68.7664 181.877 -68.291 182.352ZM-54.7609 182.352L-54.7348 182.379L-48.6533 188.822C-48.1798 189.324 -48.1836 190.133 -48.6619 190.63C-49.1315 191.118 -49.8839 191.123 -50.3593 190.648L-50.3855 190.621L-56.4669 184.178C-56.9405 183.676 -56.9366 182.867 -56.4583 182.37C-55.9887 181.882 -55.2363 181.877 -54.7609 182.352ZM-41.2309 182.352L-41.2047 182.379L-35.1233 188.822C-34.6497 189.324 -34.6536 190.133 -35.1319 190.63C-35.6015 191.118 -36.3539 191.123 -36.8293 190.648L-36.8554 190.621L-42.9369 184.178C-43.4104 183.676 -43.4066 182.867 -42.9283 182.37C-42.4587 181.882 -41.7063 181.877 -41.2309 182.352ZM-27.7008 182.352L-27.6747 182.379L-21.5932 188.822C-21.1196 189.324 -21.1235 190.133 -21.6018 190.63C-22.0714 191.118 -22.8238 191.123 -23.2992 190.648L-23.3253 190.621L-29.4068 184.178C-29.8804 183.676 -29.8765 182.867 -29.3982 182.37C-28.9286 181.882 -28.1762 181.877 -27.7008 182.352ZM-14.1707 182.352L-14.1446 182.379L-8.06314 188.822C-7.58957 189.324 -7.59341 190.133 -8.07173 190.63C-8.54135 191.118 -9.29373 191.123 -9.76913 190.648L-9.79526 190.621L-15.8767 184.178C-16.3503 183.676 -16.3464 182.867 -15.8681 182.37C-15.3985 181.882 -14.6461 181.877 -14.1707 182.352ZM-0.640671 182.352L-0.614548 182.379L5.46692 188.822C5.94049 189.324 5.93665 190.133 5.45833 190.63C4.98871 191.118 4.23633 191.123 3.76093 190.648L3.73482 190.621L-2.34666 184.178C-2.82024 183.676 -2.81639 182.867 -2.33807 182.37C-1.86845 181.882 -1.11607 181.877 -0.640671 182.352ZM12.8894 182.352L12.9155 182.379L18.997 188.822C19.4706 189.324 19.4667 190.133 18.9884 190.63C18.5188 191.118 17.7664 191.123 17.291 190.648L17.2649 190.621L11.1834 184.178C10.7098 183.676 10.7137 182.867 11.192 182.37C11.6616 181.882 12.414 181.877 12.8894 182.352ZM26.4195 182.352L26.4456 182.379L32.5271 188.822C33.0006 189.324 32.9968 190.133 32.5185 190.63C32.0488 191.118 31.2965 191.123 30.8211 190.648L30.7949 190.621L24.7135 184.178C24.2399 183.676 24.2437 182.867 24.7221 182.37C25.1917 181.882 25.9441 181.877 26.4195 182.352ZM39.9495 182.352L39.9757 182.379L46.0571 188.822C46.5307 189.324 46.5269 190.133 46.0485 190.63C45.5789 191.118 44.8265 191.123 44.3511 190.648L44.325 190.621L38.2435 184.178C37.77 183.676 37.7738 182.867 38.2521 182.37C38.7218 181.882 39.4741 181.877 39.9495 182.352ZM53.4796 182.352L53.5057 182.379L59.5872 188.822C60.0608 189.324 60.0569 190.133 59.5786 190.63C59.109 191.118 58.3566 191.123 57.8812 190.648L57.8551 190.621L51.7736 184.178C51.3 183.676 51.3039 182.867 51.7822 182.37C52.2518 181.882 53.0042 181.877 53.4796 182.352ZM67.0097 182.352L67.0358 182.379L73.1173 188.822C73.5908 189.324 73.587 190.133 73.1087 190.63C72.6391 191.118 71.8867 191.123 71.4113 190.648L71.3851 190.621L65.3037 184.178C64.8301 183.676 64.834 182.867 65.3123 182.37C65.7819 181.882 66.5343 181.877 67.0097 182.352ZM80.5397 182.352L80.5659 182.379L86.6473 188.822C87.1209 189.324 87.1171 190.133 86.6387 190.63C86.1691 191.118 85.4167 191.123 84.9413 190.648L84.9152 190.621L78.8337 184.178C78.3602 183.676 78.364 182.867 78.8423 182.37C79.312 181.882 80.0643 181.877 80.5397 182.352Z" fill="#009DC4"/>
<path d="M-135.941 196.352L-135.915 196.379L-129.834 202.822C-129.36 203.324 -129.364 204.133 -129.842 204.63C-130.312 205.118 -131.064 205.123 -131.54 204.648L-131.566 204.621L-137.647 198.178C-138.121 197.676 -138.117 196.867 -137.639 196.37C-137.169 195.882 -136.417 195.877 -135.941 196.352ZM-122.411 196.352L-122.385 196.379L-116.304 202.822C-115.83 203.324 -115.834 204.133 -116.312 204.63C-116.782 205.118 -117.534 205.123 -118.01 204.648L-118.036 204.621L-124.117 198.178C-124.591 197.676 -124.587 196.867 -124.109 196.37C-123.639 195.882 -122.887 195.877 -122.411 196.352ZM-108.881 196.352L-108.855 196.379L-102.774 202.822C-102.3 203.324 -102.304 204.133 -102.782 204.63C-103.252 205.118 -104.004 205.123 -104.48 204.648L-104.506 204.621L-110.587 198.178C-111.061 197.676 -111.057 196.867 -110.579 196.37C-110.109 195.882 -109.357 195.877 -108.881 196.352ZM-95.3511 196.352L-95.325 196.379L-89.2435 202.822C-88.77 203.324 -88.7738 204.133 -89.2521 204.63C-89.7217 205.118 -90.4741 205.123 -90.9495 204.648L-90.9757 204.621L-97.0571 198.178C-97.5307 197.676 -97.5268 196.867 -97.0485 196.37C-96.5789 195.882 -95.8265 195.877 -95.3511 196.352ZM-81.8211 196.352L-81.7949 196.379L-75.7135 202.822C-75.2399 203.324 -75.2438 204.133 -75.7221 204.63C-76.1917 205.118 -76.9441 205.123 -77.4195 204.648L-77.4456 204.621L-83.5271 198.178C-84.0006 197.676 -83.9968 196.867 -83.5185 196.37C-83.0489 195.882 -82.2965 195.877 -81.8211 196.352ZM-68.291 196.352L-68.2649 196.379L-62.1834 202.822C-61.7098 203.324 -61.7137 204.133 -62.192 204.63C-62.6616 205.118 -63.414 205.123 -63.8894 204.648L-63.9155 204.621L-69.997 198.178C-70.4706 197.676 -70.4667 196.867 -69.9884 196.37C-69.5188 195.882 -68.7664 195.877 -68.291 196.352ZM-54.7609 196.352L-54.7348 196.379L-48.6533 202.822C-48.1798 203.324 -48.1836 204.133 -48.6619 204.63C-49.1315 205.118 -49.8839 205.123 -50.3593 204.648L-50.3855 204.621L-56.4669 198.178C-56.9405 197.676 -56.9366 196.867 -56.4583 196.37C-55.9887 195.882 -55.2363 195.877 -54.7609 196.352ZM-41.2309 196.352L-41.2047 196.379L-35.1233 202.822C-34.6497 203.324 -34.6536 204.133 -35.1319 204.63C-35.6015 205.118 -36.3539 205.123 -36.8293 204.648L-36.8554 204.621L-42.9369 198.178C-43.4104 197.676 -43.4066 196.867 -42.9283 196.37C-42.4587 195.882 -41.7063 195.877 -41.2309 196.352ZM-27.7008 196.352L-27.6747 196.379L-21.5932 202.822C-21.1196 203.324 -21.1235 204.133 -21.6018 204.63C-22.0714 205.118 -22.8238 205.123 -23.2992 204.648L-23.3253 204.621L-29.4068 198.178C-29.8804 197.676 -29.8765 196.867 -29.3982 196.37C-28.9286 195.882 -28.1762 195.877 -27.7008 196.352ZM-14.1707 196.352L-14.1446 196.379L-8.06314 202.822C-7.58957 203.324 -7.59341 204.133 -8.07173 204.63C-8.54135 205.118 -9.29373 205.123 -9.76913 204.648L-9.79526 204.621L-15.8767 198.178C-16.3503 197.676 -16.3464 196.867 -15.8681 196.37C-15.3985 195.882 -14.6461 195.877 -14.1707 196.352ZM-0.640671 196.352L-0.614548 196.379L5.46692 202.822C5.94049 203.324 5.93665 204.133 5.45833 204.63C4.98871 205.118 4.23633 205.123 3.76093 204.648L3.73482 204.621L-2.34666 198.178C-2.82024 197.676 -2.81639 196.867 -2.33807 196.37C-1.86845 195.882 -1.11607 195.877 -0.640671 196.352ZM12.8894 196.352L12.9155 196.379L18.997 202.822C19.4706 203.324 19.4667 204.133 18.9884 204.63C18.5188 205.118 17.7664 205.123 17.291 204.648L17.2649 204.621L11.1834 198.178C10.7098 197.676 10.7137 196.867 11.192 196.37C11.6616 195.882 12.414 195.877 12.8894 196.352ZM26.4195 196.352L26.4456 196.379L32.5271 202.822C33.0006 203.324 32.9968 204.133 32.5185 204.63C32.0488 205.118 31.2965 205.123 30.8211 204.648L30.7949 204.621L24.7135 198.178C24.2399 197.676 24.2437 196.867 24.7221 196.37C25.1917 195.882 25.9441 195.877 26.4195 196.352ZM39.9495 196.352L39.9757 196.379L46.0571 202.822C46.5307 203.324 46.5269 204.133 46.0485 204.63C45.5789 205.118 44.8265 205.123 44.3511 204.648L44.325 204.621L38.2435 198.178C37.77 197.676 37.7738 196.867 38.2521 196.37C38.7218 195.882 39.4741 195.877 39.9495 196.352ZM53.4796 196.352L53.5057 196.379L59.5872 202.822C60.0608 203.324 60.0569 204.133 59.5786 204.63C59.109 205.118 58.3566 205.123 57.8812 204.648L57.8551 204.621L51.7736 198.178C51.3 197.676 51.3039 196.867 51.7822 196.37C52.2518 195.882 53.0042 195.877 53.4796 196.352ZM67.0097 196.352L67.0358 196.379L73.1173 202.822C73.5908 203.324 73.587 204.133 73.1087 204.63C72.6391 205.118 71.8867 205.123 71.4113 204.648L71.3851 204.621L65.3037 198.178C64.8301 197.676 64.834 196.867 65.3123 196.37C65.7819 195.882 66.5343 195.877 67.0097 196.352ZM80.5397 196.352L80.5659 196.379L86.6473 202.822C87.1209 203.324 87.1171 204.133 86.6387 204.63C86.1691 205.118 85.4167 205.123 84.9413 204.648L84.9152 204.621L78.8337 198.178C78.3602 197.676 78.364 196.867 78.8423 196.37C79.312 195.882 80.0643 195.877 80.5397 196.352Z" fill="#009DC4"/>
<path d="M-135.941 210.352L-135.915 210.379L-129.834 216.822C-129.36 217.324 -129.364 218.133 -129.842 218.63C-130.312 219.118 -131.064 219.123 -131.54 218.648L-131.566 218.621L-137.647 212.178C-138.121 211.676 -138.117 210.867 -137.639 210.37C-137.169 209.882 -136.417 209.877 -135.941 210.352ZM-122.411 210.352L-122.385 210.379L-116.304 216.822C-115.83 217.324 -115.834 218.133 -116.312 218.63C-116.782 219.118 -117.534 219.123 -118.01 218.648L-118.036 218.621L-124.117 212.178C-124.591 211.676 -124.587 210.867 -124.109 210.37C-123.639 209.882 -122.887 209.877 -122.411 210.352ZM-108.881 210.352L-108.855 210.379L-102.774 216.822C-102.3 217.324 -102.304 218.133 -102.782 218.63C-103.252 219.118 -104.004 219.123 -104.48 218.648L-104.506 218.621L-110.587 212.178C-111.061 211.676 -111.057 210.867 -110.579 210.37C-110.109 209.882 -109.357 209.877 -108.881 210.352ZM-95.3511 210.352L-95.325 210.379L-89.2435 216.822C-88.77 217.324 -88.7738 218.133 -89.2521 218.63C-89.7217 219.118 -90.4741 219.123 -90.9495 218.648L-90.9757 218.621L-97.0571 212.178C-97.5307 211.676 -97.5268 210.867 -97.0485 210.37C-96.5789 209.882 -95.8265 209.877 -95.3511 210.352ZM-81.8211 210.352L-81.7949 210.379L-75.7135 216.822C-75.2399 217.324 -75.2438 218.133 -75.7221 218.63C-76.1917 219.118 -76.9441 219.123 -77.4195 218.648L-77.4456 218.621L-83.5271 212.178C-84.0006 211.676 -83.9968 210.867 -83.5185 210.37C-83.0489 209.882 -82.2965 209.877 -81.8211 210.352ZM-68.291 210.352L-68.2649 210.379L-62.1834 216.822C-61.7098 217.324 -61.7137 218.133 -62.192 218.63C-62.6616 219.118 -63.414 219.123 -63.8894 218.648L-63.9155 218.621L-69.997 212.178C-70.4706 211.676 -70.4667 210.867 -69.9884 210.37C-69.5188 209.882 -68.7664 209.877 -68.291 210.352ZM-54.7609 210.352L-54.7348 210.379L-48.6533 216.822C-48.1798 217.324 -48.1836 218.133 -48.6619 218.63C-49.1315 219.118 -49.8839 219.123 -50.3593 218.648L-50.3855 218.621L-56.4669 212.178C-56.9405 211.676 -56.9366 210.867 -56.4583 210.37C-55.9887 209.882 -55.2363 209.877 -54.7609 210.352ZM-41.2309 210.352L-41.2047 210.379L-35.1233 216.822C-34.6497 217.324 -34.6536 218.133 -35.1319 218.63C-35.6015 219.118 -36.3539 219.123 -36.8293 218.648L-36.8554 218.621L-42.9369 212.178C-43.4104 211.676 -43.4066 210.867 -42.9283 210.37C-42.4587 209.882 -41.7063 209.877 -41.2309 210.352ZM-27.7008 210.352L-27.6747 210.379L-21.5932 216.822C-21.1196 217.324 -21.1235 218.133 -21.6018 218.63C-22.0714 219.118 -22.8238 219.123 -23.2992 218.648L-23.3253 218.621L-29.4068 212.178C-29.8804 211.676 -29.8765 210.867 -29.3982 210.37C-28.9286 209.882 -28.1762 209.877 -27.7008 210.352ZM-14.1707 210.352L-14.1446 210.379L-8.06314 216.822C-7.58957 217.324 -7.59341 218.133 -8.07173 218.63C-8.54135 219.118 -9.29373 219.123 -9.76913 218.648L-9.79526 218.621L-15.8767 212.178C-16.3503 211.676 -16.3464 210.867 -15.8681 210.37C-15.3985 209.882 -14.6461 209.877 -14.1707 210.352ZM-0.640671 210.352L-0.614548 210.379L5.46692 216.822C5.94049 217.324 5.93665 218.133 5.45833 218.63C4.98871 219.118 4.23633 219.123 3.76093 218.648L3.73482 218.621L-2.34666 212.178C-2.82024 211.676 -2.81639 210.867 -2.33807 210.37C-1.86845 209.882 -1.11607 209.877 -0.640671 210.352ZM12.8894 210.352L12.9155 210.379L18.997 216.822C19.4706 217.324 19.4667 218.133 18.9884 218.63C18.5188 219.118 17.7664 219.123 17.291 218.648L17.2649 218.621L11.1834 212.178C10.7098 211.676 10.7137 210.867 11.192 210.37C11.6616 209.882 12.414 209.877 12.8894 210.352ZM26.4195 210.352L26.4456 210.379L32.5271 216.822C33.0006 217.324 32.9968 218.133 32.5185 218.63C32.0488 219.118 31.2965 219.123 30.8211 218.648L30.7949 218.621L24.7135 212.178C24.2399 211.676 24.2437 210.867 24.7221 210.37C25.1917 209.882 25.9441 209.877 26.4195 210.352ZM39.9495 210.352L39.9757 210.379L46.0571 216.822C46.5307 217.324 46.5269 218.133 46.0485 218.63C45.5789 219.118 44.8265 219.123 44.3511 218.648L44.325 218.621L38.2435 212.178C37.77 211.676 37.7738 210.867 38.2521 210.37C38.7218 209.882 39.4741 209.877 39.9495 210.352ZM53.4796 210.352L53.5057 210.379L59.5872 216.822C60.0608 217.324 60.0569 218.133 59.5786 218.63C59.109 219.118 58.3566 219.123 57.8812 218.648L57.8551 218.621L51.7736 212.178C51.3 211.676 51.3039 210.867 51.7822 210.37C52.2518 209.882 53.0042 209.877 53.4796 210.352ZM67.0097 210.352L67.0358 210.379L73.1173 216.822C73.5908 217.324 73.587 218.133 73.1087 218.63C72.6391 219.118 71.8867 219.123 71.4113 218.648L71.3851 218.621L65.3037 212.178C64.8301 211.676 64.834 210.867 65.3123 210.37C65.7819 209.882 66.5343 209.877 67.0097 210.352ZM80.5397 210.352L80.5659 210.379L86.6473 216.822C87.1209 217.324 87.1171 218.133 86.6387 218.63C86.1691 219.118 85.4167 219.123 84.9413 218.648L84.9152 218.621L78.8337 212.178C78.3602 211.676 78.364 210.867 78.8423 210.37C79.312 209.882 80.0643 209.877 80.5397 210.352Z" fill="#009DC4"/>
</svg>
