<svg width="75" height="61" viewBox="0 0 75 61" fill="none" xmlns="http://www.w3.org/2000/svg">
<path opacity="0.3" d="M37.2093 1.63328e-06C57.7594 7.35009e-07 75 27.2971 75 47.9781C75 68.6591 57.7594 58.5098 37.2093 58.5098C16.6592 58.5098 -1.2557e-07 58.1273 -1.02957e-06 37.4463C-1.93356e-06 16.7653 16.6592 2.53156e-06 37.2093 1.63328e-06Z" fill="#FFC701"/>
<path d="M52.2606 26.4689C53.75 24.9795 53.75 22.5853 53.75 17.7917C53.75 12.9981 53.75 10.6038 52.2606 9.11442M52.2606 26.4689C50.7712 27.9583 48.3769 27.9583 43.5833 27.9583H33.4167C28.6231 27.9583 26.2288 27.9583 24.7394 26.4689M52.2606 9.11442C50.7712 7.625 48.3769 7.625 43.5833 7.625H33.4167C28.6231 7.625 26.2288 7.625 24.7394 9.11442M24.7394 9.11442C23.25 10.6038 23.25 12.9981 23.25 17.7917C23.25 22.5853 23.25 24.9795 24.7394 26.4689M41.0417 17.7917C41.0417 18.4658 40.7739 19.1122 40.2972 19.5889C39.8206 20.0656 39.1741 20.3333 38.5 20.3333C37.8259 20.3333 37.1794 20.0656 36.7028 19.5889C36.2261 19.1122 35.9583 18.4658 35.9583 17.7917C35.9583 17.1176 36.2261 16.4711 36.7028 15.9944C37.1794 15.5178 37.8259 15.25 38.5 15.25C39.1741 15.25 39.8206 15.5178 40.2972 15.9944C40.7739 16.4711 41.0417 17.1176 41.0417 17.7917Z" stroke="black" stroke-width="4"/>
<path d="M53.7499 15.25C51.7276 15.25 49.7882 14.4467 48.3582 13.0167C46.9283 11.5867 46.1249 9.64728 46.1249 7.625M53.7499 20.3333C51.7276 20.3333 49.7882 21.1367 48.3582 22.5666C46.9283 23.9966 46.1249 25.9361 46.1249 27.9583M23.2499 15.25C25.2722 15.25 27.2116 14.4467 28.6416 13.0167C30.0716 11.5867 30.8749 9.64728 30.8749 7.625M23.2499 20.3333C25.2722 20.3333 27.2116 21.1367 28.6416 22.5666C30.0716 23.9966 30.8749 25.9361 30.8749 27.9583M20.7083 51.8195H26.4524C29.0195 51.8195 31.6196 52.0889 34.1181 52.6023C38.5787 53.5187 43.1684 53.6203 47.6652 52.9022C49.8713 52.5464 52.0368 52 53.999 51.0545C55.768 50.1979 57.936 48.9957 59.3924 47.6461C60.8462 46.299 62.3611 44.0954 63.4337 42.3721C64.3588 40.8929 63.9115 39.0807 62.4526 37.9801C61.6328 37.3838 60.6451 37.0626 59.6313 37.0626C58.6176 37.0626 57.6299 37.3838 56.8101 37.9801L52.2173 41.4495C50.4381 42.7966 48.4937 44.0344 46.1783 44.4029C45.8987 44.4461 45.6064 44.4868 45.3014 44.5224M45.3014 44.5224C45.2083 44.5332 45.1151 44.5433 45.0218 44.5529M45.3014 44.5224C45.7082 44.4124 46.0812 44.2027 46.3867 43.9124C46.7697 43.581 47.0825 43.1763 47.3065 42.7222C47.5306 42.268 47.6614 41.7735 47.6912 41.268C47.7211 40.7624 47.6494 40.256 47.4803 39.7786C47.3113 39.3013 47.0483 38.8626 46.707 38.4885C46.3758 38.1208 45.99 37.8062 45.5632 37.5557C38.4542 33.3136 27.3903 36.5441 20.7083 41.2843M45.3014 44.5224C45.2096 44.5424 45.1158 44.5526 45.0218 44.5529M45.0218 44.5529C43.489 44.7069 41.9448 44.7103 40.4113 44.563" stroke="black" stroke-width="4" stroke-linecap="round"/>
<path d="M20.7083 39.3959C20.7083 37.2903 19.0013 35.5834 16.8958 35.5834C14.7902 35.5834 13.0833 37.2903 13.0833 39.3959V52.1042C13.0833 54.2098 14.7902 55.9167 16.8958 55.9167C19.0013 55.9167 20.7083 54.2098 20.7083 52.1042V39.3959Z" stroke="#009DC4" stroke-width="4"/>
</svg>
