<svg width="401" height="615" viewBox="0 0 401 615" fill="none" xmlns="http://www.w3.org/2000/svg">
<circle cx="390" cy="307" r="292.5" fill="#FFFDF8" stroke="#FFC701"/>
<circle cx="389.5" cy="306.5" r="198" fill="#FFFAE7" stroke="#FFC701"/>
<circle cx="389.5" cy="306.5" r="107" fill="#FFF5D4" stroke="#FFC701"/>
<path d="M365 345.55L365 353.86L363.14 353.86L362.39 351.31L346.22 351.31L345.44 353.86L343.58 353.86L343.58 345.55L345.44 345.55L346.22 348.07L362.39 348.07L363.14 345.55L365 345.55ZM365 323.965L365 327.895L347.69 338.725L347.69 338.845C348.49 338.805 349.41 338.755 350.45 338.695C351.47 338.635 352.52 338.605 353.6 338.605L365 338.605L365 341.545L343.58 341.545L343.58 337.645L360.8 326.845L360.8 326.755C360.38 326.775 359.85 326.805 359.21 326.845C358.57 326.865 357.89 326.885 357.17 326.905C356.43 326.925 355.74 326.945 355.1 326.965L343.58 326.965L343.58 323.965L365 323.965ZM343.58 302.654L365 310.214L365 313.574L343.58 321.104L343.58 317.774L357.02 313.184C357.74 312.924 358.53 312.674 359.39 312.434C360.25 312.194 361.03 312.014 361.73 311.894C361.03 311.774 360.25 311.594 359.39 311.354C358.53 311.114 357.73 310.864 356.99 310.604L343.58 306.014L343.58 302.654ZM365 287.736L365 299.796L343.58 299.796L343.58 287.736L346.34 287.736L346.34 296.556L352.46 296.556L352.46 288.276L355.19 288.276L355.19 296.556L362.21 296.556L362.21 287.736L365 287.736ZM359.21 270.797C361.11 270.797 362.6 271.487 363.68 272.867C364.76 274.247 365.3 276.137 365.3 278.537C365.3 279.697 365.2 280.797 365 281.837C364.82 282.857 364.55 283.727 364.19 284.447L361.13 284.447C361.49 283.647 361.82 282.707 362.12 281.627C362.4 280.547 362.54 279.447 362.54 278.327C362.54 276.887 362.26 275.807 361.7 275.087C361.14 274.367 360.39 274.007 359.45 274.007C358.79 274.007 358.24 274.177 357.8 274.517C357.34 274.837 356.92 275.347 356.54 276.047C356.16 276.747 355.74 277.667 355.28 278.807C354.88 279.867 354.41 280.807 353.87 281.627C353.33 282.427 352.66 283.057 351.86 283.517C351.06 283.977 350.08 284.207 348.92 284.207C347.16 284.207 345.78 283.567 344.78 282.287C343.78 281.007 343.28 279.327 343.28 277.247C343.28 276.087 343.4 275.017 343.64 274.037C343.86 273.037 344.17 272.087 344.57 271.187L347.24 272.207C346.9 273.027 346.62 273.867 346.4 274.727C346.18 275.567 346.07 276.437 346.07 277.337C346.07 278.517 346.33 279.417 346.85 280.037C347.37 280.657 348.05 280.967 348.89 280.967C349.55 280.967 350.11 280.817 350.57 280.517C351.01 280.217 351.41 279.737 351.77 279.077C352.13 278.417 352.53 277.547 352.97 276.467C353.45 275.267 353.96 274.247 354.5 273.407C355.02 272.547 355.66 271.897 356.42 271.457C357.16 271.017 358.09 270.797 359.21 270.797ZM365 259.403L365 262.643L346.37 262.643L346.37 269.063L343.58 269.063L343.58 252.983L346.37 252.983L346.37 259.403L365 259.403Z" fill="black"/>
<circle cx="330" cy="593" r="4" fill="black"/>
<g filter="url(#filter0_d_3245_2725)">
<rect x="217" y="551" width="144" height="38" rx="4" fill="white"/>
</g>
<path d="M248.838 564.004L246.178 574H244.904L242.958 567.448C242.883 567.177 242.809 566.907 242.734 566.636C242.659 566.365 242.599 566.127 242.552 565.922C242.505 565.707 242.473 565.558 242.454 565.474C242.445 565.595 242.393 565.857 242.3 566.258C242.216 566.65 242.109 567.061 241.978 567.49L240.088 574H238.814L236.168 564.004H237.484L239.038 570.108C239.15 570.537 239.243 570.953 239.318 571.354C239.402 571.755 239.467 572.133 239.514 572.488C239.561 572.124 239.631 571.727 239.724 571.298C239.817 570.869 239.925 570.449 240.046 570.038L241.81 564.004H243.112L244.946 570.08C245.077 570.509 245.189 570.939 245.282 571.368C245.375 571.788 245.445 572.161 245.492 572.488C245.539 572.143 245.604 571.769 245.688 571.368C245.772 570.957 245.87 570.533 245.982 570.094L247.522 564.004H248.838ZM250.836 563.682C251.022 563.682 251.186 563.747 251.326 563.878C251.475 563.999 251.55 564.195 251.55 564.466C251.55 564.727 251.475 564.923 251.326 565.054C251.186 565.185 251.022 565.25 250.836 565.25C250.63 565.25 250.458 565.185 250.318 565.054C250.178 564.923 250.108 564.727 250.108 564.466C250.108 564.195 250.178 563.999 250.318 563.878C250.458 563.747 250.63 563.682 250.836 563.682ZM251.438 566.496V574H250.206V566.496H251.438ZM256.321 573.132C256.508 573.132 256.699 573.118 256.895 573.09C257.091 573.053 257.25 573.015 257.371 572.978V573.916C257.24 573.981 257.054 574.033 256.811 574.07C256.568 574.117 256.335 574.14 256.111 574.14C255.719 574.14 255.355 574.075 255.019 573.944C254.692 573.804 254.426 573.566 254.221 573.23C254.016 572.894 253.913 572.423 253.913 571.816V567.448H252.849V566.86L253.927 566.37L254.417 564.774H255.145V566.496H257.315V567.448H255.145V571.788C255.145 572.245 255.252 572.586 255.467 572.81C255.691 573.025 255.976 573.132 256.321 573.132ZM260.106 566.482C260.106 566.855 260.082 567.205 260.036 567.532H260.12C260.362 567.149 260.689 566.86 261.1 566.664C261.52 566.468 261.972 566.37 262.458 566.37C263.372 566.37 264.058 566.589 264.516 567.028C264.973 567.457 265.202 568.153 265.202 569.114V574H263.984V569.198C263.984 567.994 263.424 567.392 262.304 567.392C261.464 567.392 260.885 567.63 260.568 568.106C260.26 568.573 260.106 569.245 260.106 570.122V574H258.874V563.36H260.106V566.482ZM270.188 574.14C269.255 574.14 268.508 573.818 267.948 573.174C267.388 572.521 267.108 571.55 267.108 570.262C267.108 568.974 267.388 568.003 267.948 567.35C268.517 566.687 269.269 566.356 270.202 566.356C270.781 566.356 271.252 566.463 271.616 566.678C271.989 566.893 272.293 567.154 272.526 567.462H272.61C272.601 567.341 272.582 567.163 272.554 566.93C272.535 566.687 272.526 566.496 272.526 566.356V563.36H273.758V574H272.764L272.582 572.992H272.526C272.302 573.309 272.003 573.58 271.63 573.804C271.257 574.028 270.776 574.14 270.188 574.14ZM270.384 573.118C271.177 573.118 271.733 572.903 272.05 572.474C272.377 572.035 272.54 571.377 272.54 570.5V570.276C272.54 569.343 272.386 568.629 272.078 568.134C271.77 567.63 271.201 567.378 270.37 567.378C269.707 567.378 269.208 567.644 268.872 568.176C268.545 568.699 268.382 569.403 268.382 570.29C268.382 571.186 268.545 571.881 268.872 572.376C269.208 572.871 269.712 573.118 270.384 573.118ZM279.641 566.356C279.781 566.356 279.931 566.365 280.089 566.384C280.257 566.393 280.402 566.412 280.523 566.44L280.369 567.574C280.248 567.546 280.113 567.523 279.963 567.504C279.823 567.485 279.688 567.476 279.557 567.476C279.175 567.476 278.815 567.583 278.479 567.798C278.143 568.003 277.873 568.297 277.667 568.68C277.471 569.053 277.373 569.492 277.373 569.996V574H276.141V566.496H277.149L277.289 567.868H277.345C277.588 567.457 277.901 567.103 278.283 566.804C278.666 566.505 279.119 566.356 279.641 566.356ZM284.493 566.37C285.408 566.37 286.084 566.571 286.523 566.972C286.962 567.373 287.181 568.013 287.181 568.89V574H286.285L286.047 572.936H285.991C285.664 573.347 285.319 573.65 284.955 573.846C284.6 574.042 284.106 574.14 283.471 574.14C282.79 574.14 282.225 573.963 281.777 573.608C281.329 573.244 281.105 572.679 281.105 571.914C281.105 571.167 281.399 570.593 281.987 570.192C282.575 569.781 283.48 569.557 284.703 569.52L285.977 569.478V569.03C285.977 568.405 285.842 567.971 285.571 567.728C285.3 567.485 284.918 567.364 284.423 567.364C284.031 567.364 283.658 567.425 283.303 567.546C282.948 567.658 282.617 567.789 282.309 567.938L281.931 567.014C282.258 566.837 282.645 566.687 283.093 566.566C283.541 566.435 284.008 566.37 284.493 566.37ZM284.857 570.374C283.924 570.411 283.275 570.561 282.911 570.822C282.556 571.083 282.379 571.452 282.379 571.928C282.379 572.348 282.505 572.656 282.757 572.852C283.018 573.048 283.35 573.146 283.751 573.146C284.386 573.146 284.913 572.973 285.333 572.628C285.753 572.273 285.963 571.732 285.963 571.004V570.332L284.857 570.374ZM294.343 569.758C294.221 569.375 294.114 569.002 294.021 568.638C293.937 568.265 293.871 567.975 293.825 567.77H293.769C293.731 567.975 293.671 568.265 293.587 568.638C293.503 569.002 293.395 569.38 293.265 569.772L291.921 573.986H290.521L288.463 566.482H289.737L290.773 570.486C290.875 570.887 290.973 571.293 291.067 571.704C291.16 572.115 291.225 572.455 291.263 572.726H291.319C291.356 572.567 291.398 572.371 291.445 572.138C291.501 571.905 291.561 571.662 291.627 571.41C291.692 571.149 291.757 570.915 291.823 570.71L293.153 566.482H294.497L295.785 570.71C295.887 571.027 295.985 571.373 296.079 571.746C296.181 572.119 296.251 572.441 296.289 572.712H296.345C296.373 572.479 296.433 572.157 296.527 571.746C296.629 571.335 296.737 570.915 296.849 570.486L297.899 566.482H299.159L297.073 573.986H295.631L294.343 569.758ZM305.569 574H304.309V564.004H309.895V565.11H305.569V568.652H309.629V569.758H305.569V574ZM317.673 566.496V574H316.665L316.483 573.006H316.427C316.184 573.398 315.848 573.687 315.419 573.874C314.99 574.051 314.532 574.14 314.047 574.14C313.142 574.14 312.46 573.925 312.003 573.496C311.546 573.057 311.317 572.362 311.317 571.41V566.496H312.563V571.326C312.563 572.521 313.118 573.118 314.229 573.118C315.06 573.118 315.634 572.885 315.951 572.418C316.278 571.951 316.441 571.279 316.441 570.402V566.496H317.673ZM323.667 566.356C324.563 566.356 325.24 566.575 325.697 567.014C326.155 567.443 326.383 568.143 326.383 569.114V574H325.165V569.198C325.165 567.994 324.605 567.392 323.485 567.392C322.655 567.392 322.081 567.625 321.763 568.092C321.446 568.559 321.287 569.231 321.287 570.108V574H320.055V566.496H321.049L321.231 567.518H321.301C321.544 567.126 321.88 566.837 322.309 566.65C322.739 566.454 323.191 566.356 323.667 566.356ZM331.37 574.14C330.436 574.14 329.69 573.818 329.13 573.174C328.57 572.521 328.29 571.55 328.29 570.262C328.29 568.974 328.57 568.003 329.13 567.35C329.699 566.687 330.45 566.356 331.384 566.356C331.962 566.356 332.434 566.463 332.798 566.678C333.171 566.893 333.474 567.154 333.708 567.462H333.792C333.782 567.341 333.764 567.163 333.736 566.93C333.717 566.687 333.708 566.496 333.708 566.356V563.36H334.94V574H333.946L333.764 572.992H333.708C333.484 573.309 333.185 573.58 332.812 573.804C332.438 574.028 331.958 574.14 331.37 574.14ZM331.566 573.118C332.359 573.118 332.914 572.903 333.232 572.474C333.558 572.035 333.722 571.377 333.722 570.5V570.276C333.722 569.343 333.568 568.629 333.26 568.134C332.952 567.63 332.382 567.378 331.552 567.378C330.889 567.378 330.39 567.644 330.054 568.176C329.727 568.699 329.564 569.403 329.564 570.29C329.564 571.186 329.727 571.881 330.054 572.376C330.39 572.871 330.894 573.118 331.566 573.118ZM342.209 571.928C342.209 572.656 341.938 573.207 341.397 573.58C340.855 573.953 340.127 574.14 339.213 574.14C338.69 574.14 338.237 574.098 337.855 574.014C337.481 573.93 337.15 573.813 336.861 573.664V572.544C337.159 572.693 337.519 572.833 337.939 572.964C338.368 573.085 338.802 573.146 339.241 573.146C339.866 573.146 340.319 573.048 340.599 572.852C340.879 572.647 341.019 572.376 341.019 572.04C341.019 571.853 340.967 571.685 340.865 571.536C340.762 571.387 340.575 571.237 340.305 571.088C340.043 570.939 339.665 570.771 339.171 570.584C338.685 570.397 338.27 570.211 337.925 570.024C337.579 569.837 337.313 569.613 337.127 569.352C336.94 569.091 336.847 568.755 336.847 568.344C336.847 567.709 337.103 567.219 337.617 566.874C338.139 566.529 338.821 566.356 339.661 566.356C340.118 566.356 340.543 566.403 340.935 566.496C341.336 566.58 341.709 566.701 342.055 566.86L341.635 567.84C341.317 567.709 340.986 567.597 340.641 567.504C340.295 567.411 339.941 567.364 339.577 567.364C339.073 567.364 338.685 567.448 338.415 567.616C338.153 567.775 338.023 567.994 338.023 568.274C338.023 568.479 338.083 568.657 338.205 568.806C338.326 568.946 338.527 569.086 338.807 569.226C339.096 569.357 339.479 569.515 339.955 569.702C340.431 569.879 340.837 570.061 341.173 570.248C341.509 570.435 341.765 570.663 341.943 570.934C342.12 571.195 342.209 571.527 342.209 571.928Z" fill="black"/>
<g filter="url(#filter1_d_3245_2725)">
<circle cx="132.5" cy="451.5" r="25.5" fill="white"/>
</g>
<path d="M130.144 461V458.611C128.916 458.389 127.856 457.963 126.965 457.333C126.072 456.704 125.417 455.815 125 454.667L127.572 453.833C127.92 454.722 128.436 455.398 129.12 455.861C129.803 456.324 130.701 456.556 131.813 456.556C132.763 456.556 133.568 456.384 134.229 456.042C134.889 455.699 135.219 455.167 135.219 454.444C135.219 453.796 134.964 453.282 134.455 452.902C133.945 452.523 132.763 452.093 130.909 451.611C128.916 451.111 127.549 450.514 126.807 449.82C126.066 449.125 125.695 448.278 125.695 447.278C125.695 446.074 126.182 445.139 127.155 444.472C128.128 443.806 129.125 443.426 130.144 443.333V441H132.925V443.333C134.084 443.481 135.04 443.819 135.793 444.347C136.546 444.875 137.096 445.519 137.444 446.278L134.872 447.167C134.594 446.574 134.2 446.13 133.69 445.833C133.18 445.537 132.485 445.389 131.604 445.389C130.585 445.389 129.808 445.57 129.275 445.931C128.742 446.292 128.476 446.741 128.476 447.278C128.476 447.889 128.824 448.37 129.519 448.722C130.214 449.074 131.419 449.444 133.134 449.833C134.733 450.204 135.944 450.791 136.767 451.597C137.589 452.403 138 453.333 138 454.389C138 455.704 137.513 456.704 136.54 457.389C135.567 458.074 134.362 458.5 132.925 458.667V461H130.144Z" fill="#9B3A3A"/>
<circle cx="279" cy="470" r="4" fill="black"/>
<circle cx="99" cy="317" r="4" fill="black"/>
<circle cx="237" cy="181" r="4" fill="black"/>
<g filter="url(#filter2_d_3245_2725)">
<rect x="241" y="427" width="76" height="38" rx="4" fill="white"/>
</g>
<g filter="url(#filter3_d_3245_2725)">
<rect x="26" y="274" width="157" height="38" rx="4" fill="white"/>
</g>
<g filter="url(#filter4_d_3245_2725)">
<rect x="184" y="138" width="119" height="38" rx="4" fill="white"/>
</g>
<path d="M261.522 451H260.262V442.11H257.14V441.004H264.63V442.11H261.522V451ZM267.883 443.356C268.527 443.356 269.078 443.496 269.535 443.776C270.002 444.056 270.356 444.453 270.599 444.966C270.851 445.47 270.977 446.063 270.977 446.744V447.486H265.839C265.858 448.335 266.072 448.984 266.483 449.432C266.903 449.871 267.486 450.09 268.233 450.09C268.709 450.09 269.129 450.048 269.493 449.964C269.866 449.871 270.249 449.74 270.641 449.572V450.65C270.258 450.818 269.88 450.939 269.507 451.014C269.134 451.098 268.69 451.14 268.177 451.14C267.468 451.14 266.838 450.995 266.287 450.706C265.746 450.417 265.321 449.987 265.013 449.418C264.714 448.839 264.565 448.135 264.565 447.304C264.565 446.483 264.7 445.778 264.971 445.19C265.251 444.602 265.638 444.149 266.133 443.832C266.637 443.515 267.22 443.356 267.883 443.356ZM267.869 444.364C267.281 444.364 266.814 444.555 266.469 444.938C266.133 445.311 265.932 445.834 265.867 446.506H269.689C269.68 445.871 269.53 445.358 269.241 444.966C268.952 444.565 268.494 444.364 267.869 444.364ZM276.499 443.356C277.395 443.356 278.072 443.575 278.529 444.014C278.987 444.443 279.215 445.143 279.215 446.114V451H277.997V446.198C277.997 444.994 277.437 444.392 276.317 444.392C275.487 444.392 274.913 444.625 274.595 445.092C274.278 445.559 274.119 446.231 274.119 447.108V451H272.887V443.496H273.881L274.063 444.518H274.133C274.376 444.126 274.712 443.837 275.141 443.65C275.571 443.454 276.023 443.356 276.499 443.356ZM287.814 443.496V451H286.806L286.624 450.006H286.568C286.325 450.398 285.989 450.687 285.56 450.874C285.13 451.051 284.673 451.14 284.188 451.14C283.282 451.14 282.601 450.925 282.144 450.496C281.686 450.057 281.458 449.362 281.458 448.41V443.496H282.704V448.326C282.704 449.521 283.259 450.118 284.37 450.118C285.2 450.118 285.774 449.885 286.092 449.418C286.418 448.951 286.582 448.279 286.582 447.402V443.496H287.814ZM293.696 443.356C293.836 443.356 293.985 443.365 294.144 443.384C294.312 443.393 294.457 443.412 294.578 443.44L294.424 444.574C294.303 444.546 294.167 444.523 294.018 444.504C293.878 444.485 293.743 444.476 293.612 444.476C293.229 444.476 292.87 444.583 292.534 444.798C292.198 445.003 291.927 445.297 291.722 445.68C291.526 446.053 291.428 446.492 291.428 446.996V451H290.196V443.496H291.204L291.344 444.868H291.4C291.643 444.457 291.955 444.103 292.338 443.804C292.721 443.505 293.173 443.356 293.696 443.356ZM298.604 443.356C299.248 443.356 299.798 443.496 300.256 443.776C300.722 444.056 301.077 444.453 301.32 444.966C301.572 445.47 301.698 446.063 301.698 446.744V447.486H296.56C296.578 448.335 296.793 448.984 297.204 449.432C297.624 449.871 298.207 450.09 298.954 450.09C299.43 450.09 299.85 450.048 300.214 449.964C300.587 449.871 300.97 449.74 301.362 449.572V450.65C300.979 450.818 300.601 450.939 300.228 451.014C299.854 451.098 299.411 451.14 298.898 451.14C298.188 451.14 297.558 450.995 297.008 450.706C296.466 450.417 296.042 449.987 295.734 449.418C295.435 448.839 295.286 448.135 295.286 447.304C295.286 446.483 295.421 445.778 295.692 445.19C295.972 444.602 296.359 444.149 296.854 443.832C297.358 443.515 297.941 443.356 298.604 443.356ZM298.59 444.364C298.002 444.364 297.535 444.555 297.19 444.938C296.854 445.311 296.653 445.834 296.588 446.506H300.41C300.4 445.871 300.251 445.358 299.962 444.966C299.672 444.565 299.215 444.364 298.59 444.364Z" fill="black"/>
<path d="M53.028 295.326C53.028 296.213 52.706 296.903 52.062 297.398C51.418 297.893 50.55 298.14 49.458 298.14C48.898 298.14 48.38 298.098 47.904 298.014C47.428 297.93 47.0313 297.813 46.714 297.664V296.46C47.05 296.609 47.4653 296.745 47.96 296.866C48.464 296.987 48.982 297.048 49.514 297.048C50.2607 297.048 50.8207 296.903 51.194 296.614C51.5767 296.325 51.768 295.933 51.768 295.438C51.768 295.111 51.698 294.836 51.558 294.612C51.418 294.388 51.1753 294.183 50.83 293.996C50.494 293.8 50.0227 293.595 49.416 293.38C48.5667 293.072 47.9227 292.694 47.484 292.246C47.0547 291.798 46.84 291.187 46.84 290.412C46.84 289.88 46.9753 289.427 47.246 289.054C47.5167 288.671 47.89 288.377 48.366 288.172C48.8513 287.967 49.4067 287.864 50.032 287.864C50.5827 287.864 51.0867 287.915 51.544 288.018C52.0013 288.121 52.4167 288.256 52.79 288.424L52.398 289.502C52.0527 289.353 51.6747 289.227 51.264 289.124C50.8627 289.021 50.4427 288.97 50.004 288.97C49.3787 288.97 48.9073 289.105 48.59 289.376C48.2727 289.637 48.114 289.987 48.114 290.426C48.114 290.762 48.184 291.042 48.324 291.266C48.464 291.49 48.6927 291.691 49.01 291.868C49.3273 292.045 49.7567 292.237 50.298 292.442C50.886 292.657 51.3807 292.89 51.782 293.142C52.1927 293.385 52.5007 293.679 52.706 294.024C52.9207 294.369 53.028 294.803 53.028 295.326ZM63.1056 290.356C63.9549 290.356 64.5896 290.575 65.0096 291.014C65.4296 291.443 65.6396 292.143 65.6396 293.114V298H64.4216V293.17C64.4216 291.985 63.9129 291.392 62.8956 291.392C62.1676 291.392 61.6449 291.602 61.3276 292.022C61.0196 292.442 60.8656 293.053 60.8656 293.856V298H59.6476V293.17C59.6476 291.985 59.1343 291.392 58.1076 291.392C57.3516 291.392 56.8289 291.625 56.5396 292.092C56.2503 292.559 56.1056 293.231 56.1056 294.108V298H54.8736V290.496H55.8676L56.0496 291.518H56.1196C56.3529 291.126 56.6656 290.837 57.0576 290.65C57.4589 290.454 57.8836 290.356 58.3316 290.356C59.5076 290.356 60.2729 290.776 60.6276 291.616H60.6976C60.9496 291.187 61.2903 290.869 61.7196 290.664C62.1583 290.459 62.6203 290.356 63.1056 290.356ZM70.7996 290.37C71.7142 290.37 72.3909 290.571 72.8296 290.972C73.2682 291.373 73.4876 292.013 73.4876 292.89V298H72.5916L72.3536 296.936H72.2976C71.9709 297.347 71.6256 297.65 71.2616 297.846C70.9069 298.042 70.4122 298.14 69.7776 298.14C69.0962 298.14 68.5316 297.963 68.0836 297.608C67.6356 297.244 67.4116 296.679 67.4116 295.914C67.4116 295.167 67.7056 294.593 68.2936 294.192C68.8816 293.781 69.7869 293.557 71.0096 293.52L72.2836 293.478V293.03C72.2836 292.405 72.1482 291.971 71.8776 291.728C71.6069 291.485 71.2242 291.364 70.7296 291.364C70.3376 291.364 69.9642 291.425 69.6096 291.546C69.2549 291.658 68.9236 291.789 68.6156 291.938L68.2376 291.014C68.5642 290.837 68.9516 290.687 69.3996 290.566C69.8476 290.435 70.3142 290.37 70.7996 290.37ZM71.1636 294.374C70.2302 294.411 69.5816 294.561 69.2176 294.822C68.8629 295.083 68.6856 295.452 68.6856 295.928C68.6856 296.348 68.8116 296.656 69.0636 296.852C69.3249 297.048 69.6562 297.146 70.0576 297.146C70.6922 297.146 71.2196 296.973 71.6396 296.628C72.0596 296.273 72.2696 295.732 72.2696 295.004V294.332L71.1636 294.374ZM79.3052 290.356C79.4452 290.356 79.5946 290.365 79.7532 290.384C79.9212 290.393 80.0659 290.412 80.1872 290.44L80.0332 291.574C79.9119 291.546 79.7766 291.523 79.6272 291.504C79.4872 291.485 79.3519 291.476 79.2212 291.476C78.8386 291.476 78.4792 291.583 78.1432 291.798C77.8072 292.003 77.5366 292.297 77.3312 292.68C77.1352 293.053 77.0372 293.492 77.0372 293.996V298H75.8052V290.496H76.8132L76.9532 291.868H77.0092C77.2519 291.457 77.5646 291.103 77.9472 290.804C78.3299 290.505 78.7826 290.356 79.3052 290.356ZM84.0944 297.132C84.2811 297.132 84.4724 297.118 84.6684 297.09C84.8644 297.053 85.0231 297.015 85.1444 296.978V297.916C85.0138 297.981 84.8271 298.033 84.5844 298.07C84.3418 298.117 84.1084 298.14 83.8844 298.14C83.4924 298.14 83.1284 298.075 82.7924 297.944C82.4658 297.804 82.1998 297.566 81.9944 297.23C81.7891 296.894 81.6864 296.423 81.6864 295.816V291.448H80.6224V290.86L81.7004 290.37L82.1904 288.774H82.9184V290.496H85.0884V291.448H82.9184V295.788C82.9184 296.245 83.0258 296.586 83.2404 296.81C83.4644 297.025 83.7491 297.132 84.0944 297.132ZM86.017 294.794V293.702H89.405V294.794H86.017ZM99.3348 292.904C99.3348 294.593 98.8728 295.867 97.9488 296.726C97.0341 297.575 95.7554 298 94.1128 298H91.3268V288.004H94.4068C95.4148 288.004 96.2874 288.191 97.0248 288.564C97.7621 288.937 98.3314 289.488 98.7328 290.216C99.1341 290.935 99.3348 291.831 99.3348 292.904ZM98.0048 292.946C98.0048 291.611 97.6734 290.636 97.0108 290.02C96.3574 289.395 95.4288 289.082 94.2248 289.082H92.5868V296.922H93.9448C96.6514 296.922 98.0048 295.597 98.0048 292.946ZM104.227 290.37C105.142 290.37 105.819 290.571 106.257 290.972C106.696 291.373 106.915 292.013 106.915 292.89V298H106.019L105.781 296.936H105.725C105.399 297.347 105.053 297.65 104.689 297.846C104.335 298.042 103.84 298.14 103.205 298.14C102.524 298.14 101.959 297.963 101.511 297.608C101.063 297.244 100.839 296.679 100.839 295.914C100.839 295.167 101.133 294.593 101.721 294.192C102.309 293.781 103.215 293.557 104.437 293.52L105.711 293.478V293.03C105.711 292.405 105.576 291.971 105.305 291.728C105.035 291.485 104.652 291.364 104.157 291.364C103.765 291.364 103.392 291.425 103.037 291.546C102.683 291.658 102.351 291.789 102.043 291.938L101.665 291.014C101.992 290.837 102.379 290.687 102.827 290.566C103.275 290.435 103.742 290.37 104.227 290.37ZM104.591 294.374C103.658 294.411 103.009 294.561 102.645 294.822C102.291 295.083 102.113 295.452 102.113 295.928C102.113 296.348 102.239 296.656 102.491 296.852C102.753 297.048 103.084 297.146 103.485 297.146C104.12 297.146 104.647 296.973 105.067 296.628C105.487 296.273 105.697 295.732 105.697 295.004V294.332L104.591 294.374ZM114.119 295.928C114.119 296.656 113.848 297.207 113.307 297.58C112.766 297.953 112.038 298.14 111.123 298.14C110.6 298.14 110.148 298.098 109.765 298.014C109.392 297.93 109.06 297.813 108.771 297.664V296.544C109.07 296.693 109.429 296.833 109.849 296.964C110.278 297.085 110.712 297.146 111.151 297.146C111.776 297.146 112.229 297.048 112.509 296.852C112.789 296.647 112.929 296.376 112.929 296.04C112.929 295.853 112.878 295.685 112.775 295.536C112.672 295.387 112.486 295.237 112.215 295.088C111.954 294.939 111.576 294.771 111.081 294.584C110.596 294.397 110.18 294.211 109.835 294.024C109.49 293.837 109.224 293.613 109.037 293.352C108.85 293.091 108.757 292.755 108.757 292.344C108.757 291.709 109.014 291.219 109.527 290.874C110.05 290.529 110.731 290.356 111.571 290.356C112.028 290.356 112.453 290.403 112.845 290.496C113.246 290.58 113.62 290.701 113.965 290.86L113.545 291.84C113.228 291.709 112.896 291.597 112.551 291.504C112.206 291.411 111.851 291.364 111.487 291.364C110.983 291.364 110.596 291.448 110.325 291.616C110.064 291.775 109.933 291.994 109.933 292.274C109.933 292.479 109.994 292.657 110.115 292.806C110.236 292.946 110.437 293.086 110.717 293.226C111.006 293.357 111.389 293.515 111.865 293.702C112.341 293.879 112.747 294.061 113.083 294.248C113.419 294.435 113.676 294.663 113.853 294.934C114.03 295.195 114.119 295.527 114.119 295.928ZM117.164 290.482C117.164 290.855 117.141 291.205 117.094 291.532H117.178C117.421 291.149 117.748 290.86 118.158 290.664C118.578 290.468 119.031 290.37 119.516 290.37C120.431 290.37 121.117 290.589 121.574 291.028C122.032 291.457 122.26 292.153 122.26 293.114V298H121.042V293.198C121.042 291.994 120.482 291.392 119.362 291.392C118.522 291.392 117.944 291.63 117.626 292.106C117.318 292.573 117.164 293.245 117.164 294.122V298H115.932V287.36H117.164V290.482ZM125.818 289.95C125.818 290.267 125.809 290.566 125.79 290.846C125.781 291.117 125.767 291.331 125.748 291.49H125.818C126.033 291.173 126.327 290.907 126.7 290.692C127.074 290.477 127.554 290.37 128.142 290.37C129.076 290.37 129.822 290.697 130.382 291.35C130.952 291.994 131.236 292.96 131.236 294.248C131.236 295.536 130.952 296.507 130.382 297.16C129.813 297.813 129.066 298.14 128.142 298.14C127.554 298.14 127.074 298.033 126.7 297.818C126.327 297.603 126.033 297.347 125.818 297.048H125.72L125.468 298H124.586V287.36H125.818V289.95ZM127.932 291.392C127.139 291.392 126.588 291.621 126.28 292.078C125.972 292.535 125.818 293.245 125.818 294.206V294.262C125.818 295.186 125.968 295.895 126.266 296.39C126.574 296.875 127.139 297.118 127.96 297.118C128.632 297.118 129.132 296.871 129.458 296.376C129.794 295.881 129.962 295.167 129.962 294.234C129.962 292.339 129.286 291.392 127.932 291.392ZM139.724 294.234C139.724 295.475 139.406 296.437 138.772 297.118C138.146 297.799 137.297 298.14 136.224 298.14C135.561 298.14 134.968 297.991 134.446 297.692C133.932 297.384 133.526 296.941 133.228 296.362C132.929 295.774 132.78 295.065 132.78 294.234C132.78 292.993 133.092 292.036 133.718 291.364C134.343 290.692 135.192 290.356 136.266 290.356C136.947 290.356 137.544 290.51 138.058 290.818C138.58 291.117 138.986 291.555 139.276 292.134C139.574 292.703 139.724 293.403 139.724 294.234ZM134.054 294.234C134.054 295.121 134.226 295.825 134.572 296.348C134.926 296.861 135.486 297.118 136.252 297.118C137.008 297.118 137.563 296.861 137.918 296.348C138.272 295.825 138.45 295.121 138.45 294.234C138.45 293.347 138.272 292.652 137.918 292.148C137.563 291.644 137.003 291.392 136.238 291.392C135.472 291.392 134.917 291.644 134.572 292.148C134.226 292.652 134.054 293.347 134.054 294.234ZM144.518 290.37C145.433 290.37 146.11 290.571 146.548 290.972C146.987 291.373 147.206 292.013 147.206 292.89V298H146.31L146.072 296.936H146.016C145.69 297.347 145.344 297.65 144.98 297.846C144.626 298.042 144.131 298.14 143.496 298.14C142.815 298.14 142.25 297.963 141.802 297.608C141.354 297.244 141.13 296.679 141.13 295.914C141.13 295.167 141.424 294.593 142.012 294.192C142.6 293.781 143.506 293.557 144.728 293.52L146.002 293.478V293.03C146.002 292.405 145.867 291.971 145.596 291.728C145.326 291.485 144.943 291.364 144.448 291.364C144.056 291.364 143.683 291.425 143.328 291.546C142.974 291.658 142.642 291.789 142.334 291.938L141.956 291.014C142.283 290.837 142.67 290.687 143.118 290.566C143.566 290.435 144.033 290.37 144.518 290.37ZM144.882 294.374C143.949 294.411 143.3 294.561 142.936 294.822C142.582 295.083 142.404 295.452 142.404 295.928C142.404 296.348 142.53 296.656 142.782 296.852C143.044 297.048 143.375 297.146 143.776 297.146C144.411 297.146 144.938 296.973 145.358 296.628C145.778 296.273 145.988 295.732 145.988 295.004V294.332L144.882 294.374ZM153.024 290.356C153.164 290.356 153.313 290.365 153.472 290.384C153.64 290.393 153.785 290.412 153.906 290.44L153.752 291.574C153.631 291.546 153.495 291.523 153.346 291.504C153.206 291.485 153.071 291.476 152.94 291.476C152.557 291.476 152.198 291.583 151.862 291.798C151.526 292.003 151.255 292.297 151.05 292.68C150.854 293.053 150.756 293.492 150.756 293.996V298H149.524V290.496H150.532L150.672 291.868H150.728C150.971 291.457 151.283 291.103 151.666 290.804C152.049 290.505 152.501 290.356 153.024 290.356ZM157.694 298.14C156.76 298.14 156.014 297.818 155.454 297.174C154.894 296.521 154.614 295.55 154.614 294.262C154.614 292.974 154.894 292.003 155.454 291.35C156.023 290.687 156.774 290.356 157.708 290.356C158.286 290.356 158.758 290.463 159.122 290.678C159.495 290.893 159.798 291.154 160.032 291.462H160.116C160.106 291.341 160.088 291.163 160.06 290.93C160.041 290.687 160.032 290.496 160.032 290.356V287.36H161.264V298H160.27L160.088 296.992H160.032C159.808 297.309 159.509 297.58 159.136 297.804C158.762 298.028 158.282 298.14 157.694 298.14ZM157.89 297.118C158.683 297.118 159.238 296.903 159.556 296.474C159.882 296.035 160.046 295.377 160.046 294.5V294.276C160.046 293.343 159.892 292.629 159.584 292.134C159.276 291.63 158.706 291.378 157.876 291.378C157.213 291.378 156.714 291.644 156.378 292.176C156.051 292.699 155.888 293.403 155.888 294.29C155.888 295.186 156.051 295.881 156.378 296.376C156.714 296.871 157.218 297.118 157.89 297.118Z" fill="black"/>
<path d="M206.944 161H201.358V151.004H206.944V152.11H202.618V155.232H206.692V156.324H202.618V159.894H206.944V161ZM211.811 153.37C212.726 153.37 213.403 153.571 213.841 153.972C214.28 154.373 214.499 155.013 214.499 155.89V161H213.603L213.365 159.936H213.309C212.983 160.347 212.637 160.65 212.273 160.846C211.919 161.042 211.424 161.14 210.789 161.14C210.108 161.14 209.543 160.963 209.095 160.608C208.647 160.244 208.423 159.679 208.423 158.914C208.423 158.167 208.717 157.593 209.305 157.192C209.893 156.781 210.799 156.557 212.021 156.52L213.295 156.478V156.03C213.295 155.405 213.16 154.971 212.889 154.728C212.619 154.485 212.236 154.364 211.741 154.364C211.349 154.364 210.976 154.425 210.621 154.546C210.267 154.658 209.935 154.789 209.627 154.938L209.249 154.014C209.576 153.837 209.963 153.687 210.411 153.566C210.859 153.435 211.326 153.37 211.811 153.37ZM212.175 157.374C211.242 157.411 210.593 157.561 210.229 157.822C209.875 158.083 209.697 158.452 209.697 158.928C209.697 159.348 209.823 159.656 210.075 159.852C210.337 160.048 210.668 160.146 211.069 160.146C211.704 160.146 212.231 159.973 212.651 159.628C213.071 159.273 213.281 158.732 213.281 158.004V157.332L212.175 157.374ZM220.317 153.356C220.457 153.356 220.606 153.365 220.765 153.384C220.933 153.393 221.078 153.412 221.199 153.44L221.045 154.574C220.924 154.546 220.788 154.523 220.639 154.504C220.499 154.485 220.364 154.476 220.233 154.476C219.85 154.476 219.491 154.583 219.155 154.798C218.819 155.003 218.548 155.297 218.343 155.68C218.147 156.053 218.049 156.492 218.049 156.996V161H216.817V153.496H217.825L217.965 154.868H218.021C218.264 154.457 218.576 154.103 218.959 153.804C219.342 153.505 219.794 153.356 220.317 153.356ZM226.212 153.356C227.108 153.356 227.785 153.575 228.242 154.014C228.699 154.443 228.928 155.143 228.928 156.114V161H227.71V156.198C227.71 154.994 227.15 154.392 226.03 154.392C225.199 154.392 224.625 154.625 224.308 155.092C223.991 155.559 223.832 156.231 223.832 157.108V161H222.6V153.496H223.594L223.776 154.518H223.846C224.089 154.126 224.425 153.837 224.854 153.65C225.283 153.454 225.736 153.356 226.212 153.356ZM237.817 151.004C239.059 151.004 239.973 151.242 240.561 151.718C241.159 152.185 241.457 152.894 241.457 153.846C241.457 154.378 241.359 154.821 241.163 155.176C240.967 155.531 240.715 155.815 240.407 156.03C240.109 156.235 239.791 156.399 239.455 156.52L242.199 161H240.729L238.307 156.87H236.319V161H235.059V151.004H237.817ZM237.747 152.096H236.319V155.806H237.817C238.629 155.806 239.222 155.647 239.595 155.33C239.969 155.003 240.155 154.527 240.155 153.902C240.155 153.249 239.959 152.787 239.567 152.516C239.175 152.236 238.569 152.096 237.747 152.096ZM246.498 153.356C247.142 153.356 247.693 153.496 248.15 153.776C248.617 154.056 248.971 154.453 249.214 154.966C249.466 155.47 249.592 156.063 249.592 156.744V157.486H244.454C244.473 158.335 244.687 158.984 245.098 159.432C245.518 159.871 246.101 160.09 246.848 160.09C247.324 160.09 247.744 160.048 248.108 159.964C248.481 159.871 248.864 159.74 249.256 159.572V160.65C248.873 160.818 248.495 160.939 248.122 161.014C247.749 161.098 247.305 161.14 246.792 161.14C246.083 161.14 245.453 160.995 244.902 160.706C244.361 160.417 243.936 159.987 243.628 159.418C243.329 158.839 243.18 158.135 243.18 157.304C243.18 156.483 243.315 155.778 243.586 155.19C243.866 154.602 244.253 154.149 244.748 153.832C245.252 153.515 245.835 153.356 246.498 153.356ZM246.484 154.364C245.896 154.364 245.429 154.555 245.084 154.938C244.748 155.311 244.547 155.834 244.482 156.506H248.304C248.295 155.871 248.145 155.358 247.856 154.966C247.567 154.565 247.109 154.364 246.484 154.364ZM254.008 160.132C254.195 160.132 254.387 160.118 254.583 160.09C254.779 160.053 254.937 160.015 255.059 159.978V160.916C254.928 160.981 254.741 161.033 254.499 161.07C254.256 161.117 254.023 161.14 253.799 161.14C253.407 161.14 253.043 161.075 252.707 160.944C252.38 160.804 252.114 160.566 251.909 160.23C251.703 159.894 251.601 159.423 251.601 158.816V154.448H250.537V153.86L251.615 153.37L252.105 151.774H252.833V153.496H255.003V154.448H252.833V158.788C252.833 159.245 252.94 159.586 253.155 159.81C253.379 160.025 253.663 160.132 254.008 160.132ZM262.833 153.496V161H261.825L261.643 160.006H261.587C261.344 160.398 261.008 160.687 260.579 160.874C260.15 161.051 259.692 161.14 259.207 161.14C258.302 161.14 257.62 160.925 257.163 160.496C256.706 160.057 256.477 159.362 256.477 158.41V153.496H257.723V158.326C257.723 159.521 258.278 160.118 259.389 160.118C260.22 160.118 260.794 159.885 261.111 159.418C261.438 158.951 261.601 158.279 261.601 157.402V153.496H262.833ZM268.715 153.356C268.855 153.356 269.005 153.365 269.163 153.384C269.331 153.393 269.476 153.412 269.597 153.44L269.443 154.574C269.322 154.546 269.187 154.523 269.037 154.504C268.897 154.485 268.762 154.476 268.631 154.476C268.249 154.476 267.889 154.583 267.553 154.798C267.217 155.003 266.947 155.297 266.741 155.68C266.545 156.053 266.447 156.492 266.447 156.996V161H265.215V153.496H266.223L266.363 154.868H266.419C266.662 154.457 266.975 154.103 267.357 153.804C267.74 153.505 268.193 153.356 268.715 153.356ZM274.611 153.356C275.507 153.356 276.183 153.575 276.641 154.014C277.098 154.443 277.327 155.143 277.327 156.114V161H276.109V156.198C276.109 154.994 275.549 154.392 274.429 154.392C273.598 154.392 273.024 154.625 272.707 155.092C272.389 155.559 272.231 156.231 272.231 157.108V161H270.999V153.496H271.993L272.175 154.518H272.245C272.487 154.126 272.823 153.837 273.253 153.65C273.682 153.454 274.135 153.356 274.611 153.356ZM284.539 158.928C284.539 159.656 284.268 160.207 283.727 160.58C283.186 160.953 282.458 161.14 281.543 161.14C281.02 161.14 280.568 161.098 280.185 161.014C279.812 160.93 279.48 160.813 279.191 160.664V159.544C279.49 159.693 279.849 159.833 280.269 159.964C280.698 160.085 281.132 160.146 281.571 160.146C282.196 160.146 282.649 160.048 282.929 159.852C283.209 159.647 283.349 159.376 283.349 159.04C283.349 158.853 283.298 158.685 283.195 158.536C283.092 158.387 282.906 158.237 282.635 158.088C282.374 157.939 281.996 157.771 281.501 157.584C281.016 157.397 280.6 157.211 280.255 157.024C279.91 156.837 279.644 156.613 279.457 156.352C279.27 156.091 279.177 155.755 279.177 155.344C279.177 154.709 279.434 154.219 279.947 153.874C280.47 153.529 281.151 153.356 281.991 153.356C282.448 153.356 282.873 153.403 283.265 153.496C283.666 153.58 284.04 153.701 284.385 153.86L283.965 154.84C283.648 154.709 283.316 154.597 282.971 154.504C282.626 154.411 282.271 154.364 281.907 154.364C281.403 154.364 281.016 154.448 280.745 154.616C280.484 154.775 280.353 154.994 280.353 155.274C280.353 155.479 280.414 155.657 280.535 155.806C280.656 155.946 280.857 156.086 281.137 156.226C281.426 156.357 281.809 156.515 282.285 156.702C282.761 156.879 283.167 157.061 283.503 157.248C283.839 157.435 284.096 157.663 284.273 157.934C284.45 158.195 284.539 158.527 284.539 158.928Z" fill="black"/>
<g filter="url(#filter5_d_3245_2725)">
<circle cx="196.5" cy="357.5" r="25.5" fill="white"/>
</g>
<g filter="url(#filter6_d_3245_2725)">
<circle cx="211.5" cy="71.5" r="25.5" fill="white"/>
</g>
<g filter="url(#filter7_d_3245_2725)">
<circle cx="110.5" cy="213.5" r="25.5" fill="white"/>
</g>
<g filter="url(#filter8_d_3245_2725)">
<rect x="282" y="26.4172" width="101" height="38" rx="4" fill="white"/>
</g>
<path d="M308.366 46.7856C308.366 48.4749 307.904 49.7489 306.98 50.6076C306.065 51.4569 304.787 51.8816 303.144 51.8816H300.358V41.8856H303.438C304.446 41.8856 305.319 42.0723 306.056 42.4456C306.793 42.8189 307.363 43.3696 307.764 44.0976C308.165 44.8163 308.366 45.7123 308.366 46.7856ZM307.036 46.8276C307.036 45.4929 306.705 44.5176 306.042 43.9016C305.389 43.2763 304.46 42.9636 303.256 42.9636H301.618V50.8036H302.976C305.683 50.8036 307.036 49.4783 307.036 46.8276ZM311.047 41.5636C311.233 41.5636 311.397 41.6289 311.537 41.7596C311.686 41.8809 311.761 42.0769 311.761 42.3476C311.761 42.6089 311.686 42.8049 311.537 42.9356C311.397 43.0663 311.233 43.1316 311.047 43.1316C310.841 43.1316 310.669 43.0663 310.529 42.9356C310.389 42.8049 310.319 42.6089 310.319 42.3476C310.319 42.0769 310.389 41.8809 310.529 41.7596C310.669 41.6289 310.841 41.5636 311.047 41.5636ZM311.649 44.3776V51.8816H310.417V44.3776H311.649ZM318.912 49.8096C318.912 50.5376 318.641 51.0883 318.1 51.4616C317.559 51.8349 316.831 52.0216 315.916 52.0216C315.393 52.0216 314.941 51.9796 314.558 51.8956C314.185 51.8116 313.853 51.6949 313.564 51.5456V50.4256C313.863 50.5749 314.222 50.7149 314.642 50.8456C315.071 50.9669 315.505 51.0276 315.944 51.0276C316.569 51.0276 317.022 50.9296 317.302 50.7336C317.582 50.5283 317.722 50.2576 317.722 49.9216C317.722 49.7349 317.671 49.5669 317.568 49.4176C317.465 49.2683 317.279 49.1189 317.008 48.9696C316.747 48.8203 316.369 48.6523 315.874 48.4656C315.389 48.2789 314.973 48.0923 314.628 47.9056C314.283 47.7189 314.017 47.4949 313.83 47.2336C313.643 46.9723 313.55 46.6363 313.55 46.2256C313.55 45.5909 313.807 45.1009 314.32 44.7556C314.843 44.4103 315.524 44.2376 316.364 44.2376C316.821 44.2376 317.246 44.2843 317.638 44.3776C318.039 44.4616 318.413 44.5829 318.758 44.7416L318.338 45.7216C318.021 45.5909 317.689 45.4789 317.344 45.3856C316.999 45.2923 316.644 45.2456 316.28 45.2456C315.776 45.2456 315.389 45.3296 315.118 45.4976C314.857 45.6563 314.726 45.8756 314.726 46.1556C314.726 46.3609 314.787 46.5383 314.908 46.6876C315.029 46.8276 315.23 46.9676 315.51 47.1076C315.799 47.2383 316.182 47.3969 316.658 47.5836C317.134 47.7609 317.54 47.9429 317.876 48.1296C318.212 48.3163 318.469 48.5449 318.646 48.8156C318.823 49.0769 318.912 49.4083 318.912 49.8096ZM321.957 43.8316C321.957 44.1489 321.948 44.4476 321.929 44.7276C321.92 44.9983 321.906 45.2129 321.887 45.3716H321.957C322.172 45.0543 322.466 44.7883 322.839 44.5736C323.212 44.3589 323.693 44.2516 324.281 44.2516C325.214 44.2516 325.961 44.5783 326.521 45.2316C327.09 45.8756 327.375 46.8416 327.375 48.1296C327.375 49.4176 327.09 50.3883 326.521 51.0416C325.952 51.6949 325.205 52.0216 324.281 52.0216C323.693 52.0216 323.212 51.9143 322.839 51.6996C322.466 51.4849 322.172 51.2283 321.957 50.9296H321.859L321.607 51.8816H320.725V41.2416H321.957V43.8316ZM324.071 45.2736C323.278 45.2736 322.727 45.5023 322.419 45.9596C322.111 46.4169 321.957 47.1263 321.957 48.0876V48.1436C321.957 49.0676 322.106 49.7769 322.405 50.2716C322.713 50.7569 323.278 50.9996 324.099 50.9996C324.771 50.9996 325.27 50.7523 325.597 50.2576C325.933 49.7629 326.101 49.0489 326.101 48.1156C326.101 46.2209 325.424 45.2736 324.071 45.2736ZM335.61 44.3776V51.8816H334.602L334.42 50.8876H334.364C334.122 51.2796 333.786 51.5689 333.356 51.7556C332.927 51.9329 332.47 52.0216 331.984 52.0216C331.079 52.0216 330.398 51.8069 329.94 51.3776C329.483 50.9389 329.254 50.2436 329.254 49.2916V44.3776H330.5V49.2076C330.5 50.4023 331.056 50.9996 332.166 50.9996C332.997 50.9996 333.571 50.7663 333.888 50.2996C334.215 49.8329 334.378 49.1609 334.378 48.2836V44.3776H335.61ZM341.493 44.2376C341.633 44.2376 341.782 44.2469 341.941 44.2656C342.109 44.2749 342.253 44.2936 342.375 44.3216L342.221 45.4556C342.099 45.4276 341.964 45.4043 341.815 45.3856C341.675 45.3669 341.539 45.3576 341.409 45.3576C341.026 45.3576 340.667 45.4649 340.331 45.6796C339.995 45.8849 339.724 46.1789 339.519 46.5616C339.323 46.9349 339.225 47.3736 339.225 47.8776V51.8816H337.993V44.3776H339.001L339.141 45.7496H339.197C339.439 45.3389 339.752 44.9843 340.135 44.6856C340.517 44.3869 340.97 44.2376 341.493 44.2376ZM348.662 49.8096C348.662 50.5376 348.391 51.0883 347.85 51.4616C347.309 51.8349 346.581 52.0216 345.666 52.0216C345.143 52.0216 344.691 51.9796 344.308 51.8956C343.935 51.8116 343.603 51.6949 343.314 51.5456V50.4256C343.613 50.5749 343.972 50.7149 344.392 50.8456C344.821 50.9669 345.255 51.0276 345.694 51.0276C346.319 51.0276 346.772 50.9296 347.052 50.7336C347.332 50.5283 347.472 50.2576 347.472 49.9216C347.472 49.7349 347.421 49.5669 347.318 49.4176C347.215 49.2683 347.029 49.1189 346.758 48.9696C346.497 48.8203 346.119 48.6523 345.624 48.4656C345.139 48.2789 344.723 48.0923 344.378 47.9056C344.033 47.7189 343.767 47.4949 343.58 47.2336C343.393 46.9723 343.3 46.6363 343.3 46.2256C343.3 45.5909 343.557 45.1009 344.07 44.7556C344.593 44.4103 345.274 44.2376 346.114 44.2376C346.571 44.2376 346.996 44.2843 347.388 44.3776C347.789 44.4616 348.163 44.5829 348.508 44.7416L348.088 45.7216C347.771 45.5909 347.439 45.4789 347.094 45.3856C346.749 45.2923 346.394 45.2456 346.03 45.2456C345.526 45.2456 345.139 45.3296 344.868 45.4976C344.607 45.6563 344.476 45.8756 344.476 46.1556C344.476 46.3609 344.537 46.5383 344.658 46.6876C344.779 46.8276 344.98 46.9676 345.26 47.1076C345.549 47.2383 345.932 47.3969 346.408 47.5836C346.884 47.7609 347.29 47.9429 347.626 48.1296C347.962 48.3163 348.219 48.5449 348.396 48.8156C348.573 49.0769 348.662 49.4083 348.662 49.8096ZM353.373 44.2376C354.017 44.2376 354.568 44.3776 355.025 44.6576C355.492 44.9376 355.846 45.3343 356.089 45.8476C356.341 46.3516 356.467 46.9443 356.467 47.6256V48.3676L351.329 48.3676C351.348 49.2169 351.562 49.8656 351.973 50.3136C352.393 50.7523 352.976 50.9716 353.723 50.9716C354.199 50.9716 354.619 50.9296 354.983 50.8456C355.356 50.7523 355.739 50.6216 356.131 50.4536V51.5316C355.748 51.6996 355.37 51.8209 354.997 51.8956C354.624 51.9796 354.18 52.0216 353.667 52.0216C352.958 52.0216 352.328 51.8769 351.777 51.5876C351.236 51.2983 350.811 50.8689 350.503 50.2996C350.204 49.7209 350.055 49.0163 350.055 48.1856C350.055 47.3643 350.19 46.6596 350.461 46.0716C350.741 45.4836 351.128 45.0309 351.623 44.7136C352.127 44.3963 352.71 44.2376 353.373 44.2376ZM353.359 45.2456C352.771 45.2456 352.304 45.4369 351.959 45.8196C351.623 46.1929 351.422 46.7156 351.357 47.3876L355.179 47.3876C355.17 46.7529 355.02 46.2396 354.731 45.8476C354.442 45.4463 353.984 45.2456 353.359 45.2456ZM361.038 52.0216C360.104 52.0216 359.358 51.6996 358.798 51.0556C358.238 50.4023 357.958 49.4316 357.958 48.1436C357.958 46.8556 358.238 45.8849 358.798 45.2316C359.367 44.5689 360.118 44.2376 361.052 44.2376C361.63 44.2376 362.102 44.3449 362.466 44.5596C362.839 44.7743 363.142 45.0356 363.376 45.3436H363.46C363.45 45.2223 363.432 45.0449 363.404 44.8116C363.385 44.5689 363.376 44.3776 363.376 44.2376V41.2416H364.608V51.8816H363.614L363.432 50.8736H363.376C363.152 51.1909 362.853 51.4616 362.48 51.6856C362.106 51.9096 361.626 52.0216 361.038 52.0216ZM361.234 50.9996C362.027 50.9996 362.582 50.7849 362.9 50.3556C363.226 49.9169 363.39 49.2589 363.39 48.3816V48.1576C363.39 47.2243 363.236 46.5103 362.928 46.0156C362.62 45.5116 362.05 45.2596 361.22 45.2596C360.557 45.2596 360.058 45.5256 359.722 46.0576C359.395 46.5803 359.232 47.2849 359.232 48.1716C359.232 49.0676 359.395 49.7629 359.722 50.2576C360.058 50.7523 360.562 50.9996 361.234 50.9996Z" fill="black"/>
<path d="M212 73C211.717 73 211.479 72.904 211.288 72.712C211.096 72.5207 211 72.2833 211 72C211 71.7167 211.096 71.479 211.288 71.287C211.479 71.0957 211.717 71 212 71C212.283 71 212.521 71.0957 212.713 71.287C212.904 71.479 213 71.7167 213 72C213 72.2833 212.904 72.5207 212.713 72.712C212.521 72.904 212.283 73 212 73ZM208 73C207.717 73 207.479 72.904 207.287 72.712C207.096 72.5207 207 72.2833 207 72C207 71.7167 207.096 71.479 207.287 71.287C207.479 71.0957 207.717 71 208 71C208.283 71 208.521 71.0957 208.713 71.287C208.904 71.479 209 71.7167 209 72C209 72.2833 208.904 72.5207 208.713 72.712C208.521 72.904 208.283 73 208 73ZM216 73C215.717 73 215.479 72.904 215.288 72.712C215.096 72.5207 215 72.2833 215 72C215 71.7167 215.096 71.479 215.288 71.287C215.479 71.0957 215.717 71 216 71C216.283 71 216.521 71.0957 216.712 71.287C216.904 71.479 217 71.7167 217 72C217 72.2833 216.904 72.5207 216.712 72.712C216.521 72.904 216.283 73 216 73ZM212 77C211.717 77 211.479 76.904 211.288 76.712C211.096 76.5207 211 76.2833 211 76C211 75.7167 211.096 75.4793 211.288 75.288C211.479 75.096 211.717 75 212 75C212.283 75 212.521 75.096 212.713 75.288C212.904 75.4793 213 75.7167 213 76C213 76.2833 212.904 76.5207 212.713 76.712C212.521 76.904 212.283 77 212 77ZM208 77C207.717 77 207.479 76.904 207.287 76.712C207.096 76.5207 207 76.2833 207 76C207 75.7167 207.096 75.4793 207.287 75.288C207.479 75.096 207.717 75 208 75C208.283 75 208.521 75.096 208.713 75.288C208.904 75.4793 209 75.7167 209 76C209 76.2833 208.904 76.5207 208.713 76.712C208.521 76.904 208.283 77 208 77ZM216 77C215.717 77 215.479 76.904 215.288 76.712C215.096 76.5207 215 76.2833 215 76C215 75.7167 215.096 75.4793 215.288 75.288C215.479 75.096 215.717 75 216 75C216.283 75 216.521 75.096 216.712 75.288C216.904 75.4793 217 75.7167 217 76C217 76.2833 216.904 76.5207 216.712 76.712C216.521 76.904 216.283 77 216 77ZM205 81C204.45 81 203.979 80.8043 203.587 80.413C203.196 80.021 203 79.55 203 79V65C203 64.45 203.196 63.9793 203.587 63.588C203.979 63.196 204.45 63 205 63H206V61H208V63H216V61H218V63H219C219.55 63 220.021 63.196 220.413 63.588C220.804 63.9793 221 64.45 221 65V79C221 79.55 220.804 80.021 220.413 80.413C220.021 80.8043 219.55 81 219 81H205ZM205 79H219V69H205V79Z" fill="#E44545"/>
<path d="M113.917 220C114.403 220 114.816 219.83 115.156 219.489C115.496 219.149 115.667 218.736 115.667 218.25C115.667 217.764 115.496 217.351 115.156 217.011C114.816 216.67 114.403 216.5 113.917 216.5C113.431 216.5 113.018 216.67 112.678 217.011C112.337 217.351 112.167 217.764 112.167 218.25C112.167 218.736 112.337 219.149 112.678 219.489C113.018 219.83 113.431 220 113.917 220ZM107.208 219.125C107.442 219.358 107.714 219.475 108.025 219.475C108.336 219.475 108.608 219.358 108.842 219.125L114.792 213.175C115.025 212.942 115.142 212.669 115.142 212.358C115.142 212.047 115.025 211.775 114.792 211.542C114.558 211.308 114.281 211.192 113.961 211.192C113.64 211.192 113.362 211.308 113.129 211.542L107.208 217.462C106.975 217.696 106.858 217.973 106.858 218.294C106.858 218.615 106.975 218.892 107.208 219.125ZM108.083 214.167C108.569 214.167 108.982 213.996 109.322 213.656C109.663 213.316 109.833 212.903 109.833 212.417C109.833 211.93 109.663 211.517 109.322 211.178C108.982 210.837 108.569 210.667 108.083 210.667C107.597 210.667 107.184 210.837 106.844 211.178C106.504 211.517 106.333 211.93 106.333 212.417C106.333 212.903 106.504 213.316 106.844 213.656C107.184 213.996 107.597 214.167 108.083 214.167ZM111 224.667C108.531 224.667 106.358 223.806 104.482 222.086C102.605 220.365 101.667 218.036 101.667 215.1C101.667 213.253 102.367 211.25 103.767 209.092C105.167 206.933 107.286 204.6 110.125 202.092C110.242 201.994 110.378 201.917 110.533 201.858C110.689 201.8 110.844 201.771 111 201.771C111.156 201.771 111.311 201.8 111.467 201.858C111.622 201.917 111.758 201.994 111.875 202.092C114.714 204.6 116.833 206.933 118.233 209.092C119.633 211.25 120.333 213.253 120.333 215.1C120.333 218.036 119.395 220.365 117.518 222.086C115.642 223.806 113.469 224.667 111 224.667Z" fill="#1FA0A7"/>
<path d="M208.125 362.667V347.167H184.875V362.667H208.125ZM208.125 344.583C208.81 344.583 209.467 344.855 209.952 345.34C210.436 345.824 210.708 346.481 210.708 347.167V362.667C210.708 363.352 210.436 364.009 209.952 364.493C209.467 364.978 208.81 365.25 208.125 365.25H199.083V367.833H201.667V370.417H191.333V367.833H193.917V365.25H184.875C184.19 365.25 183.533 364.978 183.048 364.493C182.564 364.009 182.292 363.352 182.292 362.667V347.167C182.292 345.733 183.441 344.583 184.875 344.583H208.125ZM187.458 349.75H199.083V356.208H187.458V349.75ZM200.375 349.75H205.542V352.333H200.375V349.75ZM205.542 353.625V360.083H200.375V353.625H205.542ZM187.458 357.5H192.625V360.083H187.458V357.5ZM193.917 357.5H199.083V360.083H193.917V357.5Z" fill="#1DA1F2"/>
<circle cx="336" cy="20" r="4" fill="black"/>
<defs>
<filter id="filter0_d_3245_2725" x="191" y="525" width="196" height="90" filterUnits="userSpaceOnUse" color-interpolation-filters="sRGB">
<feFlood flood-opacity="0" result="BackgroundImageFix"/>
<feColorMatrix in="SourceAlpha" type="matrix" values="0 0 0 0 0 0 0 0 0 0 0 0 0 0 0 0 0 0 127 0" result="hardAlpha"/>
<feMorphology radius="6" operator="dilate" in="SourceAlpha" result="effect1_dropShadow_3245_2725"/>
<feOffset/>
<feGaussianBlur stdDeviation="10"/>
<feComposite in2="hardAlpha" operator="out"/>
<feColorMatrix type="matrix" values="0 0 0 0 0 0 0 0 0 0 0 0 0 0 0 0 0 0 0.05 0"/>
<feBlend mode="normal" in2="BackgroundImageFix" result="effect1_dropShadow_3245_2725"/>
<feBlend mode="normal" in="SourceGraphic" in2="effect1_dropShadow_3245_2725" result="shape"/>
</filter>
<filter id="filter1_d_3245_2725" x="81" y="400" width="103" height="103" filterUnits="userSpaceOnUse" color-interpolation-filters="sRGB">
<feFlood flood-opacity="0" result="BackgroundImageFix"/>
<feColorMatrix in="SourceAlpha" type="matrix" values="0 0 0 0 0 0 0 0 0 0 0 0 0 0 0 0 0 0 127 0" result="hardAlpha"/>
<feMorphology radius="6" operator="dilate" in="SourceAlpha" result="effect1_dropShadow_3245_2725"/>
<feOffset/>
<feGaussianBlur stdDeviation="10"/>
<feComposite in2="hardAlpha" operator="out"/>
<feColorMatrix type="matrix" values="0 0 0 0 0 0 0 0 0 0 0 0 0 0 0 0 0 0 0.05 0"/>
<feBlend mode="normal" in2="BackgroundImageFix" result="effect1_dropShadow_3245_2725"/>
<feBlend mode="normal" in="SourceGraphic" in2="effect1_dropShadow_3245_2725" result="shape"/>
</filter>
<filter id="filter2_d_3245_2725" x="215" y="401" width="128" height="90" filterUnits="userSpaceOnUse" color-interpolation-filters="sRGB">
<feFlood flood-opacity="0" result="BackgroundImageFix"/>
<feColorMatrix in="SourceAlpha" type="matrix" values="0 0 0 0 0 0 0 0 0 0 0 0 0 0 0 0 0 0 127 0" result="hardAlpha"/>
<feMorphology radius="6" operator="dilate" in="SourceAlpha" result="effect1_dropShadow_3245_2725"/>
<feOffset/>
<feGaussianBlur stdDeviation="10"/>
<feComposite in2="hardAlpha" operator="out"/>
<feColorMatrix type="matrix" values="0 0 0 0 0 0 0 0 0 0 0 0 0 0 0 0 0 0 0.05 0"/>
<feBlend mode="normal" in2="BackgroundImageFix" result="effect1_dropShadow_3245_2725"/>
<feBlend mode="normal" in="SourceGraphic" in2="effect1_dropShadow_3245_2725" result="shape"/>
</filter>
<filter id="filter3_d_3245_2725" x="0" y="248" width="209" height="90" filterUnits="userSpaceOnUse" color-interpolation-filters="sRGB">
<feFlood flood-opacity="0" result="BackgroundImageFix"/>
<feColorMatrix in="SourceAlpha" type="matrix" values="0 0 0 0 0 0 0 0 0 0 0 0 0 0 0 0 0 0 127 0" result="hardAlpha"/>
<feMorphology radius="6" operator="dilate" in="SourceAlpha" result="effect1_dropShadow_3245_2725"/>
<feOffset/>
<feGaussianBlur stdDeviation="10"/>
<feComposite in2="hardAlpha" operator="out"/>
<feColorMatrix type="matrix" values="0 0 0 0 0 0 0 0 0 0 0 0 0 0 0 0 0 0 0.05 0"/>
<feBlend mode="normal" in2="BackgroundImageFix" result="effect1_dropShadow_3245_2725"/>
<feBlend mode="normal" in="SourceGraphic" in2="effect1_dropShadow_3245_2725" result="shape"/>
</filter>
<filter id="filter4_d_3245_2725" x="158" y="112" width="171" height="90" filterUnits="userSpaceOnUse" color-interpolation-filters="sRGB">
<feFlood flood-opacity="0" result="BackgroundImageFix"/>
<feColorMatrix in="SourceAlpha" type="matrix" values="0 0 0 0 0 0 0 0 0 0 0 0 0 0 0 0 0 0 127 0" result="hardAlpha"/>
<feMorphology radius="6" operator="dilate" in="SourceAlpha" result="effect1_dropShadow_3245_2725"/>
<feOffset/>
<feGaussianBlur stdDeviation="10"/>
<feComposite in2="hardAlpha" operator="out"/>
<feColorMatrix type="matrix" values="0 0 0 0 0 0 0 0 0 0 0 0 0 0 0 0 0 0 0.05 0"/>
<feBlend mode="normal" in2="BackgroundImageFix" result="effect1_dropShadow_3245_2725"/>
<feBlend mode="normal" in="SourceGraphic" in2="effect1_dropShadow_3245_2725" result="shape"/>
</filter>
<filter id="filter5_d_3245_2725" x="145" y="306" width="103" height="103" filterUnits="userSpaceOnUse" color-interpolation-filters="sRGB">
<feFlood flood-opacity="0" result="BackgroundImageFix"/>
<feColorMatrix in="SourceAlpha" type="matrix" values="0 0 0 0 0 0 0 0 0 0 0 0 0 0 0 0 0 0 127 0" result="hardAlpha"/>
<feMorphology radius="6" operator="dilate" in="SourceAlpha" result="effect1_dropShadow_3245_2725"/>
<feOffset/>
<feGaussianBlur stdDeviation="10"/>
<feComposite in2="hardAlpha" operator="out"/>
<feColorMatrix type="matrix" values="0 0 0 0 0 0 0 0 0 0 0 0 0 0 0 0 0 0 0.05 0"/>
<feBlend mode="normal" in2="BackgroundImageFix" result="effect1_dropShadow_3245_2725"/>
<feBlend mode="normal" in="SourceGraphic" in2="effect1_dropShadow_3245_2725" result="shape"/>
</filter>
<filter id="filter6_d_3245_2725" x="160" y="20" width="103" height="103" filterUnits="userSpaceOnUse" color-interpolation-filters="sRGB">
<feFlood flood-opacity="0" result="BackgroundImageFix"/>
<feColorMatrix in="SourceAlpha" type="matrix" values="0 0 0 0 0 0 0 0 0 0 0 0 0 0 0 0 0 0 127 0" result="hardAlpha"/>
<feMorphology radius="6" operator="dilate" in="SourceAlpha" result="effect1_dropShadow_3245_2725"/>
<feOffset/>
<feGaussianBlur stdDeviation="10"/>
<feComposite in2="hardAlpha" operator="out"/>
<feColorMatrix type="matrix" values="0 0 0 0 0 0 0 0 0 0 0 0 0 0 0 0 0 0 0.05 0"/>
<feBlend mode="normal" in2="BackgroundImageFix" result="effect1_dropShadow_3245_2725"/>
<feBlend mode="normal" in="SourceGraphic" in2="effect1_dropShadow_3245_2725" result="shape"/>
</filter>
<filter id="filter7_d_3245_2725" x="59" y="162" width="103" height="103" filterUnits="userSpaceOnUse" color-interpolation-filters="sRGB">
<feFlood flood-opacity="0" result="BackgroundImageFix"/>
<feColorMatrix in="SourceAlpha" type="matrix" values="0 0 0 0 0 0 0 0 0 0 0 0 0 0 0 0 0 0 127 0" result="hardAlpha"/>
<feMorphology radius="6" operator="dilate" in="SourceAlpha" result="effect1_dropShadow_3245_2725"/>
<feOffset/>
<feGaussianBlur stdDeviation="10"/>
<feComposite in2="hardAlpha" operator="out"/>
<feColorMatrix type="matrix" values="0 0 0 0 0 0 0 0 0 0 0 0 0 0 0 0 0 0 0.05 0"/>
<feBlend mode="normal" in2="BackgroundImageFix" result="effect1_dropShadow_3245_2725"/>
<feBlend mode="normal" in="SourceGraphic" in2="effect1_dropShadow_3245_2725" result="shape"/>
</filter>
<filter id="filter8_d_3245_2725" x="256" y="0.417236" width="153" height="90" filterUnits="userSpaceOnUse" color-interpolation-filters="sRGB">
<feFlood flood-opacity="0" result="BackgroundImageFix"/>
<feColorMatrix in="SourceAlpha" type="matrix" values="0 0 0 0 0 0 0 0 0 0 0 0 0 0 0 0 0 0 127 0" result="hardAlpha"/>
<feMorphology radius="6" operator="dilate" in="SourceAlpha" result="effect1_dropShadow_3245_2725"/>
<feOffset/>
<feGaussianBlur stdDeviation="10"/>
<feComposite in2="hardAlpha" operator="out"/>
<feColorMatrix type="matrix" values="0 0 0 0 0 0 0 0 0 0 0 0 0 0 0 0 0 0 0.05 0"/>
<feBlend mode="normal" in2="BackgroundImageFix" result="effect1_dropShadow_3245_2725"/>
<feBlend mode="normal" in="SourceGraphic" in2="effect1_dropShadow_3245_2725" result="shape"/>
</filter>
</defs>
</svg>
