<svg width="94" height="89" viewBox="0 0 94 89" fill="none" xmlns="http://www.w3.org/2000/svg">
<path opacity="0.4" d="M32.1061 18.9447C49.4287 8.94348 77.1621 23.4172 87.1633 40.7398C97.1645 58.0623 77.7236 57.9517 60.401 67.9529C43.0785 77.9541 28.8508 85.7413 18.8496 68.4187C8.8484 51.0961 14.7835 28.9459 32.1061 18.9447Z" fill="#FFC701"/>
<path d="M62.3334 42.4317L73.2868 23.4958L77.7559 26.0792L64.2451 49.4583L47.4276 39.7708L35.1051 61.0833H77.8334V66.25H26.1667V19.75H31.3334V57.3117L45.5417 32.6667L62.3334 42.4317Z" fill="#009DC4"/>
<rect x="26" y="20" width="5" height="46" fill="black"/>
<rect x="26" y="66" width="5" height="52" transform="rotate(-90 26 66)" fill="black"/>
</svg>
