<svg width="94" height="89" viewBox="0 0 94 89" fill="none" xmlns="http://www.w3.org/2000/svg">
<path opacity="0.4" d="M32.1061 18.9447C49.4287 8.94348 77.1621 23.4172 87.1633 40.7398C97.1645 58.0623 77.7236 57.9517 60.401 67.9529C43.0785 77.9541 28.8508 85.7413 18.8496 68.4187C8.8484 51.0961 14.7835 28.9459 32.1061 18.9447Z" fill="#FFC701"/>
<path d="M71.75 35.875C74.2686 35.8719 76.6831 34.87 78.464 33.089C80.245 31.3081 81.2469 28.8936 81.25 26.375V19.25H74.125C71.6933 19.2536 69.3566 20.1944 67.6009 21.8767C66.3705 19.6443 64.5642 17.7825 62.37 16.4851C60.1759 15.1877 57.674 14.5022 55.125 14.5H48V21.625C48.0044 25.403 49.5071 29.025 52.1786 31.6964C54.85 34.3679 58.472 35.8706 62.25 35.875H64.625V66.75H36.125V54.875H38.5C41.0186 54.8719 43.4331 53.87 45.214 52.089C46.995 50.3081 47.9969 47.8936 48 45.375V38.25H40.875C38.4433 38.2536 36.1066 39.1944 34.3509 40.8767C33.1205 38.6443 31.3142 36.7825 29.12 35.4851C26.9259 34.1877 24.424 33.5022 21.875 33.5H14.75V40.625C14.7544 44.403 16.2571 48.025 18.9286 50.6964C21.6 53.3679 25.222 54.8706 29 54.875H31.375V66.75H14.75V71.5H81.25V66.75H69.375V35.875H71.75ZM69.375 28.75C69.3763 27.4906 69.8771 26.2832 70.7676 25.3926C71.6582 24.5021 72.8656 24.0013 74.125 24H76.5V26.375C76.4987 27.6344 75.9979 28.8418 75.1074 29.7324C74.2168 30.6229 73.0094 31.1237 71.75 31.125H69.375V28.75ZM36.125 47.75C36.1263 46.4906 36.6271 45.2832 37.5176 44.3926C38.4082 43.5021 39.6156 43.0013 40.875 43H43.25V45.375C43.2487 46.6344 42.7479 47.8418 41.8574 48.7324C40.9668 49.6229 39.7594 50.1237 38.5 50.125H36.125V47.75ZM31.375 50.125H29C26.4814 50.1219 24.0669 49.12 22.286 47.339C20.505 45.5581 19.5031 43.1436 19.5 40.625V38.25H21.875C24.3936 38.2531 26.8081 39.255 28.589 41.036C30.37 42.8169 31.3719 45.2314 31.375 47.75V50.125ZM64.625 31.125H62.25C59.7314 31.1219 57.3169 30.12 55.536 28.339C53.755 26.5581 52.7531 24.1436 52.75 21.625V19.25H55.125C57.6436 19.2531 60.0581 20.255 61.839 22.036C63.62 23.8169 64.6219 26.2314 64.625 28.75V31.125Z" fill="black"/>
<rect x="81" y="67" width="5" height="66" transform="rotate(90 81 67)" fill="#009DC4"/>
</svg>
