<svg width="38" height="38" viewBox="0 0 38 38" fill="none" xmlns="http://www.w3.org/2000/svg">
<g clip-path="url(#clip0_1014_1115)">
<path d="M6.33268 3.16675C5.49283 3.16675 4.68738 3.50038 4.09351 4.09424C3.49965 4.68811 3.16602 5.49356 3.16602 6.33341V25.3334C3.16602 26.1733 3.49965 26.9787 4.09351 27.5726C4.68738 28.1664 5.49283 28.5001 6.33268 28.5001H12.666V33.2501C12.666 33.67 12.8328 34.0727 13.1298 34.3697C13.4267 34.6666 13.8294 34.8334 14.2493 34.8334H15.041C15.4368 34.8334 15.8327 34.6751 16.1493 34.3742L22.0077 28.5001H31.666C32.5059 28.5001 33.3113 28.1664 33.9052 27.5726C34.4991 26.9787 34.8327 26.1733 34.8327 25.3334V6.33341C34.8327 5.49356 34.4991 4.68811 33.9052 4.09424C33.3113 3.50038 32.5059 3.16675 31.666 3.16675H6.33268ZM6.33268 6.33341H31.666V25.3334H20.7093L15.8327 30.2101V25.3334H6.33268V6.33341ZM19.3002 8.70841C17.891 8.70841 16.7668 8.99341 15.9118 9.56341C15.041 10.1334 14.5977 11.0834 14.6768 12.1759H17.796C17.796 11.7326 17.9543 11.4001 18.2077 11.1784C18.5243 10.9567 18.8727 10.8459 19.3002 10.8459C19.791 10.8459 20.2185 10.9726 20.5035 11.2576C20.7885 11.5267 20.931 11.8751 20.931 12.3501C20.931 12.7934 20.8043 13.1892 20.5827 13.5217C20.3135 13.8701 19.981 14.1551 19.5693 14.3767C18.746 14.8834 18.2077 15.3267 17.8752 15.7067C17.5743 16.0867 17.416 16.6251 17.416 17.4167H20.5827C20.5827 16.9734 20.6618 16.6251 20.8043 16.3401C20.9468 16.0709 21.216 15.8334 21.6277 15.5959C22.356 15.2634 22.9577 14.8201 23.4168 14.2501C23.876 13.6642 24.1135 13.0467 24.1135 12.3501C24.1135 11.2417 23.686 10.3551 22.831 9.69008C21.976 9.04091 20.7885 8.70841 19.3002 8.70841ZM17.416 19.0001V22.1667H20.5827V19.0001H17.416Z" fill="black"/>
<path d="M19.3003 8.70825C17.8912 8.70825 16.767 8.99325 15.912 9.56325C15.0412 10.1333 14.5978 11.0833 14.677 12.1758H17.7962C17.7962 11.7324 17.9545 11.3999 18.2078 11.1783C18.5245 10.9566 18.8728 10.8458 19.3003 10.8458C19.7912 10.8458 20.2187 10.9724 20.5037 11.2574C20.7887 11.5266 20.9312 11.8749 20.9312 12.3499C20.9312 12.7933 20.8045 13.1891 20.5828 13.5216C20.3137 13.8699 19.9812 14.1549 19.5695 14.3766C18.7462 14.8833 18.2078 15.3266 17.8753 15.7066C17.5745 16.0866 17.4162 16.6249 17.4162 17.4166H20.5828C20.5828 16.9733 20.662 16.6249 20.8045 16.3399C20.947 16.0708 21.2162 15.8333 21.6278 15.5958C22.3562 15.2633 22.9578 14.8199 23.417 14.2499C23.8762 13.6641 24.1137 13.0466 24.1137 12.3499C24.1137 11.2416 23.6862 10.3549 22.8312 9.68992C21.9762 9.04075 20.7887 8.70825 19.3003 8.70825ZM17.4162 18.9999V22.1666H20.5828V18.9999H17.4162Z" fill="#009DC4"/>
</g>
<defs>
<clipPath id="clip0_1014_1115">
<rect width="38" height="38" fill="white"/>
</clipPath>
</defs>
</svg>
