<svg width="169" height="169" viewBox="0 0 169 169" fill="none" xmlns="http://www.w3.org/2000/svg">
<path d="M154.565 61.4104L154.389 60.2274L154.205 60.2697C152.954 54.4183 150.072 49.0408 145.892 44.7593C141.712 40.4779 136.405 37.4675 130.585 36.0765C124.765 34.6855 118.67 34.9707 113.006 36.8991C107.342 38.8276 102.339 42.3204 98.5771 46.9735C94.8151 51.6267 92.4475 57.2498 91.7481 63.1925C91.0488 69.1351 92.0464 75.1544 94.6254 80.5537C97.2045 85.953 101.26 90.5117 106.322 93.7024C111.384 96.8931 117.245 98.5854 123.229 98.5834C124.799 98.5834 126.306 98.344 127.806 98.1257C127.32 99.7593 126.82 101.421 126.018 102.914C125.215 105.083 123.961 106.963 122.715 108.857C121.673 110.906 119.835 112.293 118.483 114.047C117.068 115.751 115.138 116.885 113.61 118.3C112.11 119.779 110.146 120.518 108.582 121.56C106.949 122.497 105.526 123.532 104.005 124.025L100.21 125.588L96.8722 126.975L100.28 140.629L104.484 139.615C105.829 139.277 107.47 138.883 109.336 138.411C111.244 138.059 113.279 137.094 115.547 136.214C117.779 135.207 120.377 134.538 122.786 132.926C125.208 131.391 128.003 130.109 130.468 128.053C132.855 125.933 135.735 124.095 137.862 121.405C140.185 118.884 142.481 116.237 144.263 113.223C146.326 110.35 147.727 107.195 149.206 104.076C150.544 100.956 151.621 97.7665 152.501 94.6682C154.17 88.4575 154.917 82.5565 155.205 77.5077C155.445 72.4517 155.304 68.2479 155.008 65.2059C154.909 63.9355 154.761 62.6694 154.565 61.4104ZM77.1062 61.4104L76.9302 60.2274L76.7471 60.2697C75.4958 54.4183 72.6134 49.0408 68.4333 44.7593C64.2532 40.4779 58.9462 37.4675 53.1265 36.0765C47.3068 34.6855 41.2121 34.9707 35.5478 36.8991C29.8834 38.8276 24.8808 42.3204 21.1188 46.9735C17.3568 51.6267 14.9891 57.2498 14.2898 63.1925C13.5905 69.1351 14.5881 75.1544 17.1671 80.5537C19.7462 85.953 23.8013 90.5117 28.8632 93.7024C33.9252 96.8931 39.7871 98.5854 45.7708 98.5834C47.3411 98.5834 48.848 98.344 50.3479 98.1257C49.862 99.7593 49.3621 101.421 48.5593 102.914C47.7566 105.083 46.5031 106.963 45.2568 108.857C44.2146 110.906 42.3767 112.293 41.0247 114.047C39.6094 115.751 37.6799 116.885 36.1519 118.3C34.652 119.779 32.6874 120.518 31.1241 121.56C29.4905 122.497 28.0681 123.532 26.5471 124.025L22.7516 125.588C20.6321 126.454 19.4209 126.961 19.4209 126.961L22.8291 140.615L27.0329 139.601C28.3779 139.263 30.0186 138.869 31.8846 138.397C33.7929 138.045 35.828 137.08 38.0954 136.2C40.3276 135.193 42.926 134.524 45.3342 132.911C47.7566 131.376 50.5521 130.095 53.0167 128.039C55.4038 125.919 58.2839 124.081 60.4104 121.391C62.7342 118.87 65.0298 116.223 66.8113 113.209C68.8745 110.336 70.2758 107.181 71.7546 104.062C73.0925 100.942 74.1698 97.7525 75.0501 94.6541C76.7189 88.4434 77.4653 82.5425 77.7541 77.4936C77.9935 72.4377 77.8526 68.2338 77.5569 65.1918C77.4517 63.9264 77.3014 62.6651 77.1062 61.4104Z" fill="#D8F6F9"/>
</svg>
