<svg width="169" height="169" viewBox="0 0 169 169" fill="none" xmlns="http://www.w3.org/2000/svg">
<path d="M45.7708 70.4167C44.2005 70.4167 42.6936 70.6561 41.1937 70.8744C41.6796 69.2407 42.1796 67.5789 42.9823 66.0861C43.7851 63.9172 45.0385 62.0371 46.2849 60.1429C47.327 58.0938 49.1649 56.7066 50.5169 54.9532C51.9323 53.2491 53.8617 52.1154 55.3898 50.7C56.8896 49.2213 58.8543 48.4819 60.4175 47.4397C62.0512 46.5032 63.4736 45.4681 64.9946 44.9751L68.79 43.4119L72.1278 42.0247L68.7126 28.3779L64.5087 29.3919C63.1638 29.7299 61.523 30.1243 59.657 30.5961C57.7487 30.9481 55.7137 31.9128 53.4463 32.7931C51.207 33.793 48.6157 34.469 46.2074 36.0745C43.7851 37.6096 40.9895 38.8911 38.525 40.9473C36.1378 43.0668 33.2578 44.9047 31.1312 47.6017C28.8075 50.1226 26.5119 52.7703 24.7303 55.7841C22.6671 58.6571 21.2658 61.8118 19.7871 64.9312C18.4492 68.0507 17.3718 71.2406 16.4916 74.3389C14.8227 80.5496 14.0763 86.4506 13.7876 91.4994C13.5482 96.5554 13.689 100.759 13.9848 103.801C14.0904 105.238 14.2875 106.632 14.4284 107.597L14.6044 108.78L14.7875 108.737C16.0399 114.588 18.9231 119.964 23.1035 124.244C27.2838 128.525 32.5905 131.534 38.4098 132.924C44.229 134.315 50.3229 134.029 55.9866 132.101C61.6502 130.172 66.6522 126.68 70.4139 122.027C74.1756 117.375 76.5432 111.752 77.243 105.81C77.9427 99.8682 76.9459 93.8496 74.368 88.4505C71.79 83.0514 67.7362 78.4925 62.6754 75.3011C57.6147 72.1097 51.7538 70.4163 45.7708 70.4167ZM123.229 70.4167C121.659 70.4167 120.152 70.6561 118.652 70.8744C119.138 69.2407 119.638 67.5789 120.441 66.0861C121.243 63.9172 122.497 62.0371 123.743 60.1429C124.785 58.0938 126.623 56.7066 127.975 54.9532C129.391 53.2491 131.32 52.1154 132.848 50.7C134.348 49.2213 136.313 48.4819 137.876 47.4397C139.509 46.5032 140.932 45.4681 142.453 44.9751L146.248 43.4119L149.586 42.0247L146.171 28.3779L141.967 29.3919C140.622 29.7299 138.981 30.1243 137.115 30.5961C135.207 30.9481 133.172 31.9128 130.905 32.7931C128.672 33.8 126.074 34.469 123.666 36.0815C121.243 37.6166 118.448 38.8982 115.983 40.9543C113.596 43.0739 110.716 44.9118 108.59 47.6017C106.266 50.1226 103.97 52.7703 102.189 55.7841C100.125 58.6571 98.7242 61.8118 97.2454 64.9312C95.9075 68.0507 94.8301 71.2406 93.9499 74.3389C92.281 80.5496 91.5346 86.4506 91.2459 91.4994C91.0065 96.5554 91.1473 100.759 91.4431 103.801C91.5487 105.238 91.7459 106.632 91.8867 107.597L92.0628 108.78L92.2458 108.737C93.4983 114.588 96.3814 119.964 100.562 124.244C104.742 128.525 110.049 131.534 115.868 132.924C121.687 134.315 127.781 134.029 133.445 132.101C139.109 130.172 144.111 126.68 147.872 122.027C151.634 117.375 154.002 111.752 154.701 105.81C155.401 99.8682 154.404 93.8496 151.826 88.4505C149.248 83.0514 145.195 78.4925 140.134 75.3011C135.073 72.1097 129.212 70.4163 123.229 70.4167Z" fill="#D7F6F9"/>
</svg>
