<svg width="83" height="75" viewBox="0 0 83 75" fill="none" xmlns="http://www.w3.org/2000/svg">
<path opacity="0.4" d="M34.6969 65.0291C16.1901 60.0702 7.2091 31.4826 12.168 12.9758C17.1269 -5.53099 30.2196 7.71155 48.7264 12.6704C67.2332 17.6293 82.1442 21.9916 77.1853 40.4984C72.2264 59.0052 53.2037 69.9879 34.6969 65.0291Z" fill="#FFC701"/>
<path d="M53.6667 17.5317C53.6664 19.2115 53.0021 20.8231 51.8186 22.0151C49.0939 24.7621 46.4502 27.6264 43.6222 30.2729C43.3065 30.5605 42.8924 30.716 42.4654 30.7071C42.0384 30.6983 41.6311 30.5259 41.3275 30.2254L33.1814 22.0179C31.9973 20.8251 31.3328 19.2125 31.3328 17.5317C31.3328 15.8509 31.9973 14.2383 33.1814 13.0455C33.7723 12.4503 34.4751 11.9779 35.2494 11.6555C36.0236 11.3331 36.854 11.1671 37.6927 11.1671C38.5314 11.1671 39.3619 11.3331 40.1361 11.6555C40.9104 11.9779 41.6132 12.4503 42.2041 13.0455L42.5 13.3442L42.7959 13.0455C43.6828 12.149 44.8164 11.5367 46.0525 11.2865C47.2885 11.0364 48.571 11.1597 49.7367 11.6408C50.9024 12.1218 51.8986 12.9389 52.5985 13.988C53.2983 15.037 53.6701 16.2706 53.6667 17.5317Z" stroke="#009DC4" stroke-width="4" stroke-linejoin="round"/>
<path d="M59.25 55.8333L69.9253 45.158C70.2395 44.8442 70.4163 44.4184 70.4167 43.9743V29.3125C70.4167 28.2019 69.9755 27.1368 69.1902 26.3515C68.4049 25.5662 67.3398 25.125 66.2292 25.125C65.1186 25.125 64.0535 25.5662 63.2682 26.3515C62.4829 27.1368 62.0417 28.2019 62.0417 29.3125V41.875" stroke="black" stroke-width="4" stroke-linecap="round" stroke-linejoin="round"/>
<path d="M59.25 44.6667L61.6453 42.2714C61.7711 42.1458 61.8709 41.9965 61.9389 41.8322C62.007 41.6678 62.0419 41.4917 62.0417 41.3139C62.0413 41.0628 61.9711 40.8168 61.839 40.6034C61.7069 40.3899 61.518 40.2174 61.2935 40.1051L60.0568 39.4881C59.0091 38.9643 57.8231 38.7832 56.6668 38.9706C55.5105 39.1579 54.4424 39.7043 53.6137 40.5322L51.1151 43.0307C50.068 44.0776 49.4795 45.4975 49.4792 46.9782V55.8333M25.75 55.8333L15.0747 45.158C14.7605 44.8442 14.5838 44.4184 14.5834 43.9743V29.3125C14.5834 28.2019 15.0246 27.1368 15.8099 26.3515C16.5952 25.5662 17.6603 25.125 18.7709 25.125C19.8815 25.125 20.9466 25.5662 21.7319 26.3515C22.5172 27.1368 22.9584 28.2019 22.9584 29.3125V41.875" stroke="black" stroke-width="4" stroke-linecap="round" stroke-linejoin="round"/>
<path d="M25.75 44.6667L23.3548 42.2714C23.2291 42.1457 23.1294 41.9964 23.0613 41.8321C22.9933 41.6678 22.9583 41.4917 22.9584 41.3139C22.9584 40.803 23.2487 40.3368 23.7065 40.1051L24.9432 39.4881C25.991 38.9643 27.177 38.7832 28.3333 38.9706C29.4896 39.158 30.5577 39.7043 31.3864 40.5322L33.885 43.0308C34.9321 44.0776 35.5206 45.4975 35.5209 46.9782V55.8333" stroke="black" stroke-width="4" stroke-linecap="round" stroke-linejoin="round"/>
</svg>
